<?xml version="1.0" encoding="utf-8"?>
<!-- Generator: Adobe Illustrator 20.1.0, SVG Export Plug-In . SVG Version: 6.00 Build 0)  -->
<svg version="1.1" id="Layer_1" xmlns="http://www.w3.org/2000/svg" xmlns:xlink="http://www.w3.org/1999/xlink" x="0px" y="0px"
	 viewBox="0 0 793.9 53.3" style="enable-background:new 0 0 793.9 53.3;" xml:space="preserve">
<style type="text/css">
	.st0{fill:#666766;}
</style>
<g>
	<g>
		<g>
			<path class="st0" d="M78.1,34.2c-0.7-1.5-1.6-2.9-2.9-4.1c-1.3-1.2-3.3-2.4-6.2-3.8c-5.5-2.6-8.2-5.1-8.2-7.5
				c0-1.5,0.5-2.7,1.4-3.6c1-0.9,2.3-1.4,4.1-1.4c3,0,5.8,0.9,8.5,2.8l2.3-6.5c-2.3-1.8-6-2.7-11-2.7c-3.8,0-6.9,1.1-9.4,3.2
				c-2.4,2.1-3.7,4.9-3.7,8.1c0,1.7,0.3,3.3,0.9,4.8c0.6,1.4,1.5,2.7,2.6,3.7c1.1,1.1,3.4,2.4,6.7,4c3.3,1.6,5.5,3.1,6.5,4.4
				c1.1,1.3,1.6,2.7,1.6,4.1c0,0.5-0.1,0.9-0.1,1.3c1,0,2,0.1,3,0.1c1.5,0,3.1,0,4.6-0.1h0c0.1-0.5,0.1-1.1,0.1-1.7
				C79.2,37.4,78.8,35.7,78.1,34.2"/>
			<path class="st0" d="M78.1,34.2c-0.7-1.5-1.6-2.9-2.9-4.1c-1.3-1.2-3.3-2.4-6.2-3.8c-5.5-2.6-8.2-5.1-8.2-7.5
				c0-1.5,0.5-2.7,1.4-3.6c1-0.9,2.3-1.4,4.1-1.4c3,0,5.8,0.9,8.5,2.8l2.3-6.5c-2.3-1.8-6-2.7-11-2.7c-3.8,0-6.9,1.1-9.4,3.2
				c-2.4,2.1-3.7,4.9-3.7,8.1c0,1.7,0.3,3.3,0.9,4.8c0.6,1.4,1.5,2.7,2.6,3.7c1.1,1.1,3.4,2.4,6.7,4c3.3,1.6,5.5,3.1,6.5,4.4
				c1.1,1.3,1.6,2.7,1.6,4.1c0,0.5-0.1,0.9-0.1,1.3c1,0,2,0.1,3,0.1c1.5,0,3.1,0,4.6-0.1h0c0.1-0.5,0.1-1.1,0.1-1.7
				C79.2,37.4,78.8,35.7,78.1,34.2z"/>
			<path class="st0" d="M70.9,42.2L70.9,42.2c-0.4,0.6-1.1,1.2-1.9,1.5c2.6,0.8,5.3,1.5,8,2h0c0.8-1.1,1.4-2.3,1.7-3.6
				c-1.5,0.1-3,0.1-4.3,0.1C73.3,42.3,72.2,42.3,70.9,42.2"/>
			<path class="st0" d="M70.9,42.2L70.9,42.2c-0.4,0.6-1.1,1.2-1.9,1.5c2.6,0.8,5.3,1.5,8,2h0c0.8-1.1,1.4-2.3,1.7-3.6
				c-1.5,0.1-3,0.1-4.3,0.1C73.3,42.3,72.2,42.3,70.9,42.2z"/>
			<path class="st0" d="M53.1,48c3.2,2,6.8,3,10.9,3c2.9,0,5.5-0.4,7.7-1.3c-5.5-2.1-10.9-4.8-15.9-8L53.1,48"/>
			<path class="st0" d="M53.1,48c3.2,2,6.8,3,10.9,3c2.9,0,5.5-0.4,7.7-1.3c-5.5-2.1-10.9-4.8-15.9-8L53.1,48z"/>
			<path class="st0" d="M67.2,44.3c-0.7,0.1-1.5,0.2-2.3,0.2c-0.9,0-1.9-0.1-2.8-0.3c3.6,1.9,7.3,3.6,11.1,5h0
				c0.7-0.4,1.4-0.8,2-1.3c0.4-0.3,0.8-0.7,1.2-1.1C73.1,46.1,70.1,45.3,67.2,44.3L67.2,44.3"/>
			<path class="st0" d="M67.2,44.3c-0.7,0.1-1.5,0.2-2.3,0.2c-0.9,0-1.9-0.1-2.8-0.3c3.6,1.9,7.3,3.6,11.1,5h0
				c0.7-0.4,1.4-0.8,2-1.3c0.4-0.3,0.8-0.7,1.2-1.1C73.1,46.1,70.1,45.3,67.2,44.3L67.2,44.3z"/>
			<path class="st0" d="M105.4,32.9L105.4,32.9c-0.6-1-1.4-2-2.3-2.8c-1.3-1.2-3.3-2.4-6.2-3.8c-5.5-2.6-8.2-5.1-8.2-7.5
				c0-1.5,0.5-2.7,1.5-3.6c1-0.9,2.3-1.4,4.1-1.4c3,0,5.8,0.9,8.5,2.8l2.3-6.5c-2.3-1.8-6-2.7-11-2.7c-3.8,0-6.9,1.1-9.4,3.2
				c-2.4,2.1-3.7,4.9-3.7,8.1c0,1.7,0.3,3.3,0.9,4.8c0.6,1.4,1.5,2.7,2.6,3.7c1.1,1.1,3.4,2.4,6.7,4c3.3,1.6,5.5,3.1,6.5,4.4
				c0.3,0.3,0.5,0.7,0.7,1C100.9,35.6,103.2,34.4,105.4,32.9"/>
			<path class="st0" d="M105.4,32.9L105.4,32.9c-0.6-1-1.4-2-2.3-2.8c-1.3-1.2-3.3-2.4-6.2-3.8c-5.5-2.6-8.2-5.1-8.2-7.5
				c0-1.5,0.5-2.7,1.5-3.6c1-0.9,2.3-1.4,4.1-1.4c3,0,5.8,0.9,8.5,2.8l2.3-6.5c-2.3-1.8-6-2.7-11-2.7c-3.8,0-6.9,1.1-9.4,3.2
				c-2.4,2.1-3.7,4.9-3.7,8.1c0,1.7,0.3,3.3,0.9,4.8c0.6,1.4,1.5,2.7,2.6,3.7c1.1,1.1,3.4,2.4,6.7,4c3.3,1.6,5.5,3.1,6.5,4.4
				c0.3,0.3,0.5,0.7,0.7,1C100.9,35.6,103.2,34.4,105.4,32.9z"/>
			<path class="st0" d="M105.7,44.5L105.7,44.5c0.9-1.6,1.3-3.3,1.3-5.2c0-1.9-0.3-3.6-1-5.2c0-0.1-0.1-0.2-0.1-0.2
				c-2.2,1.5-4.5,2.7-6.9,3.8l0,0c0.3,0.7,0.4,1.4,0.4,2.1c0,3.1-2.2,4.6-6.7,4.6c-2.9,0-5.9-1-8.9-3.1l-2.2,5.1
				c2.8,0.3,5.7,0.5,8.5,0.5C95.5,46.9,100.7,46.1,105.7,44.5"/>
			<path class="st0" d="M105.7,44.5L105.7,44.5c0.9-1.6,1.3-3.3,1.3-5.2c0-1.9-0.3-3.6-1-5.2c0-0.1-0.1-0.2-0.1-0.2
				c-2.2,1.5-4.5,2.7-6.9,3.8l0,0c0.3,0.7,0.4,1.4,0.4,2.1c0,3.1-2.2,4.6-6.7,4.6c-2.9,0-5.9-1-8.9-3.1l-2.2,5.1
				c2.8,0.3,5.7,0.5,8.5,0.5C95.5,46.9,100.7,46.1,105.7,44.5z"/>
			<path class="st0" d="M81.2,47.5L81.2,47.5L81,48c3.2,2,6.8,3,10.8,3c4.6,0,8.3-1.1,11-3.3c0.7-0.5,1.3-1.1,1.8-1.8
				c-4.7,1.3-9.6,2-14.5,2C87.2,48.1,84.2,47.9,81.2,47.5"/>
			<path class="st0" d="M81.2,47.5L81.2,47.5L81,48c3.2,2,6.8,3,10.8,3c4.6,0,8.3-1.1,11-3.3c0.7-0.5,1.3-1.1,1.8-1.8
				c-4.7,1.3-9.6,2-14.5,2C87.2,48.1,84.2,47.9,81.2,47.5z"/>
			<path class="st0" d="M139.1,50.9h3.1v-9.1c-2.2,1.6-4.4,3.1-6.7,4.5L139.1,50.9"/>
			<path class="st0" d="M139.1,50.9h3.1v-9.1c-2.2,1.6-4.4,3.1-6.7,4.5L139.1,50.9z"/>
			<path class="st0" d="M142.3,16.6V8.2h-7.3v17.1C137.5,22.6,140,19.7,142.3,16.6L142.3,16.6"/>
			<path class="st0" d="M142.3,16.6V8.2h-7.3v17.1C137.5,22.6,140,19.7,142.3,16.6L142.3,16.6z"/>
			<path class="st0" d="M110.9,43.8v6.6h7.3V40.1C115.9,41.5,113.4,42.8,110.9,43.8L110.9,43.8"/>
			<path class="st0" d="M110.9,43.8v6.6h7.3V40.1C115.9,41.5,113.4,42.8,110.9,43.8L110.9,43.8z"/>
			<path class="st0" d="M117.5,21.4c1.3-1.6,2.6-3.2,3.8-4.8l0,0l-6.7-8.4h-3.7v20.3C113.1,26.5,115.2,24.2,117.5,21.4"/>
			<path class="st0" d="M117.5,21.4c1.3-1.6,2.6-3.2,3.8-4.8l0,0l-6.7-8.4h-3.7v20.3C113.1,26.5,115.2,24.2,117.5,21.4z"/>
			<path class="st0" d="M134.9,26.9L134.9,26.9l0,6.7l-3-3.8c-1.8,1.7-3.7,3.3-5.5,4.7l0,0l8.5,10.8c2.3-1.4,4.6-2.9,6.8-4.5
				c0.1-0.1,0.3-0.2,0.4-0.3c0.1,0,0.1-0.1,0.2-0.2l0,0V18.5C140,21.5,137.5,24.3,134.9,26.9"/>
			<path class="st0" d="M134.9,26.9L134.9,26.9l0,6.7l-3-3.8c-1.8,1.7-3.7,3.3-5.5,4.7l0,0l8.5,10.8c2.3-1.4,4.6-2.9,6.8-4.5
				c0.1-0.1,0.3-0.2,0.4-0.3c0.1,0,0.1-0.1,0.2-0.2l0,0V18.5C140,21.5,137.5,24.3,134.9,26.9z"/>
			<path class="st0" d="M131.2,28.9l-9.1-11.4c-1.2,1.6-2.4,3.2-3.7,4.7c-2.6,3.1-5,5.7-7.4,7.8l0,0v12.6c2.4-1.1,4.9-2.3,7.3-3.8h0
				V24.2l7.4,9.4C127.5,32.2,129.3,30.6,131.2,28.9L131.2,28.9"/>
			<path class="st0" d="M131.2,28.9l-9.1-11.4c-1.2,1.6-2.4,3.2-3.7,4.7c-2.6,3.1-5,5.7-7.4,7.8l0,0v12.6c2.4-1.1,4.9-2.3,7.3-3.8h0
				V24.2l7.4,9.4C127.5,32.2,129.3,30.6,131.2,28.9L131.2,28.9z"/>
			<path class="st0" d="M10.8,31.3c0.6,2.1,2.3,8.6,4.3,10.1c11.7,7.9,23.5,2.9,28.1,0.1l0.1,0C39.2,52,31.7,55.8,21.4,51.6
				C20,51.1,18.7,50,18,49.4C14.6,46.1,10,39.9,10.8,31.3"/>
			<path class="st0" d="M10.8,31.3c0.6,2.1,2.3,8.6,4.3,10.1c11.7,7.9,23.5,2.9,28.1,0.1l0.1,0C39.2,52,31.7,55.8,21.4,51.6
				C20,51.1,18.7,50,18,49.4C14.6,46.1,10,39.9,10.8,31.3z"/>
			<path class="st0" d="M18.5,19.6c-1.9,1.3-7.5,5-8.3,7.3c-3.7,13.5,5,22.7,9.2,26l0.1,0.1C8,52.8,1.9,47.2,2.4,36.2
				c0.1-1.5,0.7-3,1.1-3.9C5.5,28,9.9,21.7,18.5,19.6"/>
			<path class="st0" d="M18.5,19.6c-1.9,1.3-7.5,5-8.3,7.3c-3.7,13.5,5,22.7,9.2,26l0.1,0.1C8,52.8,1.9,47.2,2.4,36.2
				c0.1-1.5,0.7-3,1.1-3.9C5.5,28,9.9,21.7,18.5,19.6z"/>
			<path class="st0" d="M33.5,23.8c-1.7-1.4-6.8-5.8-9.3-6C10,17.7,3.1,28.3,0.9,33.1l-0.1,0.1c-2.6-11,1.4-18.2,12.3-20.5
				c1.5-0.3,3.2-0.1,4.1,0C21.9,13.6,29.2,16.2,33.5,23.8"/>
			<path class="st0" d="M33.5,23.8c-1.7-1.4-6.8-5.8-9.3-6C10,17.7,3.1,28.3,0.9,33.1l-0.1,0.1c-2.6-11,1.4-18.2,12.3-20.5
				c1.5-0.3,3.2-0.1,4.1,0C21.9,13.6,29.2,16.2,33.5,23.8z"/>
			<path class="st0" d="M33.7,37.7c0.8-2.1,3.3-8.3,2.7-10.6c-4.6-13.2-17.1-16-22.5-16.5l-0.1,0c9.7-6.1,17.9-4.8,23.8,4.6
				c0.8,1.3,1.2,2.9,1.3,3.8C39.6,23.5,39.6,31.2,33.7,37.7"/>
			<path class="st0" d="M33.7,37.7c0.8-2.1,3.3-8.3,2.7-10.6c-4.6-13.2-17.1-16-22.5-16.5l-0.1,0c9.7-6.1,17.9-4.8,23.8,4.6
				c0.8,1.3,1.2,2.9,1.3,3.8C39.6,23.5,39.6,31.2,33.7,37.7z"/>
			<path class="st0" d="M20.6,42.5c2.3,0,9,0.3,11.1-1.1c11.1-8.8,9.6-21.3,8.2-26.4l0-0.1c9.1,6.9,10.7,14.9,3.7,23.5
				c-0.9,1.2-2.4,2.1-3.2,2.5C36.2,43.2,28.9,45.8,20.6,42.5"/>
			<path class="st0" d="M20.6,42.5c2.3,0,9,0.3,11.1-1.1c11.1-8.8,9.6-21.3,8.2-26.4l0-0.1c9.1,6.9,10.7,14.9,3.7,23.5
				c-0.9,1.2-2.4,2.1-3.2,2.5C36.2,43.2,28.9,45.8,20.6,42.5z"/>
		</g>
		<g>
			<path class="st0" d="M159.9,24.3l1.1-2.6c1.2,0.8,2.4,1.2,3.5,1.2c1.8,0,2.6-0.6,2.6-1.8c0-0.6-0.2-1.1-0.6-1.6
				c-0.4-0.5-1.3-1.1-2.6-1.7c-1.3-0.6-2.2-1.2-2.6-1.6c-0.4-0.4-0.8-0.9-1-1.5c-0.2-0.6-0.4-1.2-0.4-1.9c0-1.3,0.5-2.4,1.4-3.2
				c1-0.8,2.2-1.3,3.7-1.3c2,0,3.4,0.4,4.3,1.1l-0.9,2.6c-1-0.7-2.2-1.1-3.3-1.1c-0.7,0-1.2,0.2-1.6,0.5c-0.4,0.4-0.6,0.8-0.6,1.4
				c0,0.9,1.1,1.9,3.2,3c1.1,0.5,1.9,1,2.4,1.5c0.5,0.4,0.9,1,1.1,1.6c0.3,0.6,0.4,1.3,0.4,2c0,1.4-0.5,2.5-1.6,3.3
				c-1.1,0.9-2.5,1.3-4.4,1.3C162.6,25.5,161.1,25.1,159.9,24.3"/>
			<path class="st0" d="M159.9,24.3l1.1-2.6c1.2,0.8,2.4,1.2,3.5,1.2c1.8,0,2.6-0.6,2.6-1.8c0-0.6-0.2-1.1-0.6-1.6
				c-0.4-0.5-1.3-1.1-2.6-1.7c-1.3-0.6-2.2-1.2-2.6-1.6c-0.4-0.4-0.8-0.9-1-1.5c-0.2-0.6-0.4-1.2-0.4-1.9c0-1.3,0.5-2.4,1.4-3.2
				c1-0.8,2.2-1.3,3.7-1.3c2,0,3.4,0.4,4.3,1.1l-0.9,2.6c-1-0.7-2.2-1.1-3.3-1.1c-0.7,0-1.2,0.2-1.6,0.5c-0.4,0.4-0.6,0.8-0.6,1.4
				c0,0.9,1.1,1.9,3.2,3c1.1,0.5,1.9,1,2.4,1.5c0.5,0.4,0.9,1,1.1,1.6c0.3,0.6,0.4,1.3,0.4,2c0,1.4-0.5,2.5-1.6,3.3
				c-1.1,0.9-2.5,1.3-4.4,1.3C162.6,25.5,161.1,25.1,159.9,24.3z"/>
			<path class="st0" d="M172.2,8.5h3v11.3c0,0.9,0.3,1.6,0.8,2.2c0.6,0.6,1.3,0.8,2.3,0.8c1.1,0,1.9-0.3,2.5-0.8
				c0.6-0.5,0.9-1.3,0.9-2.3V8.5h3V20c0,1.7-0.6,3.1-1.8,4c-1.2,1-2.7,1.4-4.7,1.4c-2,0-3.5-0.5-4.6-1.4c-1.1-1-1.6-2.3-1.6-4.1V8.5
				"/>
			<path class="st0" d="M172.2,8.5h3v11.3c0,0.9,0.3,1.6,0.8,2.2c0.6,0.6,1.3,0.8,2.3,0.8c1.1,0,1.9-0.3,2.5-0.8
				c0.6-0.5,0.9-1.3,0.9-2.3V8.5h3V20c0,1.7-0.6,3.1-1.8,4c-1.2,1-2.7,1.4-4.7,1.4c-2,0-3.5-0.5-4.6-1.4c-1.1-1-1.6-2.3-1.6-4.1V8.5
				z"/>
			<path class="st0" d="M190.7,19.1v6.1h-3V8.6c2-0.1,3.2-0.1,3.5-0.1c2.7,0,4.6,0.4,5.9,1.2c1.2,0.8,1.9,2.1,1.9,3.8
				c0,3.8-2.3,5.7-6.9,5.7C191.7,19.2,191.3,19.1,190.7,19.1 M190.7,11.1v5.3c0.5,0.1,0.9,0.1,1.2,0.1c1.4,0,2.4-0.2,3-0.7
				c0.6-0.4,0.9-1.2,0.9-2.2c0-1.7-1.4-2.6-4.3-2.6C191.3,11,191,11.1,190.7,11.1z"/>
			<path class="st0" d="M190.7,19.1v6.1h-3V8.6c2-0.1,3.2-0.1,3.5-0.1c2.7,0,4.6,0.4,5.9,1.2c1.2,0.8,1.9,2.1,1.9,3.8
				c0,3.8-2.3,5.7-6.9,5.7C191.7,19.2,191.3,19.1,190.7,19.1z M190.7,11.1v5.3c0.5,0.1,0.9,0.1,1.2,0.1c1.4,0,2.4-0.2,3-0.7
				c0.6-0.4,0.9-1.2,0.9-2.2c0-1.7-1.4-2.6-4.3-2.6C191.3,11,191,11.1,190.7,11.1z"/>
			<polyline class="st0" points="204,11.2 204,15.1 209.6,15.1 209.6,17.6 204,17.6 204,22.6 211.7,22.6 211.7,25.2 201,25.2 
				201,8.5 211.8,8.5 211.8,11.2 204,11.2 			"/>
			<polygon class="st0" points="204,11.2 204,15.1 209.6,15.1 209.6,17.6 204,17.6 204,22.6 211.7,22.6 211.7,25.2 201,25.2 
				201,8.5 211.8,8.5 211.8,11.2 			"/>
			<path class="st0" d="M223.5,25.2l-4.5-6.9c-0.5,0-1.1,0-1.9-0.1v7h-3.1V8.5c0.2,0,0.8,0,2-0.1c1.1-0.1,2-0.1,2.7-0.1
				c4.3,0,6.4,1.6,6.4,4.9c0,1-0.3,1.9-0.9,2.7c-0.6,0.8-1.3,1.4-2.3,1.7l5,7.5H223.5 M217,11.1v4.6c0.6,0,1,0.1,1.3,0.1
				c1.2,0,2.2-0.2,2.8-0.5c0.6-0.3,0.9-1,0.9-2c0-0.8-0.3-1.4-1-1.7c-0.6-0.3-1.6-0.5-2.9-0.5C217.7,11,217.4,11.1,217,11.1z"/>
			<path class="st0" d="M223.5,25.2l-4.5-6.9c-0.5,0-1.1,0-1.9-0.1v7h-3.1V8.5c0.2,0,0.8,0,2-0.1c1.1-0.1,2-0.1,2.7-0.1
				c4.3,0,6.4,1.6,6.4,4.9c0,1-0.3,1.9-0.9,2.7c-0.6,0.8-1.3,1.4-2.3,1.7l5,7.5H223.5z M217,11.1v4.6c0.6,0,1,0.1,1.3,0.1
				c1.2,0,2.2-0.2,2.8-0.5c0.6-0.3,0.9-1,0.9-2c0-0.8-0.3-1.4-1-1.7c-0.6-0.3-1.6-0.5-2.9-0.5C217.7,11,217.4,11.1,217,11.1z"/>
			<rect x="227.9" y="8.5" class="st0" width="3" height="16.6"/>
			<rect x="227.9" y="8.5" class="st0" width="3" height="16.6"/>
			<polyline class="st0" points="244.9,25.4 236.7,14.9 236.7,25.2 233.8,25.2 233.8,8.5 235.3,8.5 243.3,18.6 243.3,8.5 246.2,8.5 
				246.2,25.4 244.9,25.4 			"/>
			<polygon class="st0" points="244.9,25.4 236.7,14.9 236.7,25.2 233.8,25.2 233.8,8.5 235.3,8.5 243.3,18.6 243.3,8.5 246.2,8.5 
				246.2,25.4 			"/>
			<polyline class="st0" points="256,11.2 256,25.2 253,25.2 253,11.2 247.6,11.2 247.6,8.5 261.6,8.5 261.6,11.2 256,11.2 			"/>
			<polygon class="st0" points="256,11.2 256,25.2 253,25.2 253,11.2 247.6,11.2 247.6,8.5 261.6,8.5 261.6,11.2 			"/>
			<polyline class="st0" points="266,11.2 266,15.1 271.6,15.1 271.6,17.6 266,17.6 266,22.6 273.7,22.6 273.7,25.2 263,25.2 
				263,8.5 273.8,8.5 273.8,11.2 266,11.2 			"/>
			<polygon class="st0" points="266,11.2 266,15.1 271.6,15.1 271.6,17.6 266,17.6 266,22.6 273.7,22.6 273.7,25.2 263,25.2 
				263,8.5 273.8,8.5 273.8,11.2 			"/>
			<polyline class="st0" points="287,25.4 278.8,14.9 278.8,25.2 275.9,25.2 275.9,8.5 277.3,8.5 285.3,18.6 285.3,8.5 288.2,8.5 
				288.2,25.4 287,25.4 			"/>
			<polygon class="st0" points="287,25.4 278.8,14.9 278.8,25.2 275.9,25.2 275.9,8.5 277.3,8.5 285.3,18.6 285.3,8.5 288.2,8.5 
				288.2,25.4 			"/>
			<path class="st0" d="M294.9,25.2h-3.8V8.6c2.4-0.1,3.9-0.1,4.5-0.1c2.5,0,4.4,0.7,5.9,2.1c1.4,1.4,2.2,3.3,2.2,5.7
				C303.7,22.2,300.7,25.2,294.9,25.2 M294.1,11.1v11.4c0.5,0.1,1,0.1,1.6,0.1c1.5,0,2.7-0.5,3.6-1.6c0.9-1.1,1.3-2.6,1.3-4.5
				c0-3.6-1.7-5.3-5.1-5.3C295.2,11,294.7,11.1,294.1,11.1z"/>
			<path class="st0" d="M294.9,25.2h-3.8V8.6c2.4-0.1,3.9-0.1,4.5-0.1c2.5,0,4.4,0.7,5.9,2.1c1.4,1.4,2.2,3.3,2.2,5.7
				C303.7,22.2,300.7,25.2,294.9,25.2z M294.1,11.1v11.4c0.5,0.1,1,0.1,1.6,0.1c1.5,0,2.7-0.5,3.6-1.6c0.9-1.1,1.3-2.6,1.3-4.5
				c0-3.6-1.7-5.3-5.1-5.3C295.2,11,294.7,11.1,294.1,11.1z"/>
			<polyline class="st0" points="308.8,11.2 308.8,15.1 314.4,15.1 314.4,17.6 308.8,17.6 308.8,22.6 316.5,22.6 316.5,25.2 
				305.8,25.2 305.8,8.5 316.6,8.5 316.6,11.2 308.8,11.2 			"/>
			<polygon class="st0" points="308.8,11.2 308.8,15.1 314.4,15.1 314.4,17.6 308.8,17.6 308.8,22.6 316.5,22.6 316.5,25.2 
				305.8,25.2 305.8,8.5 316.6,8.5 316.6,11.2 			"/>
			<polyline class="st0" points="329.8,25.4 321.6,14.9 321.6,25.2 318.6,25.2 318.6,8.5 320.1,8.5 328.1,18.6 328.1,8.5 331,8.5 
				331,25.4 329.8,25.4 			"/>
			<polygon class="st0" points="329.8,25.4 321.6,14.9 321.6,25.2 318.6,25.2 318.6,8.5 320.1,8.5 328.1,18.6 328.1,8.5 331,8.5 
				331,25.4 			"/>
			<path class="st0" d="M345.5,9.4l-1.2,2.4c-0.7-0.6-1.7-1-3.2-1c-1.4,0-2.6,0.6-3.5,1.7c-0.9,1.2-1.4,2.6-1.4,4.4
				c0,1.8,0.4,3.2,1.3,4.3c0.8,1,1.9,1.6,3.3,1.6c1.6,0,2.9-0.6,3.8-1.7l1.4,2.4c-1.2,1.3-3,1.9-5.4,1.9c-2.4,0-4.2-0.7-5.5-2.3
				c-1.3-1.5-2-3.6-2-6.3c0-2.5,0.7-4.5,2.2-6.2c1.5-1.7,3.3-2.5,5.6-2.5C342.8,8.3,344.4,8.6,345.5,9.4"/>
			<path class="st0" d="M345.5,9.4l-1.2,2.4c-0.7-0.6-1.7-1-3.2-1c-1.4,0-2.6,0.6-3.5,1.7c-0.9,1.2-1.4,2.6-1.4,4.4
				c0,1.8,0.4,3.2,1.3,4.3c0.8,1,1.9,1.6,3.3,1.6c1.6,0,2.9-0.6,3.8-1.7l1.4,2.4c-1.2,1.3-3,1.9-5.4,1.9c-2.4,0-4.2-0.7-5.5-2.3
				c-1.3-1.5-2-3.6-2-6.3c0-2.5,0.7-4.5,2.2-6.2c1.5-1.7,3.3-2.5,5.6-2.5C342.8,8.3,344.4,8.6,345.5,9.4z"/>
			<rect x="347.9" y="8.5" class="st0" width="3" height="16.6"/>
			<rect x="347.9" y="8.5" class="st0" width="3" height="16.6"/>
			<path class="st0" d="M363.7,25.2l-1.2-3.4h-5.8l-1.2,3.4h-3.3l6.8-16.9h1.3l6.8,16.9H363.7 M359.6,13.4L359.6,13.4l-2,6.2h4.1
				L359.6,13.4z"/>
			<path class="st0" d="M363.7,25.2l-1.2-3.4h-5.8l-1.2,3.4h-3.3l6.8-16.9h1.3l6.8,16.9H363.7z M359.6,13.4L359.6,13.4l-2,6.2h4.1
				L359.6,13.4z"/>
			<path class="st0" d="M378.6,25.2h-3.8V8.6c2.4-0.1,3.9-0.1,4.5-0.1c2.5,0,4.4,0.7,5.9,2.1c1.4,1.4,2.2,3.3,2.2,5.7
				C387.4,22.2,384.4,25.2,378.6,25.2 M377.8,11.1v11.4c0.5,0.1,1,0.1,1.6,0.1c1.5,0,2.7-0.5,3.6-1.6c0.9-1.1,1.3-2.6,1.3-4.5
				c0-3.6-1.7-5.3-5.1-5.3C378.9,11,378.4,11.1,377.8,11.1z"/>
			<path class="st0" d="M378.6,25.2h-3.8V8.6c2.4-0.1,3.9-0.1,4.5-0.1c2.5,0,4.4,0.7,5.9,2.1c1.4,1.4,2.2,3.3,2.2,5.7
				C387.4,22.2,384.4,25.2,378.6,25.2z M377.8,11.1v11.4c0.5,0.1,1,0.1,1.6,0.1c1.5,0,2.7-0.5,3.6-1.6c0.9-1.1,1.3-2.6,1.3-4.5
				c0-3.6-1.7-5.3-5.1-5.3C378.9,11,378.4,11.1,377.8,11.1z"/>
			<polyline class="st0" points="392.5,11.2 392.5,15.1 398.1,15.1 398.1,17.6 392.5,17.6 392.5,22.6 400.1,22.6 400.1,25.2 
				389.4,25.2 389.4,8.5 400.3,8.5 400.3,11.2 392.5,11.2 			"/>
			<polygon class="st0" points="392.5,11.2 392.5,15.1 398.1,15.1 398.1,17.6 392.5,17.6 392.5,22.6 400.1,22.6 400.1,25.2 
				389.4,25.2 389.4,8.5 400.3,8.5 400.3,11.2 			"/>
			<path class="st0" d="M159.9,49.8l1.1-2.7c1.2,0.8,2.4,1.2,3.5,1.2c1.8,0,2.6-0.6,2.6-1.8c0-0.6-0.2-1.1-0.6-1.6
				c-0.4-0.5-1.3-1.1-2.6-1.7c-1.3-0.6-2.2-1.2-2.6-1.6c-0.4-0.4-0.8-0.9-1-1.5c-0.2-0.6-0.4-1.2-0.4-1.9c0-1.3,0.5-2.4,1.4-3.2
				c1-0.8,2.2-1.3,3.7-1.3c2,0,3.4,0.4,4.3,1.1l-0.9,2.5c-1-0.8-2.2-1.1-3.3-1.1c-0.7,0-1.2,0.2-1.6,0.5c-0.4,0.4-0.6,0.8-0.6,1.4
				c0,0.9,1.1,1.9,3.2,3c1.1,0.5,1.9,1,2.4,1.5c0.5,0.5,0.9,1,1.1,1.6c0.3,0.6,0.4,1.3,0.4,2c0,1.4-0.5,2.5-1.6,3.3
				c-1.1,0.9-2.5,1.3-4.4,1.3C162.6,51,161.1,50.6,159.9,49.8"/>
			<path class="st0" d="M159.9,49.8l1.1-2.7c1.2,0.8,2.4,1.2,3.5,1.2c1.8,0,2.6-0.6,2.6-1.8c0-0.6-0.2-1.1-0.6-1.6
				c-0.4-0.5-1.3-1.1-2.6-1.7c-1.3-0.6-2.2-1.2-2.6-1.6c-0.4-0.4-0.8-0.9-1-1.5c-0.2-0.6-0.4-1.2-0.4-1.9c0-1.3,0.5-2.4,1.4-3.2
				c1-0.8,2.2-1.3,3.7-1.3c2,0,3.4,0.4,4.3,1.1l-0.9,2.5c-1-0.8-2.2-1.1-3.3-1.1c-0.7,0-1.2,0.2-1.6,0.5c-0.4,0.4-0.6,0.8-0.6,1.4
				c0,0.9,1.1,1.9,3.2,3c1.1,0.5,1.9,1,2.4,1.5c0.5,0.5,0.9,1,1.1,1.6c0.3,0.6,0.4,1.3,0.4,2c0,1.4-0.5,2.5-1.6,3.3
				c-1.1,0.9-2.5,1.3-4.4,1.3C162.6,51,161.1,50.6,159.9,49.8z"/>
			<polyline class="st0" points="174.7,36.7 174.7,40.6 180.3,40.6 180.3,43.1 174.7,43.1 174.7,48.1 182.4,48.1 182.4,50.7 
				171.7,50.7 171.7,34.1 182.5,34.1 182.5,36.7 174.7,36.7 			"/>
			<polygon class="st0" points="174.7,36.7 174.7,40.6 180.3,40.6 180.3,43.1 174.7,43.1 174.7,48.1 182.4,48.1 182.4,50.7 
				171.7,50.7 171.7,34.1 182.5,34.1 182.5,36.7 			"/>
			<path class="st0" d="M196.6,35.4l-1.3,2.4c-0.4-0.3-0.9-0.6-1.6-0.9c-0.8-0.3-1.4-0.5-1.9-0.5c-1.7,0-3,0.6-3.9,1.7
				c-1,1.1-1.4,2.6-1.4,4.4c0,1.8,0.5,3.2,1.4,4.3c0.9,1.1,2.2,1.6,3.9,1.6c1.1,0,2-0.3,2.7-0.9v-3.3H192v-2.5h5.4v7.5
				c-0.7,0.6-1.6,1-2.8,1.3c-1.1,0.3-2.3,0.5-3.4,0.5c-2.4,0-4.4-0.8-5.8-2.4c-1.4-1.6-2.1-3.6-2.1-6.2c0-2.6,0.8-4.7,2.3-6.3
				c1.6-1.6,3.6-2.4,6.3-2.4C193.8,33.8,195.3,34.3,196.6,35.4"/>
			<path class="st0" d="M196.6,35.4l-1.3,2.4c-0.4-0.3-0.9-0.6-1.6-0.9c-0.8-0.3-1.4-0.5-1.9-0.5c-1.7,0-3,0.6-3.9,1.7
				c-1,1.1-1.4,2.6-1.4,4.4c0,1.8,0.5,3.2,1.4,4.3c0.9,1.1,2.2,1.6,3.9,1.6c1.1,0,2-0.3,2.7-0.9v-3.3H192v-2.5h5.4v7.5
				c-0.7,0.6-1.6,1-2.8,1.3c-1.1,0.3-2.3,0.5-3.4,0.5c-2.4,0-4.4-0.8-5.8-2.4c-1.4-1.6-2.1-3.6-2.1-6.2c0-2.6,0.8-4.7,2.3-6.3
				c1.6-1.6,3.6-2.4,6.3-2.4C193.8,33.8,195.3,34.3,196.6,35.4z"/>
			<path class="st0" d="M198.9,34.1h3v11.3c0,0.9,0.3,1.6,0.8,2.2c0.6,0.6,1.3,0.8,2.3,0.8c1.1,0,1.9-0.3,2.6-0.8
				c0.6-0.6,0.9-1.3,0.9-2.3V34.1h3v11.5c0,1.7-0.6,3-1.8,4c-1.2,1-2.7,1.5-4.7,1.5c-2,0-3.5-0.5-4.6-1.4c-1.1-0.9-1.6-2.3-1.6-4.1
				V34.1"/>
			<path class="st0" d="M198.9,34.1h3v11.3c0,0.9,0.3,1.6,0.8,2.2c0.6,0.6,1.3,0.8,2.3,0.8c1.1,0,1.9-0.3,2.6-0.8
				c0.6-0.6,0.9-1.3,0.9-2.3V34.1h3v11.5c0,1.7-0.6,3-1.8,4c-1.2,1-2.7,1.5-4.7,1.5c-2,0-3.5-0.5-4.6-1.4c-1.1-0.9-1.6-2.3-1.6-4.1
				V34.1z"/>
			<path class="st0" d="M223.5,50.7l-4.5-6.9c-0.4,0-1.1,0-1.9-0.1v6.9h-3.1V34.1c0.2,0,0.8,0,1.9-0.1c1.1-0.1,2.1-0.1,2.7-0.1
				c4.3,0,6.5,1.6,6.5,4.9c0,1-0.3,1.9-0.9,2.7c-0.6,0.8-1.4,1.4-2.2,1.7l5,7.5H223.5 M217.1,36.6v4.6c0.6,0,1,0.1,1.3,0.1
				c1.2,0,2.2-0.2,2.8-0.5c0.6-0.4,0.9-1,0.9-2c0-0.8-0.3-1.4-0.9-1.7c-0.6-0.3-1.6-0.5-2.9-0.5C217.7,36.6,217.4,36.6,217.1,36.6z"
				/>
			<path class="st0" d="M223.5,50.7l-4.5-6.9c-0.4,0-1.1,0-1.9-0.1v6.9h-3.1V34.1c0.2,0,0.8,0,1.9-0.1c1.1-0.1,2.1-0.1,2.7-0.1
				c4.3,0,6.5,1.6,6.5,4.9c0,1-0.3,1.9-0.9,2.7c-0.6,0.8-1.4,1.4-2.2,1.7l5,7.5H223.5z M217.1,36.6v4.6c0.6,0,1,0.1,1.3,0.1
				c1.2,0,2.2-0.2,2.8-0.5c0.6-0.4,0.9-1,0.9-2c0-0.8-0.3-1.4-0.9-1.7c-0.6-0.3-1.6-0.5-2.9-0.5C217.7,36.6,217.4,36.6,217.1,36.6z"
				/>
			<path class="st0" d="M226.5,42.3c0-2.4,0.7-4.4,2-6c1.3-1.6,3.1-2.5,5.3-2.5c2.4,0,4.3,0.7,5.6,2.2c1.3,1.5,1.9,3.6,1.9,6.3
				c0,2.7-0.7,4.8-2,6.4c-1.3,1.6-3.3,2.4-5.7,2.4c-2.3,0-4-0.8-5.3-2.3C227.1,47.1,226.5,45,226.5,42.3 M229.6,42.3L229.6,42.3
				c0,1.9,0.3,3.5,1,4.5c0.7,1.1,1.6,1.6,2.9,1.6c1.5,0,2.7-0.5,3.4-1.6c0.8-1,1.2-2.6,1.2-4.6c0-3.9-1.5-5.9-4.4-5.9
				c-1.4,0-2.4,0.5-3.1,1.6C230,39,229.6,40.5,229.6,42.3z"/>
			<path class="st0" d="M226.5,42.3c0-2.4,0.7-4.4,2-6c1.3-1.6,3.1-2.5,5.3-2.5c2.4,0,4.3,0.7,5.6,2.2c1.3,1.5,1.9,3.6,1.9,6.3
				c0,2.7-0.7,4.8-2,6.4c-1.3,1.6-3.3,2.4-5.7,2.4c-2.3,0-4-0.8-5.3-2.3C227.1,47.1,226.5,45,226.5,42.3z M229.6,42.3L229.6,42.3
				c0,1.9,0.3,3.5,1,4.5c0.7,1.1,1.6,1.6,2.9,1.6c1.5,0,2.7-0.5,3.4-1.6c0.8-1,1.2-2.6,1.2-4.6c0-3.9-1.5-5.9-4.4-5.9
				c-1.4,0-2.4,0.5-3.1,1.6C230,39,229.6,40.5,229.6,42.3z"/>
			<path class="st0" d="M242.1,49.8l1.1-2.7c1.2,0.8,2.4,1.2,3.5,1.2c1.8,0,2.7-0.6,2.7-1.8c0-0.6-0.2-1.1-0.6-1.6
				c-0.4-0.5-1.3-1.1-2.6-1.7c-1.3-0.6-2.2-1.2-2.6-1.6c-0.4-0.4-0.8-0.9-1-1.5c-0.2-0.6-0.4-1.2-0.4-1.9c0-1.3,0.5-2.4,1.4-3.2
				c1-0.8,2.2-1.3,3.7-1.3c2,0,3.4,0.4,4.3,1.1l-0.9,2.5c-1.1-0.8-2.2-1.1-3.4-1.1c-0.7,0-1.2,0.2-1.6,0.5c-0.4,0.4-0.6,0.8-0.6,1.4
				c0,0.9,1.1,1.9,3.2,3c1.1,0.5,2,1,2.5,1.5c0.5,0.5,0.9,1,1.1,1.6c0.3,0.6,0.4,1.3,0.4,2c0,1.4-0.5,2.5-1.6,3.3
				c-1.1,0.9-2.5,1.3-4.4,1.3C244.8,51,243.4,50.6,242.1,49.8"/>
			<path class="st0" d="M242.1,49.8l1.1-2.7c1.2,0.8,2.4,1.2,3.5,1.2c1.8,0,2.7-0.6,2.7-1.8c0-0.6-0.2-1.1-0.6-1.6
				c-0.4-0.5-1.3-1.1-2.6-1.7c-1.3-0.6-2.2-1.2-2.6-1.6c-0.4-0.4-0.8-0.9-1-1.5c-0.2-0.6-0.4-1.2-0.4-1.9c0-1.3,0.5-2.4,1.4-3.2
				c1-0.8,2.2-1.3,3.7-1.3c2,0,3.4,0.4,4.3,1.1l-0.9,2.5c-1.1-0.8-2.2-1.1-3.4-1.1c-0.7,0-1.2,0.2-1.6,0.5c-0.4,0.4-0.6,0.8-0.6,1.4
				c0,0.9,1.1,1.9,3.2,3c1.1,0.5,2,1,2.5,1.5c0.5,0.5,0.9,1,1.1,1.6c0.3,0.6,0.4,1.3,0.4,2c0,1.4-0.5,2.5-1.6,3.3
				c-1.1,0.9-2.5,1.3-4.4,1.3C244.8,51,243.4,50.6,242.1,49.8z"/>
			<path class="st0" d="M263.8,50.7H260V34.1c2.4-0.1,3.9-0.1,4.5-0.1c2.5,0,4.4,0.7,5.9,2.1c1.5,1.4,2.2,3.3,2.2,5.7
				C272.6,47.7,269.6,50.7,263.8,50.7 M263,36.7V48c0.5,0,1,0.1,1.6,0.1c1.5,0,2.7-0.5,3.6-1.6c0.9-1.1,1.3-2.6,1.3-4.5
				c0-3.6-1.7-5.3-5.1-5.3C264.1,36.6,263.6,36.6,263,36.7z"/>
			<path class="st0" d="M263.8,50.7H260V34.1c2.4-0.1,3.9-0.1,4.5-0.1c2.5,0,4.4,0.7,5.9,2.1c1.5,1.4,2.2,3.3,2.2,5.7
				C272.6,47.7,269.6,50.7,263.8,50.7z M263,36.7V48c0.5,0,1,0.1,1.6,0.1c1.5,0,2.7-0.5,3.6-1.6c0.9-1.1,1.3-2.6,1.3-4.5
				c0-3.6-1.7-5.3-5.1-5.3C264.1,36.6,263.6,36.6,263,36.7z"/>
			<polyline class="st0" points="277.2,36.7 277.2,40.6 282.8,40.6 282.8,43.1 277.2,43.1 277.2,48.1 284.9,48.1 284.9,50.7 
				274.2,50.7 274.2,34.1 285,34.1 285,36.7 277.2,36.7 			"/>
			<polygon class="st0" points="277.2,36.7 277.2,40.6 282.8,40.6 282.8,43.1 277.2,43.1 277.2,48.1 284.9,48.1 284.9,50.7 
				274.2,50.7 274.2,34.1 285,34.1 285,36.7 			"/>
			<polyline class="st0" points="292.6,50.7 292.6,34.1 295.6,34.1 295.6,48.1 303.3,48.1 303.3,50.7 292.6,50.7 			"/>
			<polygon class="st0" points="292.6,50.7 292.6,34.1 295.6,34.1 295.6,48.1 303.3,48.1 303.3,50.7 			"/>
			<path class="st0" d="M314.5,50.7l-1.2-3.4h-5.8l-1.2,3.4h-3.3l6.8-16.9h1.3l6.8,16.9H314.5 M310.4,38.9L310.4,38.9l-2,6.1h4.1
				L310.4,38.9z"/>
			<path class="st0" d="M314.5,50.7l-1.2-3.4h-5.8l-1.2,3.4h-3.3l6.8-16.9h1.3l6.8,16.9H314.5z M310.4,38.9L310.4,38.9l-2,6.1h4.1
				L310.4,38.9z"/>
			<polyline class="st0" points="335.7,50.9 327.5,40.4 327.5,50.7 324.6,50.7 324.6,34.1 326.1,34.1 334.1,44.1 334.1,34.1 
				337,34.1 337,50.9 335.7,50.9 			"/>
			<polygon class="st0" points="335.7,50.9 327.5,40.4 327.5,50.7 324.6,50.7 324.6,34.1 326.1,34.1 334.1,44.1 334.1,34.1 
				337,34.1 337,50.9 			"/>
			<path class="st0" d="M349.2,50.7l-1.2-3.4h-5.8l-1.2,3.4h-3.3l6.8-16.9h1.3l6.8,16.9H349.2 M345.1,38.9L345.1,38.9l-2,6.1h4.1
				L345.1,38.9z"/>
			<path class="st0" d="M349.2,50.7l-1.2-3.4h-5.8l-1.2,3.4h-3.3l6.8-16.9h1.3l6.8,16.9H349.2z M345.1,38.9L345.1,38.9l-2,6.1h4.1
				L345.1,38.9z"/>
			<path class="st0" d="M364.9,35l-1.2,2.4c-0.7-0.7-1.8-1-3.2-1c-1.4,0-2.6,0.6-3.5,1.8c-0.9,1.1-1.4,2.6-1.4,4.4s0.4,3.2,1.3,4.2
				c0.8,1,2,1.6,3.4,1.6c1.6,0,2.9-0.6,3.7-1.7l1.4,2.4c-1.2,1.3-3,1.9-5.4,1.9c-2.4,0-4.2-0.8-5.5-2.3c-1.3-1.5-2-3.6-2-6.2
				c0-2.5,0.7-4.5,2.2-6.2c1.5-1.7,3.3-2.5,5.6-2.5C362.2,33.8,363.7,34.2,364.9,35"/>
			<path class="st0" d="M364.9,35l-1.2,2.4c-0.7-0.7-1.8-1-3.2-1c-1.4,0-2.6,0.6-3.5,1.8c-0.9,1.1-1.4,2.6-1.4,4.4s0.4,3.2,1.3,4.2
				c0.8,1,2,1.6,3.4,1.6c1.6,0,2.9-0.6,3.7-1.7l1.4,2.4c-1.2,1.3-3,1.9-5.4,1.9c-2.4,0-4.2-0.8-5.5-2.3c-1.3-1.5-2-3.6-2-6.2
				c0-2.5,0.7-4.5,2.2-6.2c1.5-1.7,3.3-2.5,5.6-2.5C362.2,33.8,363.7,34.2,364.9,35z"/>
			<rect x="366.7" y="34.1" class="st0" width="3" height="16.6"/>
			<rect x="366.7" y="34.1" class="st0" width="3" height="16.6"/>
			<path class="st0" d="M371.4,42.3c0-2.4,0.7-4.4,2-6c1.3-1.6,3.1-2.5,5.3-2.5c2.4,0,4.3,0.7,5.6,2.2c1.3,1.5,1.9,3.6,1.9,6.3
				c0,2.7-0.7,4.8-2,6.4c-1.3,1.6-3.3,2.4-5.7,2.4c-2.3,0-4-0.8-5.2-2.3C372,47.1,371.4,45,371.4,42.3 M374.5,42.3L374.5,42.3
				c0,1.9,0.4,3.5,1,4.5c0.7,1.1,1.6,1.6,2.9,1.6c1.5,0,2.7-0.5,3.5-1.6c0.8-1,1.2-2.6,1.2-4.6c0-3.9-1.5-5.9-4.4-5.9
				c-1.3,0-2.4,0.5-3.1,1.6C374.9,39,374.5,40.5,374.5,42.3z"/>
			<path class="st0" d="M371.4,42.3c0-2.4,0.7-4.4,2-6c1.3-1.6,3.1-2.5,5.3-2.5c2.4,0,4.3,0.7,5.6,2.2c1.3,1.5,1.9,3.6,1.9,6.3
				c0,2.7-0.7,4.8-2,6.4c-1.3,1.6-3.3,2.4-5.7,2.4c-2.3,0-4-0.8-5.2-2.3C372,47.1,371.4,45,371.4,42.3z M374.5,42.3L374.5,42.3
				c0,1.9,0.4,3.5,1,4.5c0.7,1.1,1.6,1.6,2.9,1.6c1.5,0,2.7-0.5,3.5-1.6c0.8-1,1.2-2.6,1.2-4.6c0-3.9-1.5-5.9-4.4-5.9
				c-1.3,0-2.4,0.5-3.1,1.6C374.9,39,374.5,40.5,374.5,42.3z"/>
			<polyline class="st0" points="398.9,50.9 390.7,40.4 390.7,50.7 387.8,50.7 387.8,34.1 389.2,34.1 397.2,44.1 397.2,34.1 
				400.1,34.1 400.1,50.9 398.9,50.9 			"/>
			<polygon class="st0" points="398.9,50.9 390.7,40.4 390.7,50.7 387.8,50.7 387.8,34.1 389.2,34.1 397.2,44.1 397.2,34.1 
				400.1,34.1 400.1,50.9 			"/>
			<polyline class="st0" points="383.2,30.2 380.4,33 377.5,33 379.5,30.2 383.2,30.2 			"/>
			<polygon class="st0" points="383.2,30.2 380.4,33 377.5,33 379.5,30.2 			"/>
		</g>
	</g>
	<g>
		<g>
			<path class="st0" d="M435.6,18.5l-2.8-6.1c-0.1-0.2-0.2-0.5-0.2-0.5s-0.1,0.3-0.2,0.5l-2.8,6.1L425,7.8h2.5l2.1,4.9
				c0.1,0.2,0.2,0.5,0.2,0.5s0.1-0.3,0.2-0.5l2.6-5.1l2.6,5.1c0.1,0.2,0.2,0.5,0.2,0.5s0.1-0.3,0.2-0.6l2.1-4.8h2.5L435.6,18.5z"/>
			<path class="st0" d="M451.4,18.5l-2.8-6.1c-0.1-0.2-0.2-0.5-0.2-0.5s-0.1,0.3-0.2,0.5l-2.8,6.1l-4.6-10.7h2.5l2.1,4.9
				c0.1,0.2,0.2,0.5,0.2,0.5s0.1-0.3,0.2-0.5l2.6-5.1l2.6,5.1c0.1,0.2,0.2,0.5,0.2,0.5s0.1-0.3,0.2-0.6l2.1-4.8h2.5L451.4,18.5z"/>
			<path class="st0" d="M467.2,18.5l-2.8-6.1c-0.1-0.2-0.2-0.5-0.2-0.5s-0.1,0.3-0.2,0.5l-2.8,6.1l-4.6-10.7h2.5l2.1,4.9
				c0.1,0.2,0.2,0.5,0.2,0.5s0.1-0.3,0.2-0.5l2.6-5.1l2.6,5.1c0.1,0.2,0.2,0.5,0.2,0.5s0.1-0.3,0.2-0.6l2.1-4.8h2.5L467.2,18.5z"/>
			<path class="st0" d="M473.3,18.2v-2.7h2.6v2.7H473.3z"/>
			<path class="st0" d="M481.6,18.5c-1.4,0-2.7-0.5-3.7-1.3l1.2-1.8c0.9,0.7,1.9,1,2.4,1c0.7,0,1.3-0.3,1.3-0.9
				c0-0.7-0.6-1.1-1.6-1.6c-1.3-0.6-3.1-1.3-3.1-3.4c0-1.6,1.5-2.9,3.4-2.9c1,0,2.2,0.2,3.4,0.9l-1,1.9c-0.8-0.5-1.7-0.7-2.3-0.7
				c-0.5,0-1.2,0.1-1.2,0.8c0,0.6,0.7,0.9,1.7,1.3c1.3,0.7,3,1.5,3,3.6C485.2,17.1,483.7,18.5,481.6,18.5z"/>
			<path class="st0" d="M490.7,18.5c-1.4,0-2.7-0.5-3.7-1.3l1.2-1.8c0.9,0.7,1.9,1,2.4,1c0.7,0,1.4-0.3,1.4-0.9
				c0-0.7-0.6-1.1-1.5-1.6c-1.3-0.6-3.1-1.3-3.1-3.4c0-1.6,1.5-2.9,3.4-2.9c1,0,2.3,0.2,3.4,0.9l-1,1.9c-0.8-0.5-1.7-0.7-2.3-0.7
				c-0.6,0-1.2,0.1-1.2,0.8c0,0.6,0.7,0.9,1.7,1.3c1.3,0.7,3,1.5,3,3.6C494.3,17.1,492.8,18.5,490.7,18.5z"/>
			<path class="st0" d="M503.4,18.2v-6.3c0-1.3-0.6-2.2-2-2.2c-1.8,0-2.4,1.6-2.4,2.9v5.6h-2.4V7.8h2.4v1.3c0.6-1,1.7-1.6,2.9-1.6
				c2.2,0,3.8,1.3,3.8,3.9v6.8H503.4z"/>
			<path class="st0" d="M508.2,18.2v-2.7h2.6v2.7H508.2z"/>
			<path class="st0" d="M517.6,22.9c-1.5,0-3-0.3-4.1-1.2l1.2-1.8c1.2,0.8,2,0.9,2.8,0.9c1.5,0,2.9-0.7,2.9-2.1v-1.6
				c-0.7,1-1.7,1.4-2.9,1.4c-2.7,0-4.6-2.3-4.6-5.3c0-3,1.9-5.6,4.6-5.6c1.4,0,2.4,0.7,2.9,1.5V7.8h2.4v10.3
				C522.7,21.8,520.4,22.9,517.6,22.9z M517.9,9.7c-1.7,0-2.7,1.6-2.7,3.3c0,1.7,1,3.3,2.6,3.3c1.6,0,2.7-1.6,2.7-3.3
				C520.5,11.4,519.5,9.7,517.9,9.7z"/>
			<path class="st0" d="M530.4,18.5c-3.1,0-5.3-2.2-5.3-5.6c0-2.8,2-5.4,5.2-5.4c3.2,0,5.4,2.5,5.4,5.3
				C535.7,16,533.6,18.5,530.4,18.5z M530.3,9.7c-1.8,0-2.8,1.4-2.8,3.2c0,2.1,1,3.4,2.8,3.4c2.1,0,3-1.4,3-3.3
				C533.3,11,532.2,9.7,530.3,9.7z"/>
			<path class="st0" d="M543.4,18.5c-1.4,0-2.4-0.8-2.9-1.5v1.2h-2.4V0h2.4v9.1c0.7-0.9,1.7-1.6,2.9-1.6c2.7,0,4.6,2.3,4.6,5.3
				C548,15.9,546.1,18.5,543.4,18.5z M542.9,9.7c-1.6,0-2.6,1.6-2.6,3.2c0,1.7,1.1,3.3,2.6,3.3c1.8,0,2.7-1.5,2.7-3.3
				C545.6,11.2,544.7,9.7,542.9,9.7z"/>
			<path class="st0" d="M550,18.2v-2.7h2.6v2.7H550z"/>
			<path class="st0" d="M561.7,18.2v-0.7c-1,0.7-2,1-3.2,1c-2.6,0-3.9-1.6-3.9-3.5c0-2.5,2.4-3.8,5.6-3.8h1.5c0-1.3-0.5-1.7-2.1-1.7
				c-1.3,0-2.3,0.2-3.2,0.6l-0.8-1.8c1-0.6,2.6-0.8,3.7-0.8c2.9,0,4.7,0.9,4.7,3.1v7.6H561.7z M561.7,13.2H561c-2.7,0-4,0.6-4,1.9
				c0,1,1.1,1.4,2.1,1.4c1,0,1.6-0.2,2.6-0.8V13.2z"/>
			<path class="st0" d="M572.9,10.3c-0.5-0.4-1-0.5-1.5-0.5c-1.3,0-2.3,1.2-2.3,3.2v5.3h-2.4V7.8h2.4v1.3c0.7-1,1.7-1.6,2.8-1.6
				c0.8,0,1.4,0.2,2,0.8L572.9,10.3z"/>
		</g>
		<path class="st0" d="M430.5,52.2c-3,0-5.6-2.6-5.6-8c0-4.6,1.9-8.1,5.7-8.1c3.9,0,5.6,3.6,5.6,7.9
			C436.2,48.7,434.3,52.2,430.5,52.2z M430.6,38.2c-2.5,0-3.4,3.1-3.4,6c0,2.9,1.1,6,3.3,6c2.6,0,3.4-3.2,3.4-6
			C434,41.5,433.2,38.2,430.6,38.2z"/>
		<path class="st0" d="M443.7,52.2c-3.4,0-5.5-1.7-5.5-4.7c0-2.2,1.3-3.4,2.4-3.8c-0.9-0.6-1.9-1.3-1.9-3.2c0-2.9,2.3-4.4,5-4.4
			c3,0,5,1.8,5,4.4c0,1.6-0.9,2.6-1.9,3.2c1.1,0.4,2.4,1.7,2.4,3.8C449.2,50.5,447.1,52.2,443.7,52.2z M443.7,44.9
			c-2.1,0-3.4,0.9-3.4,2.6c0,1.7,1.6,2.7,3.4,2.7c1.8,0,3.3-0.9,3.3-2.7C447,45.9,445.7,44.9,443.7,44.9z M443.7,38
			c-1.5,0-2.9,1-2.9,2.5c0,1.6,1.5,2.4,2.9,2.4c1.6,0,2.8-0.9,2.8-2.4C446.5,39.1,445.4,38,443.7,38z"/>
		<path class="st0" d="M456.6,52.2c-3,0-5.6-2.6-5.6-8c0-4.6,1.9-8.1,5.7-8.1c3.9,0,5.6,3.6,5.6,7.9
			C462.3,48.7,460.4,52.2,456.6,52.2z M456.7,38.2c-2.5,0-3.4,3.1-3.4,6c0,2.9,1.1,6,3.3,6c2.6,0,3.4-3.2,3.4-6
			C460,41.5,459.3,38.2,456.7,38.2z"/>
		<path class="st0" d="M469.6,52.2c-3,0-5.6-2.6-5.6-8c0-4.6,1.9-8.1,5.7-8.1c3.9,0,5.6,3.6,5.6,7.9
			C475.3,48.7,473.4,52.2,469.6,52.2z M469.6,38.2c-2.5,0-3.4,3.1-3.4,6c0,2.9,1.1,6,3.3,6c2.6,0,3.4-3.2,3.4-6
			C473,41.5,472.2,38.2,469.6,38.2z"/>
		<path class="st0" d="M477.1,48.4v-1.8h4.5v1.8H477.1z"/>
		<path class="st0" d="M488.5,52.2c-2.8,0-5-2-5-5.3c0-3,1.2-5.3,2.2-6.9l2.2-3.6h2.4l-1.8,2.9c-0.3,0.4-1.8,2.8-2.2,3.7
			c0.7-0.7,1.6-1.1,2.5-1.1c3.1,0,4.9,2.4,4.9,5.2C493.6,49.9,491.6,52.2,488.5,52.2z M488.6,43.8c-1.8,0-3,1.5-3,3.2
			c0,2.1,1.4,3.4,3,3.4c1.7,0,2.9-1.5,2.9-3.3C491.5,45.1,490.2,43.8,488.6,43.8z"/>
		<path class="st0" d="M500.2,52.2c-2.8,0-5-2-5-5.3c0-3,1.2-5.3,2.2-6.9l2.2-3.6h2.3l-1.8,2.9c-0.3,0.4-1.8,2.8-2.2,3.7
			c0.7-0.7,1.6-1.1,2.5-1.1c3.1,0,4.9,2.4,4.9,5.2C505.3,49.9,503.3,52.2,500.2,52.2z M500.3,43.8c-1.8,0-3,1.5-3,3.2
			c0,2.1,1.4,3.4,3,3.4c1.7,0,2.9-1.5,2.9-3.3C503.2,45.1,501.9,43.8,500.3,43.8z"/>
		<path class="st0" d="M512,52.2c-2.8,0-5-2-5-5.3c0-3,1.2-5.3,2.2-6.9l2.1-3.6h2.4l-1.8,2.9c-0.3,0.4-1.8,2.8-2.2,3.7
			c0.7-0.7,1.6-1.1,2.5-1.1c3.1,0,4.9,2.4,4.9,5.2C517,49.9,515,52.2,512,52.2z M512,43.8c-1.8,0-3,1.5-3,3.2c0,2.1,1.4,3.4,3,3.4
			c1.7,0,2.9-1.5,2.9-3.3C514.9,45.1,513.6,43.8,512,43.8z"/>
		<path class="st0" d="M518.7,48.4v-1.8h4.5v1.8H518.7z"/>
		<path class="st0" d="M530.8,52.2c-3.4,0-5.5-1.7-5.5-4.7c0-2.2,1.3-3.4,2.4-3.8c-0.9-0.6-1.9-1.3-1.9-3.2c0-2.9,2.3-4.4,5.1-4.4
			c3,0,5,1.8,5,4.4c0,1.6-0.9,2.6-1.9,3.2c1.1,0.4,2.4,1.7,2.4,3.8C536.3,50.5,534.2,52.2,530.8,52.2z M530.8,44.9
			c-2.1,0-3.4,0.9-3.4,2.6c0,1.7,1.6,2.7,3.4,2.7c1.8,0,3.3-0.9,3.3-2.7C534.1,45.9,532.7,44.9,530.8,44.9z M530.8,38
			c-1.5,0-2.9,1-2.9,2.5c0,1.6,1.4,2.4,2.9,2.4c1.6,0,2.8-0.9,2.8-2.4C533.6,39.1,532.5,38,530.8,38z"/>
		<path class="st0" d="M546.9,48.3V52h-2v-3.7h-7.1v-1.5l7.5-10.4h1.6v10h2.2v1.9H546.9z M544.9,40c0,0-0.2,0.3-0.3,0.5l-4.1,5.9
			h4.5V40z"/>
		<path class="st0" d="M555.9,52.2c-3.1,0-5.6-2.6-5.6-8c0-4.6,1.9-8.1,5.7-8.1c3.9,0,5.6,3.6,5.6,7.9
			C561.6,48.7,559.7,52.2,555.9,52.2z M556,38.2c-2.5,0-3.4,3.1-3.4,6c0,2.9,1.1,6,3.3,6c2.6,0,3.4-3.2,3.4-6
			C559.3,41.5,558.6,38.2,556,38.2z"/>
		<path class="st0" d="M568.8,52.2c-3.1,0-5.6-2.6-5.6-8c0-4.6,1.9-8.1,5.7-8.1c3.9,0,5.6,3.6,5.6,7.9
			C574.5,48.7,572.6,52.2,568.8,52.2z M568.9,38.2c-2.5,0-3.4,3.1-3.4,6c0,2.9,1.1,6,3.3,6c2.6,0,3.4-3.2,3.4-6
			C572.3,41.5,571.5,38.2,568.9,38.2z"/>
		<g>
			<path class="st0" d="M594.6,11.5h-3.4v7.2h-2.5V0.4h5.5c3.7,0,6,2.4,6,5.6C600.1,8.9,597.6,11.5,594.6,11.5z M593.8,2.8h-2.6v6.4
				h2.7c2.1,0,3.6-1.2,3.6-3.2C597.5,3.9,596.1,2.8,593.8,2.8z"/>
			<path class="st0" d="M604,13.7c0.1,1.7,1.2,3,3.1,3c1.6,0,2.5-0.5,3.5-1.3L612,17c-1.3,1.1-2.7,1.9-4.9,1.9c-3,0-5.4-2.1-5.4-5.6
				c0-3,2.2-5.4,5.3-5.4c3.1,0,5.2,2.4,5.2,5.8H604z M606.9,10.1c-1.4,0-2.5,0.7-2.7,1.9h5.5C609.3,10.8,608.2,10.1,606.9,10.1z"/>
			<path class="st0" d="M620.7,10.7c-0.5-0.4-1-0.5-1.5-0.5c-1.3,0-2.3,1.2-2.3,3.2v5.3h-2.4V8.2h2.4v1.3c0.7-1,1.7-1.6,2.8-1.6
				c0.8,0,1.4,0.2,2,0.8L620.7,10.7z"/>
			<path class="st0" d="M626.5,18.9c-1.4,0-2.7-0.5-3.7-1.3l1.2-1.8c0.9,0.7,1.9,1,2.5,1c0.7,0,1.4-0.3,1.4-0.9
				c0-0.7-0.7-1.1-1.6-1.6c-1.3-0.6-3.1-1.3-3.1-3.4c0-1.6,1.5-2.9,3.4-2.9c1,0,2.2,0.2,3.3,0.9l-1,1.9c-0.8-0.5-1.7-0.7-2.3-0.7
				c-0.5,0-1.2,0.1-1.2,0.8c0,0.6,0.7,0.9,1.7,1.3c1.4,0.7,3,1.5,3,3.6C630.1,17.5,628.6,18.9,626.5,18.9z"/>
			<path class="st0" d="M637.1,18.9c-3.1,0-5.3-2.2-5.3-5.6c0-2.8,2-5.4,5.2-5.4c3.2,0,5.4,2.5,5.4,5.3
				C642.5,16.4,640.3,18.9,637.1,18.9z M637.1,10.1c-1.8,0-2.8,1.4-2.8,3.2c0,2.1,1.1,3.4,2.8,3.4c2.1,0,3-1.4,3-3.3
				C640,11.4,638.9,10.1,637.1,10.1z"/>
			<path class="st0" d="M651.6,18.6v-6.3c0-1.3-0.6-2.2-2-2.2c-1.8,0-2.4,1.6-2.4,2.9v5.6h-2.4V8.2h2.4v1.3c0.7-1,1.7-1.6,2.9-1.6
				c2.2,0,3.8,1.3,3.8,3.9v6.8H651.6z"/>
			<path class="st0" d="M663.1,18.6v-0.7c-1,0.7-2,1-3.2,1c-2.6,0-3.9-1.6-3.9-3.5c0-2.5,2.5-3.8,5.6-3.8h1.5c0-1.3-0.5-1.7-2.1-1.7
				c-1.3,0-2.3,0.2-3.2,0.6l-0.8-1.8c1-0.6,2.6-0.8,3.7-0.8c2.9,0,4.7,0.9,4.7,3.1v7.6H663.1z M663.1,13.6h-0.7c-2.7,0-4,0.6-4,1.9
				c0,1,1.1,1.4,2.1,1.4c1,0,1.6-0.2,2.6-0.8V13.6z"/>
			<path class="st0" d="M673.1,18.9c-0.6,0-1.1,0-1.9-0.2v-2.2c0.5,0.1,1.2,0.1,1.7,0.1c1.6,0,2.4-0.9,2.4-2.5V0.4h2.5v13.8
				C677.9,16.6,676.4,18.9,673.1,18.9z"/>
			<path class="st0" d="M687.8,18.6v-1.2c-0.6,0.9-1.6,1.5-2.9,1.5c-2.5,0-3.8-1.3-3.8-3.9V8.2h2.4v6.3c0,1.2,0.7,2.2,2,2.2
				c1.7,0,2.4-1.6,2.4-2.9V8.2h2.4v10.4H687.8z"/>
			<path class="st0" d="M699.3,10.7c-0.6-0.4-1.1-0.5-1.5-0.5c-1.3,0-2.3,1.2-2.3,3.2v5.3h-2.4V8.2h2.4v1.3c0.8-1,1.7-1.6,2.8-1.6
				c0.8,0,1.4,0.2,2,0.8L699.3,10.7z"/>
			<path class="st0" d="M704.3,6.3h-2.4l2.3-3.7h2.4L704.3,6.3z M702,18.6V8.2h2.4v10.4H702z"/>
			<path class="st0" d="M714.2,18.6v-1.2c-0.5,0.8-1.5,1.5-2.9,1.5c-2.7,0-4.6-2.5-4.6-5.6c0-3.1,1.9-5.4,4.6-5.4
				c1.2,0,2.2,0.4,2.9,1.4V0.4h2.4v18.2H714.2z M711.8,10.1c-1.7,0-2.6,1.6-2.6,3.3c0,1.7,0.9,3.3,2.6,3.3c1.7,0,2.7-1.6,2.7-3.3
				C714.4,11.8,713.4,10.1,711.8,10.1z"/>
			<path class="st0" d="M719.6,5.9V3h2.4v2.9H719.6z M719.6,18.6V8.2h2.4v10.4H719.6z"/>
			<path class="st0" d="M729.8,18.9c-3.6,0-5.4-2.4-5.4-5.5c0-2.9,2.1-5.5,5.2-5.5c2.4,0,3.9,1.4,4.6,2.4l-1.7,1.3
				c-0.6-0.7-1.4-1.5-2.9-1.5c-1.8,0-2.8,1.7-2.8,3.2c0,2.2,1.2,3.4,3,3.4c1.2,0,2.2-0.7,3-1.6l1.6,1.3
				C733.5,17.8,731.7,18.9,729.8,18.9z"/>
			<path class="st0" d="M742.9,18.6v-0.7c-1,0.7-2,1-3.3,1c-2.6,0-3.9-1.6-3.9-3.5c0-2.5,2.5-3.8,5.6-3.8h1.6c0-1.3-0.5-1.7-2.1-1.7
				c-1.3,0-2.3,0.2-3.2,0.6l-0.8-1.8c1-0.6,2.6-0.8,3.7-0.8c2.9,0,4.7,0.9,4.7,3.1v7.6H742.9z M742.9,13.6h-0.7c-2.7,0-4,0.6-4,1.9
				c0,1,1.1,1.4,2.1,1.4c1,0,1.7-0.2,2.6-0.8V13.6z"/>
		</g>
		<g>
			<path class="st0" d="M601,52.1l-9.6-13.2c-0.1-0.1-0.3-0.5-0.3-0.5s0.1,0.4,0.1,0.6v13.1h-2.5V33.9h2.1l9.4,13
				c0.1,0.2,0.3,0.5,0.3,0.5s0-0.4,0-0.6V33.9h2.5v18.2H601z"/>
			<path class="st0" d="M610.8,42.4c-2.5,0-4.2-1.8-4.2-4.5c0-2.2,1.6-4.3,4.2-4.3c2.6,0,4.3,2,4.3,4.2
				C615.1,40.3,613.3,42.4,610.8,42.4z M606.6,45.4v-1.6h8.5v1.6H606.6z M610.8,35.3c-1.4,0-2.3,1.2-2.3,2.6c0,1.7,0.8,2.7,2.2,2.7
				c1.7,0,2.4-1.2,2.4-2.7C613.1,36.3,612.2,35.3,610.8,35.3z"/>
			<path class="st0" d="M628.9,52.1v-1.2c-0.5,0.8-1.5,1.5-2.9,1.5c-2.7,0-4.6-2.5-4.6-5.6c0-3.1,1.9-5.4,4.6-5.4
				c1.2,0,2.2,0.4,2.9,1.4v-8.9h2.4v18.2H628.9z M626.5,43.6c-1.7,0-2.7,1.6-2.7,3.3c0,1.7,1,3.3,2.6,3.3c1.7,0,2.7-1.6,2.7-3.3
				C629.1,45.2,628.1,43.6,626.5,43.6z"/>
			<path class="st0" d="M636.1,47.2c0.1,1.7,1.3,3,3.1,3c1.6,0,2.5-0.5,3.5-1.3l1.4,1.5c-1.3,1.1-2.7,1.9-4.9,1.9
				c-3,0-5.4-2.1-5.4-5.6c0-3,2.2-5.4,5.3-5.4c3.1,0,5.2,2.4,5.2,5.8H636.1z M638.9,43.5c-1.3,0-2.5,0.7-2.8,1.9h5.5
				C641.3,44.2,640.2,43.5,638.9,43.5z"/>
			<path class="st0" d="M666,52.1V38.7c0-0.3,0.1-0.7,0.1-0.7s-0.1,0.3-0.2,0.4l-5.7,7.7h-1l-5.8-7.5c-0.1-0.1-0.2-0.4-0.2-0.4
				s0.1,0.3,0.1,0.7v13.2h-2.5V33.9h2.1l6.9,8.9l6.7-8.9h2.2v18.2H666z"/>
			<path class="st0" d="M678.3,52.1v-0.7c-1,0.7-2,1-3.2,1c-2.6,0-3.9-1.6-3.9-3.5c0-2.5,2.4-3.8,5.6-3.8h1.5c0-1.3-0.5-1.7-2.1-1.7
				c-1.3,0-2.3,0.2-3.2,0.6l-0.8-1.8c1-0.6,2.6-0.8,3.7-0.8c2.9,0,4.7,0.9,4.7,3.1v7.6H678.3z M678.3,47h-0.7c-2.7,0-4,0.6-4,1.9
				c0,1,1.1,1.4,2.1,1.4c1.1,0,1.6-0.2,2.6-0.8V47z"/>
			<path class="st0" d="M687.8,52.3c-2.4,0-3.9-0.5-3.9-3.5v-4.8h-1.4v-2.2h1.4v-4.9h2.4v4.9h1.9v2.2h-1.9v4.7
				c0,1.1,0.4,1.3,1.5,1.3c0.1,0,0.4,0,0.4,0v2.3C688.2,52.2,687.9,52.3,687.8,52.3z"/>
			<path class="st0" d="M696.8,44.2c-0.5-0.4-1.1-0.5-1.5-0.5c-1.3,0-2.3,1.2-2.3,3.2v5.3h-2.4V41.7h2.4V43c0.7-1,1.7-1.6,2.8-1.6
				c0.8,0,1.4,0.2,2,0.8L696.8,44.2z"/>
			<path class="st0" d="M701.9,39.8h-2.4l2.3-3.7h2.4L701.9,39.8z M699.5,52.1V41.7h2.4v10.4H699.5z"/>
			<path class="st0" d="M709.7,52.4c-3.6,0-5.4-2.4-5.4-5.5c0-2.9,2.1-5.5,5.2-5.5c2.4,0,3.9,1.4,4.6,2.4l-1.7,1.3
				c-0.5-0.7-1.4-1.5-2.9-1.5c-1.8,0-2.8,1.7-2.8,3.2c0,2.2,1.2,3.4,3,3.4c1.2,0,2.2-0.7,3-1.6l1.6,1.3
				C713.4,51.2,711.6,52.4,709.7,52.4z"/>
			<path class="st0" d="M723,52.1v-1.2c-0.6,0.9-1.6,1.5-2.9,1.5c-2.5,0-3.8-1.3-3.8-3.9v-6.8h2.4V48c0,1.2,0.7,2.2,2,2.2
				c1.6,0,2.4-1.6,2.4-2.9v-5.6h2.4v10.4H723z"/>
			<path class="st0" d="M728.4,52.1V33.9h2.4v18.2H728.4z"/>
			<path class="st0" d="M740.1,52.1v-0.7c-1,0.7-2,1-3.2,1c-2.6,0-3.9-1.6-3.9-3.5c0-2.5,2.4-3.8,5.6-3.8h1.5c0-1.3-0.5-1.7-2.1-1.7
				c-1.3,0-2.3,0.2-3.2,0.6l-0.8-1.8c1-0.6,2.6-0.8,3.7-0.8c2.9,0,4.7,0.9,4.7,3.1v7.6H740.1z M740.1,47h-0.7c-2.7,0-4,0.6-4,1.9
				c0,1,1.1,1.4,2.1,1.4c1,0,1.6-0.2,2.6-0.8V47z"/>
			<path class="st0" d="M744.9,44.2v-2.7h2.6v2.7H744.9z M744.9,52.1v-2.7h2.6v2.7H744.9z"/>
			<path class="st0" d="M757.1,52.1h-2.8l7.3-15.9h-7.8v-2.3h11.4L757.1,52.1z"/>
		</g>
		<path class="st0" d="M776.1,47.1l-3.2,5.1l-2.1-1.4l4.3-6.4c-0.8,0.7-1.9,1.1-2.9,1.1c-3.2,0-5.8-2.4-5.8-6c0-3.5,2.6-6.2,6-6.2
			c3.7,0,6.3,2.5,6.3,6.2C778.6,42.6,777.1,45.5,776.1,47.1z M772.4,35.4c-2.1,0-3.5,1.9-3.5,4c0,2.3,1.6,3.8,3.5,3.8
			c2.1,0,3.6-1.6,3.6-3.8C776,37,774.5,35.4,772.4,35.4z"/>
		<path class="st0" d="M787.4,52c-4,0-6.5-2-6.5-5.5c0-2.6,1.5-3.9,2.8-4.5c-1.1-0.7-2.2-1.6-2.2-3.7c0-3.4,2.7-5.2,5.9-5.2
			c3.5,0,5.9,2.1,5.9,5.2c0,1.9-1.1,3-2.2,3.7c1.3,0.5,2.8,2,2.8,4.5C793.9,49.9,791.4,52,787.4,52z M787.4,43.4c-2.4,0-3.9,1-3.9,3
			c0,2,1.9,3.2,3.9,3.2c2.1,0,3.9-1,3.9-3.2C791.3,44.5,789.7,43.4,787.4,43.4z M787.4,35.3c-1.7,0-3.4,1.1-3.4,3
			c0,1.9,1.7,2.9,3.4,2.9c1.9,0,3.3-1.1,3.3-2.9C790.7,36.6,789.4,35.3,787.4,35.3z"/>
	</g>
</g>
</svg>
