<?xml version="1.0" encoding="UTF-8" standalone="no"?>
<!-- Generator: Adobe Illustrator 19.1.0, SVG Export Plug-In . SVG Version: 6.00 Build 0)  -->
<svg id="Layer_1" style="enable-background:new 0 0 117.1 30.2" xmlns="http://www.w3.org/2000/svg" xml:space="preserve" viewBox="0 0 117.1 30.2" version="1.1" y="0px" x="0px" xmlns:xlink="http://www.w3.org/1999/xlink">
<style type="text/css">
	.st0{fill-rule:evenodd;clip-rule:evenodd;fill:#20407D;}
</style>
	<path class="st0" d="m4.3 23.8l1.4-4.6h5.5l1.3 4.6h4.7l-5-17.2c-0.3-1.2-0.9-1.5-2-1.5h-6.8v1.6h0.5c1 0 1.3 0.2 1.3 0.9 0 0.3 0 0.6-0.3 1.6l-4.9 14.6h4.3zm6.2-7.5h-4.2l2.2-7.4 2 7.4z"/>
	<path class="st0" d="m22.8 23.8v-17.3c0-0.8-0.4-1.4-1.4-1.4h-4.1v1.6h0.2c0.9 0 1.2 0.3 1.2 1.1v16.1h4.1v-0.1z"/>
	<path class="st0" d="m30.3 23.8v-17.3c0-0.8-0.5-1.4-1.4-1.4h-4.1v1.6h0.2c0.7 0 1.2 0.3 1.2 1.1v16.1h4.1v-0.1z"/>
	<path class="st0" d="m37.9 23.8v-12.6c0-0.9-0.5-1.4-1.3-1.4h-4.3v1.5h0.2c0.9 0 1.2 0.4 1.2 1.2v11.4h4.2v-0.1zm0.1-17c0-1.3-0.8-2-2.4-2-1.5 0-2.4 0.7-2.4 2s1 1.9 2.4 1.9c1.5 0 2.4-0.6 2.4-1.9z"/>
	<path class="st0" d="m41.9 13.6l0.4-0.1c1.1-0.4 1.7-0.6 2.4-0.7 0.4-0.1 1-0.1 1.3-0.1 1.3 0 1.8 0.4 1.8 1.7v0.3c-2 0.3-2.6 0.4-3.5 0.6-0.6 0.1-1.2 0.3-1.7 0.5-1.7 0.7-2.4 2-2.4 4.2 0 2.7 1.1 3.9 3.4 3.9 1 0 1.9-0.2 2.7-0.6 0.5-0.3 0.9-0.5 1.7-1.3v0.4c0 1 0.4 1.4 1.2 1.4h3.9v-1.5h-0.1c-0.7 0-1.2-0.3-1.2-1.1v-6.9c0-3.5-1.2-4.8-4.7-4.8-1.2 0-2.2 0.2-3.3 0.4s-1.6 0.4-2.9 1.1l1 2.6zm6 3.4v2.8c-0.9 0.9-1.7 1.3-2.6 1.3-1 0-1.3-0.4-1.3-1.5s0.3-1.6 1.2-1.9c0.7-0.4 1.4-0.5 2.7-0.7z"/>
	<path class="st0" d="m59.5 23.8v-9.6c1-0.9 1.6-1.2 2.6-1.2s1.3 0.4 1.3 1.8v8.9h4v-9.6c0-2-0.2-2.8-0.7-3.5-0.6-0.7-1.5-1.1-2.7-1.1-1.6 0-2.9 0.5-4.7 2.1v-0.7c0-0.9-0.3-1.3-1.2-1.3h-4.1v1.5h0.2c0.9 0 1.2 0.4 1.2 1.2v11.4h4.1v0.1z"/>
	<path class="st0" d="m80.3 21.1h-6.3l6.1-8.4v-2.9h-8.9c-1.1 0-1.5 0.4-1.5 1.5v2.6h1.5v-0.3c0-0.7 0.3-1.1 1.2-1.1h3.3l-6.1 8.4v3h10.7v-2.8z"/>
	<path class="st0" d="m117.1 15.1c0-8.7-6.5-15.1-15.2-15.1-8.6 0-15 6.4-15 15.1 0 8.6 6.4 15.1 15.1 15.1 8.6 0 15.1-6.5 15.1-15.1zm-2.6 0c0 7.3-5.3 12.8-12.7 12.8-7.2 0-12.4-5.4-12.4-12.8s5.2-12.8 12.4-12.8c7.4 0 12.7 5.4 12.7 12.8zm-16.7 7.9v-13.6h-2.2c-1.2 0-1.7 0.5-1.7 1.7v11.9h3.9zm8.2 0h3.9v-11.9c0-1.2-0.4-1.7-1.7-1.7h-2.2v13.6zm-2.1 0v-15.8c0-1.3-0.4-1.7-1.7-1.7h-3.6v1.7h0.3c0.9 0 1.1 0.2 1.1 1.1v14.7h3.9z"/>
</svg>
