<?xml version="1.0" encoding="utf-8"?>
<!-- Generator: Adobe Illustrator 20.1.0, SVG Export Plug-In . SVG Version: 6.00 Build 0)  -->
<svg version="1.1" id="Layer_1" xmlns="http://www.w3.org/2000/svg" xmlns:xlink="http://www.w3.org/1999/xlink" x="0px" y="0px"
	 viewBox="0 0 728.2 73.6" style="enable-background:new 0 0 728.2 73.6;" xml:space="preserve">
<style type="text/css">
	.st0{fill:#001B70;}
</style>
<g>
	<g>
		<g id="XMLID_10_">
			<path id="XMLID_11_" class="st0" d="M679.6,61.1h-77.3V42.7h77.3V61.1z M602.3,12.6h77.3v17.9h-77.3V12.6z M673.8,73.6
				c13.7,0,20-5.7,20-15.5v-8.6c0-2.7-0.9-4-2.9-5.7l-8.8-7.6l8.8-7.6c2-1.7,2.9-2.9,2.9-5.7v-7.6c0-9.8-6.3-15.5-20-15.5h-85.4
				v73.6H673.8z M530.3,61.1H453V42.7h77.3V61.1z M453,12.6h77.3v17.9H453V12.6z M524.5,73.6c13.7,0,20-5.7,20-15.5v-8.6
				c0-2.7-0.9-4-2.9-5.7l-8.8-7.6l8.8-7.6c2-1.7,2.9-2.9,2.9-5.7v-7.6c0-9.8-6.3-15.5-20-15.5h-85.4v73.6H524.5z M377.4,0.1v60.4
				h-73.1V0.1h-13.9v56.8c0,10.4,6.3,16.8,18.8,16.8h63.2c12.5,0,18.8-6.4,18.8-16.8V0.1H377.4z M154.6,30.1V0.1h-13.9v73.6h13.9
				V43.1h74.1v30.6h13.9V0.1h-13.9v30.1H154.6z M100.3,13.2V0.1H18.8C6.3,0.1,0,6.5,0,16.9v39.9c0,10.4,6.3,16.8,18.8,16.8h81.5
				V60.5H14.2V13.2H100.3z"/>
		</g>
	</g>
	<g>
		<path class="st0" d="M722.1,0.8c1.2,0.5,2.3,1.2,3.2,2.1s1.6,2,2.1,3.2c0.5,1.2,0.8,2.5,0.8,3.9c0,1.4-0.3,2.7-0.8,4
			c-0.5,1.2-1.2,2.3-2.1,3.2c-0.9,0.9-2,1.6-3.2,2.1c-1.2,0.5-2.5,0.8-4,0.8s-2.7-0.3-4-0.8s-2.3-1.2-3.2-2.1
			c-0.9-0.9-1.6-2-2.1-3.2c-0.5-1.2-0.8-2.5-0.8-4c0-1.4,0.3-2.7,0.8-3.9c0.5-1.2,1.2-2.3,2.1-3.2c0.9-0.9,2-1.6,3.2-2.1
			s2.5-0.8,4-0.8S720.9,0.3,722.1,0.8z M714.8,2.1c-1,0.4-1.9,1.1-2.7,1.8c-0.8,0.8-1.3,1.7-1.8,2.7c-0.4,1-0.6,2.2-0.6,3.4
			c0,1.2,0.2,2.3,0.6,3.4c0.4,1,1,2,1.8,2.7c0.8,0.8,1.6,1.4,2.7,1.8s2.2,0.7,3.4,0.7c1.2,0,2.3-0.2,3.4-0.7c1-0.4,1.9-1.1,2.7-1.8
			c0.8-0.8,1.3-1.7,1.8-2.7c0.4-1,0.6-2.2,0.6-3.4c0-1.2-0.2-2.3-0.6-3.4c-0.4-1-1-2-1.8-2.7c-0.8-0.8-1.6-1.4-2.7-1.8
			c-1-0.4-2.2-0.7-3.4-0.7C717,1.4,715.8,1.7,714.8,2.1z M714.5,15.8V4.2h4.4c1.3,0,2.3,0.3,2.9,0.8s0.9,1.3,0.9,2.4
			c0,0.5-0.1,0.9-0.2,1.3c-0.2,0.4-0.4,0.7-0.6,1c-0.3,0.3-0.6,0.5-0.9,0.6s-0.7,0.3-1.1,0.3l3.5,5.2h-1.7l-3.3-5.2H716v5.2H714.5z
			 M719.1,9.4c0.4,0,0.8-0.1,1.1-0.2c0.3-0.1,0.6-0.3,0.8-0.6c0.2-0.3,0.3-0.7,0.3-1.1c0-0.4-0.1-0.7-0.2-1
			c-0.2-0.3-0.4-0.5-0.6-0.6c-0.3-0.2-0.6-0.3-0.9-0.3s-0.7-0.1-1-0.1H716v4h1.9C718.3,9.5,718.7,9.5,719.1,9.4z"/>
	</g>
</g>
</svg>
