<?xml version="1.0" encoding="utf-8"?>
<!-- Generator: Adobe Illustrator 21.0.2, SVG Export Plug-In . SVG Version: 6.00 Build 0)  -->
<svg version="1.1" id="Layer_1" xmlns="http://www.w3.org/2000/svg" xmlns:xlink="http://www.w3.org/1999/xlink" x="0px" y="0px"
	 viewBox="0 0 1280 224.6" style="enable-background:new 0 0 1280 224.6;" xml:space="preserve">
<style type="text/css">
	.st0{fill-rule:evenodd;clip-rule:evenodd;fill:#001F5B;}
</style>
<g>
	<g>
		<g>
			<path class="st0" d="M250.5,165.9v59.5h20.9V171l3.4-0.4v54.9h76.5l-1-65.8C335.5,159.7,296.3,160.4,250.5,165.9z"/>
			<path class="st0" d="M-0.5,220.6c0.2-0.1,0.5-0.2,0.7-0.3l-0.7-1.3V220.6z"/>
			<path class="st0" d="M400.9,133.8c-27.4-1.6-46.7-15.4-51.2-18.9l-1-69.7c6.7,10,25.4,33.6,66.4,59.9l1.8-2.9
				c-45.4-29.1-63.4-55.4-67.4-62l0.2-0.2l-69.7-24.1l0-4l72.1,25.2l5.2-6.3l-13.8-4.9l-3.2,1.9l-12.2-4.4l2.8-2.2l-14.5-5.5
				l-3.6,2.4l-27.5-9.7l3.3-3.2L275,0l-11.5,8.1l-4-2.3l-10.2,7.3l3.4,2.7L241.8,24l8,4.5c-9.7,16.4-72.3,119.1-135.7,144.3l0,0.1
				c-4.1,1.1-8.1,2.2-12,3.4c-1.5,0.2-3.1,0.3-4.8,0.4c-15.1-2.9-31.5-10.6-36.9-13.2v-1.9H29.9v-2.4h30.7l1.2-0.8l0-3.2H26.6
				l-2.7,1.8v3h1.3v2c-1.7,6.6-9.5,34.1-24.7,52.5l0.4,0.3c-0.9,0.5-1.4,0.8-1.4,0.8v1.5c5.5-2.9,38.4-19.7,100.3-36.9
				c62.5-17.3,168.3-38.6,317.2-41.8l0.1-5.1C411.7,133.4,406.3,133.6,400.9,133.8L400.9,133.8z M25.2,203.2L25.2,203.2
				c-7.9,3.4-14,6.3-18.2,8.5c8.9-12.5,14.8-27.3,18.2-37.6V203.2L25.2,203.2z M60.5,167.2L60.5,167.2c4.3,2.1,12.3,5.7,21.4,8.8
				c-9.7-1.1-18.4-2.9-21.4-3.6V167.2L60.5,167.2z M42.2,196.2L42.2,196.2c-2.6,1-5.1,2-7.5,3v-25.1c0-3.7,1.7-6.6,3.8-6.6
				c2.1,0,3.7,3,3.7,6.6V196.2L42.2,196.2z M54.3,191.7L54.3,191.7c-2.6,0.9-5.1,1.9-7.5,2.8v-20.3c0-3.7,1.7-6.6,3.7-6.6
				c2.1,0,3.7,3,3.7,6.6V191.7L54.3,191.7z M60.5,189.5L60.5,189.5v-13.6c4.7,1.1,16.8,3.6,28.9,4.2
				C78.8,183.2,69.1,186.4,60.5,189.5L60.5,189.5z M250.5,145.8L250.5,145.8c-25.8,3.5-49.5,7.5-71.2,11.8
				c36.7-21.2,62.3-57.2,71.2-71V145.8L250.5,145.8z M250.5,80.2L250.5,80.2c-4.1,6.9-35.4,57.5-83.1,79.8l0,0.1
				c-13.1,2.8-25.4,5.6-36.9,8.5c31.1-17.9,60.5-50.8,80.8-77.2c18.7-24.2,32.8-46.8,39.2-57.2V80.2L250.5,80.2z M275.2,142.4
				L275.2,142.4l-3.4,0.6V12.7l3.4-2V142.4L275.2,142.4z M310.7,139.1L310.7,139.1c-1.1,0.1-2.3,0.2-3.4,0.3v-68
				c0-10.2-4.7-20.2-10.2-21.6c-0.3-0.1-0.7-0.2-1-0.2c4.3,4.1,7.3,12.2,7.3,20.8v69.4c-5.7,0.5-11.4,1.1-16.9,1.7V63.2
				c0-6.6,1.8-12,4.5-14.9l0,0c0.4-0.4,0.7-0.7,1-0.9c0.1,0,0.1-0.1,0.2-0.1h0c2-1.4,3.8-1.2,5.9-0.7c7.1,1.9,12.7,12.9,12.7,24.9
				V139.1L310.7,139.1z M343.7,136.5L343.7,136.5c-1.1,0.1-2.3,0.2-3.4,0.2v-57c0-10.3-4.7-20.2-10.2-21.7c-0.4-0.1-0.9-0.1-1.3,0
				c4.6,3.9,7.9,12.4,7.9,21.4V137c-5.8,0.4-11.5,0.9-17.2,1.3V71.9c0-7.4,2.2-13.3,5.6-15.9l0,0c1.7-1.4,3.5-1.8,5.8-1.2
				c7.1,1.9,12.7,12.9,12.7,25V136.5L343.7,136.5z M350,136.1L350,136.1l-0.3-17c5.3,3.9,16.9,11.2,33,15.3
				C371.6,134.9,360.7,135.4,350,136.1z"/>
			<path class="st0" d="M2.3,219.5c6.3-2.4,12.7-4.8,19-7c4.5-2.2,41-13.4,42.6-13.9v0c62.9-18.6,125.2-29.3,179.5-35.3
				c48.8-6.2,91.2-7,106.9-7.1V156c41.1-1,66.4,0.6,66.4,0.6l0.3-14.8C268.6,145,163.2,166.2,101,183.5
				C42.6,199.6,10.2,215.4,2.3,219.5z"/>
			<path class="st0" d="M25.2,225.4h35.3v-22.1c-11.7,3.6-28.7,8.9-35.3,11.3V225.4z"/>
		</g>
	</g>
	<g>
		<g>
			<g>
				<path class="st0" d="M537.8,27.1l44.1,55.4V44.1c0-5.3-0.8-9-2.3-10.9c-2.1-2.6-5.7-3.8-10.6-3.7v-2.5h29.5v2.5
					c-3.8,0.5-6.3,1.1-7.6,1.9c-1.3,0.8-2.3,2-3,3.8c-0.7,1.7-1.1,4.7-1.1,8.9v74.4h-2.2l-60.4-74.4V101c0,5.1,1.2,8.6,3.5,10.4
					c2.4,1.8,5.1,2.7,8.1,2.7h2.1v2.5h-31.7v-2.5c4.9,0,8.4-1,10.3-3c1.9-2,2.9-5.3,2.9-10.1V37.9l-1.9-2.4c-1.9-2.4-3.6-3.9-5-4.7
					c-1.5-0.8-3.5-1.2-6.3-1.2v-2.5H537.8z"/>
				<path class="st0" d="M693.9,27.1v24.2h-2.4c-1.4-5.6-3-9.6-4.7-12c-1.7-2.4-4-4.4-7-5.8c-1.7-0.8-4.6-1.2-8.8-1.2h-6.6v68.9
					c0,4.6,0.2,7.4,0.7,8.6c0.5,1.1,1.5,2.1,3,3c1.5,0.8,3.5,1.3,6,1.3h3v2.5h-46.8v-2.5h3c2.6,0,4.7-0.5,6.3-1.4
					c1.1-0.6,2-1.7,2.7-3.2c0.5-1,0.7-3.8,0.7-8.3V32.3h-6.5c-6,0-10.4,1.3-13.1,3.8c-3.8,3.6-6.2,8.6-7.2,15.2h-2.5V27.1H693.9z"/>
				<path class="st0" d="M745.6,32.3v36.4h1.8c5.7,0,9.8-1.8,12.3-5.3c2.6-3.6,4.2-8.8,4.9-15.8h2.5v46.8h-2.5
					c-0.5-5.1-1.6-9.3-3.3-12.5c-1.7-3.2-3.7-5.4-5.9-6.6c-2.3-1.1-5.5-1.7-9.7-1.7v25.2c0,4.9,0.2,7.9,0.6,9c0.4,1.1,1.2,2,2.3,2.7
					c1.1,0.7,3,1.1,5.5,1.1h5.4c8.3,0,15-1.9,20.1-5.8c5-3.9,8.7-9.8,10.8-17.6h2.5l-4,28.4h-77.2v-2.5h3c2.6,0,4.7-0.5,6.3-1.4
					c1.1-0.6,2-1.7,2.6-3.2c0.5-1,0.7-3.8,0.7-8.3V42.4c0-4-0.1-6.5-0.4-7.5c-0.4-1.5-1.2-2.7-2.4-3.6c-1.7-1.2-4-1.8-6.9-1.8h-3
					v-2.5h74.8v26.4h-2.5c-1.3-6.4-3.1-11.1-5.4-13.9c-2.3-2.8-5.6-4.9-9.8-6.2c-2.5-0.8-7.1-1.2-13.8-1.2H745.6z"/>
				<path class="st0" d="M896.3,25.1v31.5h-2.4c-2.9-8.6-7.4-15.1-13.2-19.6c-5.9-4.5-12.3-6.7-19.3-6.7c-6.7,0-12.2,1.9-16.7,5.7
					c-4.4,3.7-7.6,9-9.4,15.7c-1.8,6.7-2.8,13.6-2.8,20.7c0,8.6,1,16.1,3,22.6c2,6.4,5.3,11.2,9.8,14.2c4.5,3,9.8,4.5,16,4.5
					c2.2,0,4.4-0.2,6.6-0.7c2.3-0.5,4.6-1.1,6.9-2V92.3c0-3.5-0.2-5.8-0.7-6.8c-0.5-1-1.5-1.9-3-2.8c-1.5-0.9-3.4-1.2-5.5-1.2h-2.3
					V79h43.4v2.4c-3.3,0.2-5.6,0.7-6.9,1.3c-1.3,0.7-2.3,1.8-3,3.4c-0.4,0.8-0.6,2.9-0.6,6.1v18.6c-5.7,2.6-11.6,4.5-17.8,5.8
					c-6.2,1.3-12.6,1.9-19.2,1.9c-8.5,0-15.5-1.2-21.1-3.5c-5.6-2.3-10.5-5.3-14.8-9.1c-4.3-3.7-7.6-8-10-12.7
					c-3.1-6.1-4.6-12.9-4.6-20.4c0-13.4,4.7-24.8,14.2-34.1c9.4-9.3,21.3-13.9,35.7-13.9c4.5,0,8.4,0.4,12,1.1
					c1.9,0.4,5.1,1.3,9.4,3c4.3,1.6,6.9,2.5,7.7,2.5c1.2,0,2.4-0.5,3.4-1.4c1.1-0.9,2-2.6,2.9-5.1H896.3z"/>
				<path class="st0" d="M954.1,75.8v25c0,4.8,0.3,7.9,0.9,9.1c0.6,1.2,1.6,2.3,3.1,3c1.5,0.8,4.3,1.1,8.4,1.1v2.5h-45.8v-2.5
					c4.1,0,6.9-0.4,8.4-1.1c1.5-0.8,2.5-1.8,3.1-3c0.6-1.2,0.9-4.3,0.9-9.1v-58c0-4.8-0.3-7.9-0.9-9.1c-0.6-1.3-1.6-2.3-3.1-3
					c-1.5-0.8-4.3-1.1-8.4-1.1v-2.5h41.5c10.8,0,18.7,0.7,23.7,2.2c5,1.5,9.1,4.2,12.2,8.3c3.2,4,4.8,8.7,4.8,14.1
					c0,6.6-2.4,12.1-7.1,16.4c-3,2.7-7.3,4.8-12.7,6.1l21.5,30.2c2.8,3.9,4.8,6.4,6,7.3c1.8,1.4,3.9,2.1,6.3,2.2v2.5h-28.2L960,75.8
					H954.1L954.1,75.8z M954.1,31.9L954.1,31.9v39.2h3.8c6.1,0,10.7-0.6,13.7-1.7c3.1-1.1,5.4-3.1,7.2-6c1.7-2.9,2.6-6.7,2.6-11.4
					c0-6.8-1.6-11.8-4.8-15.1c-3.2-3.3-8.3-4.9-15.4-4.9H954.1z"/>
				<path class="st0" d="M1075.3,114.1v2.5h-46.7v-2.5h3c2.6,0,4.7-0.5,6.3-1.4c1.1-0.6,2-1.7,2.6-3.2c0.5-1,0.7-3.8,0.7-8.3V42.4
					c0-4.6-0.2-7.4-0.7-8.6c-0.5-1.1-1.4-2.2-2.9-3c-1.4-0.8-3.5-1.3-5.9-1.3h-3v-2.5h46.7v2.5h-3c-2.6,0-4.7,0.5-6.2,1.4
					c-1.1,0.6-2,1.7-2.7,3.2c-0.5,1-0.7,3.8-0.7,8.3v58.8c0,4.6,0.3,7.4,0.8,8.6c0.5,1.1,1.5,2.1,3,3c1.5,0.8,3.5,1.3,5.9,1.3
					H1075.3z"/>
				<path class="st0" d="M489.2,114.1v2.5h-46.7v-2.5h3c2.6,0,4.7-0.5,6.3-1.4c1.1-0.6,2-1.7,2.6-3.2c0.5-1,0.7-3.8,0.7-8.3V42.4
					c0-4.6-0.2-7.4-0.7-8.6c-0.5-1.1-1.5-2.2-2.9-3c-1.5-0.8-3.5-1.3-6-1.3h-3v-2.5h46.7v2.5h-3c-2.6,0-4.7,0.5-6.3,1.4
					c-1.2,0.6-2,1.7-2.7,3.2c-0.5,1-0.7,3.8-0.7,8.3v58.8c0,4.6,0.3,7.4,0.8,8.6c0.5,1.1,1.5,2.1,3,3c1.5,0.8,3.5,1.3,6,1.3H489.2z"
					/>
				<path class="st0" d="M1172.1,27.1v24.2h-2.4c-1.4-5.6-3-9.6-4.7-12c-1.7-2.4-4.1-4.4-7.1-5.8c-1.6-0.8-4.6-1.2-8.7-1.2h-6.7
					v68.9c0,4.6,0.3,7.4,0.7,8.6c0.5,1.1,1.5,2.1,3,3c1.5,0.8,3.5,1.3,6,1.3h3v2.5h-46.8v-2.5h3c2.6,0,4.7-0.5,6.2-1.4
					c1.1-0.6,2.1-1.7,2.7-3.2c0.5-1,0.7-3.8,0.7-8.3V32.3h-6.5c-6,0-10.4,1.3-13.1,3.8c-3.8,3.6-6.3,8.6-7.3,15.2h-2.5V27.1H1172.1z
					"/>
				<path class="st0" d="M1280,27.1v2.5c-3,0.4-5.2,1.2-6.8,2.5c-2.2,1.9-5.7,6.9-10.4,15.1l-19.4,32.4v21.6c0,4.6,0.2,7.5,0.7,8.6
					c0.5,1.1,1.4,2.1,2.9,3c1.4,0.8,3.3,1.3,5.7,1.3h5v2.5h-50.2v-2.5h4.7c2.6,0,4.7-0.5,6.3-1.4c1.1-0.6,2-1.7,2.7-3.2
					c0.5-1,0.8-3.8,0.8-8.3V83.3l-21-38.3c-4.2-7.6-7.1-12-8.9-13.4c-1.7-1.3-4-2.1-6.8-2.1v-2.5h42.8v2.5h-1.9
					c-2.6,0-4.4,0.4-5.4,1.1c-1,0.7-1.6,1.5-1.6,2.4c0,1.6,1.8,5.5,5.3,11.9l16.1,29.6l16.1-26.9c4-6.6,6-11,6-13.1
					c0-1.2-0.5-2.2-1.7-2.9c-1.5-1.1-4.2-1.8-8.2-2v-2.5H1280z"/>
			</g>
		</g>
		<path class="st0" d="M474.5,173.1v17.4h-1.4c-0.4-3.4-1.3-6-2.4-8c-1.2-2-2.8-3.5-4.9-4.7c-2.1-1.2-4.3-1.7-6.6-1.7
			c-2.6,0-4.7,0.8-6.4,2.3c-1.7,1.6-2.5,3.4-2.5,5.4c0,1.5,0.5,2.9,1.6,4.2c1.5,1.9,5.2,4.4,11,7.4c4.7,2.5,7.9,4.5,9.6,5.8
			c1.7,1.4,3.1,3,4,4.8c0.9,1.8,1.4,3.8,1.4,5.8c0,3.8-1.5,7.1-4.5,9.8c-3,2.7-6.8,4.1-11.4,4.1c-1.4,0-2.8-0.1-4.1-0.3
			c-0.8-0.1-2.4-0.6-4.8-1.4c-2.4-0.8-3.9-1.2-4.6-1.2c-0.6,0-1.1,0.2-1.5,0.5c-0.4,0.4-0.6,1.1-0.8,2.3h-1.4v-17.3h1.4
			c0.6,3.6,1.5,6.3,2.6,8.1c1.1,1.8,2.7,3.3,5,4.5c2.3,1.2,4.7,1.8,7.4,1.8c3.1,0,5.5-0.8,7.3-2.4c1.8-1.6,2.7-3.6,2.7-5.8
			c0-1.3-0.4-2.5-1-3.7c-0.7-1.3-1.7-2.4-3.2-3.5c-1-0.7-3.6-2.3-7.9-4.7c-4.3-2.4-7.4-4.3-9.2-5.8c-1.8-1.4-3.2-3-4.2-4.7
			c-0.9-1.7-1.4-3.7-1.4-5.7c0-3.6,1.4-6.7,4.2-9.3c2.8-2.6,6.3-3.9,10.6-3.9c2.6,0,5.5,0.7,8.5,2c1.4,0.6,2.4,0.9,2.9,0.9
			c0.6,0,1.2-0.2,1.6-0.6c0.4-0.4,0.7-1.1,1-2.3H474.5z"/>
		<path class="st0" d="M500.9,177v19.9h11.1c2.9,0,4.8-0.4,5.8-1.3c1.3-1.1,2-3.1,2.1-6h1.4v17.5h-1.4c-0.3-2.5-0.7-4-1-4.7
			c-0.4-0.9-1.1-1.5-2.2-2c-1-0.5-2.6-0.7-4.7-0.7h-11.1v16.6c0,2.2,0.1,3.6,0.3,4c0.2,0.5,0.6,0.9,1,1.1c0.5,0.3,1.5,0.4,2.8,0.4
			h8.5c2.9,0,4.9-0.2,6.2-0.6c1.3-0.4,2.5-1.2,3.7-2.3c1.5-1.5,3.1-3.8,4.7-6.9h1.5l-4.3,12.6h-38.8v-1.4h1.8c1.2,0,2.3-0.3,3.4-0.9
			c0.8-0.4,1.4-1,1.6-1.8c0.3-0.8,0.4-2.4,0.4-4.9V183c0-3.2-0.3-5.1-0.9-5.9c-0.9-1-2.4-1.5-4.5-1.5h-1.8v-1.4h38.8l0.5,11h-1.4
			c-0.5-2.6-1.1-4.5-1.7-5.4c-0.6-1-1.6-1.8-2.8-2.3c-1-0.4-2.8-0.6-5.2-0.6H500.9z"/>
		<path class="st0" d="M581.1,173.1l1.3,15.9h-1.3c-1.3-3.9-3-6.9-5.1-8.9c-3-2.9-6.8-4.3-11.5-4.3c-6.4,0-11.3,2.5-14.6,7.6
			c-2.8,4.3-4.2,9.4-4.2,15.3c0,4.8,0.9,9.2,2.8,13.2c1.8,3.9,4.3,6.8,7.3,8.7c3,1.8,6.1,2.8,9.3,2.8c1.8,0,3.6-0.2,5.4-0.7
			c1.7-0.5,3.4-1.2,5-2.1v-14.6c0-2.5-0.2-4.2-0.6-5c-0.4-0.8-1-1.4-1.8-1.8c-0.8-0.4-2.2-0.6-4.3-0.6v-1.4h19.5v1.4h-0.9
			c-1.9,0-3.2,0.6-4,1.9c-0.5,0.9-0.7,2.7-0.7,5.4v15.4c-2.8,1.5-5.6,2.7-8.4,3.4c-2.8,0.7-5.9,1.1-9.2,1.1
			c-9.7,0-17.1-3.1-22.2-9.4c-3.8-4.7-5.7-10.1-5.7-16.2c0-4.4,1-8.7,3.2-12.7c2.5-4.8,6-8.5,10.4-11.1c3.7-2.2,8-3.2,13.1-3.2
			c1.8,0,3.5,0.2,5,0.4c1.5,0.3,3.6,0.9,6.4,2c1.4,0.5,2.3,0.8,2.8,0.8c0.5,0,0.9-0.2,1.2-0.6c0.3-0.5,0.5-1.3,0.6-2.6H581.1z"/>
		<path class="st0" d="M628.7,175.6v-1.4h17.8v1.4h-1.9c-2,0-3.5,0.8-4.6,2.5c-0.5,0.8-0.8,2.6-0.8,5.3v20.4c0,5-0.5,9-1.5,11.7
			c-1,2.8-3,5.2-5.9,7.2c-2.9,2-6.9,3-12,3c-5.5,0-9.7-0.9-12.5-2.8c-2.8-1.9-4.9-4.5-6-7.7c-0.8-2.2-1.2-6.3-1.2-12.4v-19.7
			c0-3.1-0.4-5.1-1.3-6.1c-0.9-1-2.2-1.5-4.1-1.5h-1.9v-1.4h21.8v1.4h-1.9c-2.1,0-3.6,0.7-4.5,2c-0.6,0.9-0.9,2.8-0.9,5.6v21.9
			c0,2,0.2,4.2,0.6,6.7c0.3,2.5,1,4.5,2,5.9c0.9,1.4,2.3,2.6,4,3.5c1.8,0.9,4,1.4,6.5,1.4c3.3,0,6.2-0.7,8.8-2.1
			c2.6-1.4,4.4-3.3,5.3-5.5c1-2.2,1.4-6,1.4-11.4v-20.4c0-3.2-0.4-5.1-1-5.9c-0.9-1.1-2.4-1.6-4.3-1.6H628.7z"/>
		<path class="st0" d="M703.3,224.6h-13.4l-17-23.5c-1.3,0.1-2.3,0.1-3.1,0.1c-0.3,0-0.7,0-1,0c-0.4,0-0.7,0-1.1-0.1v14.6
			c0,3.2,0.3,5.1,1,5.9c0.9,1.1,2.4,1.6,4.3,1.6h1.9v1.4h-21.6v-1.4h1.9c2.1,0,3.6-0.7,4.6-2.1c0.5-0.8,0.8-2.6,0.8-5.5v-32.5
			c0-3.2-0.4-5.1-1.1-5.9c-0.9-1.1-2.4-1.6-4.3-1.6h-1.9v-1.4h18.3c5.3,0,9.3,0.4,11.8,1.2c2.5,0.8,4.7,2.2,6.5,4.3
			c1.8,2.1,2.7,4.6,2.7,7.5c0,3.1-1,5.8-3,8.1c-2,2.3-5.1,3.9-9.4,4.8l10.4,14.4c2.4,3.3,4.4,5.5,6.1,6.6c1.7,1.1,3.9,1.8,6.7,2.1
			V224.6L703.3,224.6z M667.5,198.8L667.5,198.8c0.5,0,0.9,0,1.2,0c0.4,0,0.6,0,0.9,0c4.8,0,8.4-1,10.9-3.1c2.4-2.1,3.7-4.7,3.7-7.9
			c0-3.1-1-5.7-3-7.7c-2-1.9-4.6-2.9-7.8-2.9c-1.4,0-3.4,0.2-5.8,0.7V198.8z"/>
		<path class="st0" d="M731.9,173.1c6.5,0,12.2,2.5,17,7.4c4.8,5,7.2,11.2,7.2,18.6c0,7.7-2.4,14-7.2,19.1
			c-4.8,5.1-10.7,7.6-17.5,7.6c-6.9,0-12.8-2.5-17.5-7.4c-4.7-4.9-7.1-11.3-7.1-19.1c0-8,2.7-14.5,8.2-19.6
			C719.7,175.3,725.3,173.1,731.9,173.1L731.9,173.1z M731.2,175.8L731.2,175.8c-4.5,0-8.1,1.7-10.9,5c-3.4,4.2-5.1,10.2-5.1,18.3
			c0,8.2,1.8,14.6,5.3,19c2.7,3.4,6.3,5.1,10.7,5.1c4.7,0,8.6-1.9,11.7-5.5c3.1-3.7,4.6-9.5,4.6-17.5c0-8.6-1.7-15-5.1-19.3
			C739.8,177.5,736,175.8,731.2,175.8z"/>
		<path class="st0" d="M796.9,173.1v17.4h-1.4c-0.4-3.4-1.2-6-2.4-8c-1.1-2-2.8-3.5-4.9-4.7c-2.1-1.2-4.3-1.7-6.6-1.7
			c-2.6,0-4.7,0.8-6.4,2.3c-1.7,1.6-2.5,3.4-2.5,5.4c0,1.5,0.5,2.9,1.6,4.2c1.5,1.9,5.2,4.4,10.9,7.4c4.7,2.5,7.9,4.5,9.6,5.8
			c1.7,1.4,3,3,4,4.8c0.9,1.8,1.4,3.8,1.4,5.8c0,3.8-1.5,7.1-4.5,9.8c-2.9,2.7-6.8,4.1-11.4,4.1c-1.5,0-2.8-0.1-4.1-0.3
			c-0.8-0.1-2.4-0.6-4.8-1.4c-2.4-0.8-3.9-1.2-4.6-1.2c-0.6,0-1.1,0.2-1.5,0.5c-0.4,0.4-0.6,1.1-0.8,2.3h-1.4v-17.3h1.4
			c0.6,3.6,1.5,6.3,2.6,8.1c1.1,1.8,2.7,3.3,5,4.5c2.2,1.2,4.7,1.8,7.4,1.8c3.1,0,5.5-0.8,7.3-2.4c1.8-1.6,2.7-3.6,2.7-5.8
			c0-1.3-0.3-2.5-1-3.7c-0.7-1.3-1.8-2.4-3.2-3.5c-1-0.7-3.6-2.3-7.9-4.7c-4.3-2.4-7.4-4.3-9.2-5.8c-1.8-1.4-3.2-3-4.1-4.7
			c-1-1.7-1.4-3.7-1.4-5.7c0-3.6,1.4-6.7,4.1-9.3c2.8-2.6,6.3-3.9,10.6-3.9c2.7,0,5.5,0.7,8.5,2c1.4,0.6,2.4,0.9,2.9,0.9
			c0.6,0,1.2-0.2,1.6-0.6c0.4-0.4,0.8-1.1,1-2.3H796.9z"/>
		<rect x="722.4" y="2.4" class="st0" width="60.8" height="8.2"/>
	</g>
</g>
</svg>
