<?xml version="1.0" encoding="UTF-8" standalone="no"?>
<!-- Generator: Adobe Illustrator 19.1.0, SVG Export Plug-In . SVG Version: 6.00 Build 0)  -->
<svg id="Layer_1" style="enable-background:new 0 0 149.1 17.6" xmlns="http://www.w3.org/2000/svg" xml:space="preserve" viewBox="0 0 149.1 17.6" version="1.1" y="0px" x="0px" xmlns:xlink="http://www.w3.org/1999/xlink">
<style type="text/css">
	.st0{fill-rule:evenodd;clip-rule:evenodd;fill:#D72426;}
</style>
	<path class="st0" d="m12.7 5.9c-0.3-0.2-0.7-0.3-1-0.2-0.1-0.4-0.5-0.7-0.8-0.9-0.7-0.2-1.3-0.4-2.1-0.4s-1.5 0.1-2.1 0.3c0 0-0.1 0-0.2 0.1-0.3 0.2-0.6 0.5-0.7 0.9-0.3-0.1-0.8 0-1.1 0.2-0.4 0.4-0.8 0.9-1.1 1.4s-0.5 1.1-0.6 1.6v0.2c0 0.5 0.2 0.9 0.6 1.2 0.2 0.1 0.5 0.2 0.7 0.2h2.9 1.2v2.7h0.9v-2.7h1.1 2.9c0.2 0 0.5 0 0.7-0.2 0.4-0.2 0.7-0.7 0.6-1.2v-0.2c-0.1-0.6-0.3-1.1-0.6-1.7-0.4-0.4-0.8-0.9-1.3-1.3zm-5.5 3.7h-2.9c-0.1 0-0.2 0-0.3-0.1-0.1 0-0.2-0.2-0.2-0.4 0.1-0.5 0.3-1 0.5-1.4 0.3-0.4 0.6-0.8 1-1.1 0.1-0.1 0.3-0.1 0.5 0 0.1 0 0.1 0.1 0.2 0.2l1.4 2.5c0 0.1 0.1 0.2 0 0.2 0 0.1-0.1 0.1-0.2 0.1zm1.8-0.1c0 0.1-0.1 0.1-0.2 0.1s-0.2-0.1-0.2-0.2l-1.9-3c0-0.1-0.1-0.2-0.1-0.3 0-0.2 0.1-0.4 0.3-0.5 0.6-0.2 1.2-0.3 1.8-0.3s1.2 0.1 1.8 0.3c0.2 0.1 0.3 0.3 0.3 0.5 0 0.1 0 0.2-0.1 0.3l-1.7 3.1zm4.5 0.1c-0.1 0-0.2 0.1-0.3 0.1h-2.9c-0.1 0-0.2 0-0.2-0.1v-0.2l1.4-2.5c0-0.1 0.1-0.2 0.2-0.2 0.2-0.1 0.3-0.1 0.5 0 0.4 0.3 0.7 0.7 0.9 1.1 0.3 0.4 0.4 0.9 0.5 1.4 0.1 0.1 0 0.3-0.1 0.4z"/>
	<path class="st0" d="m8.8 0c-4.9 0-8.8 3.9-8.8 8.8 0 4.8 3.9 8.8 8.8 8.8s8.8-3.9 8.8-8.8c-0.1-4.9-4-8.8-8.8-8.8zm0 16.7c-4.4 0-7.9-3.6-7.9-7.9s3.6-7.9 7.9-7.9c4.4 0 7.9 3.6 7.9 7.9s-3.5 7.9-7.9 7.9z"/>
	<polygon points="37.2 8.8 32.9 0.1 26.5 0.1 26.5 17.6 32.9 17.6 32.9 8.8 37.2 17.6 41.5 8.8 41.5 17.6 47.9 17.6 47.9 0.1 41.5 0.1" class="st0"/>
	<path class="st0" d="m55 0.1l-5 17.5h6.5l0.8-2.9h6.9l0.8 2.9h6.5l-5-17.5h-11.5zm3.1 11.7l2.6-9.1 2.6 9.1h-5.2z"/>
	<path class="st0" d="m85.6 0.1h-12.1v17.5h6.5v-7.3h5.6c2.8 0 5.1-2.3 5.1-5.1s-2.3-5.1-5.1-5.1zm-4.2 7.2h-1.4v-5.2h1.4c1.5 0 2.9 0.8 2.9 2.4 0 1.5-1.2 2.8-2.9 2.8z"/>
	<polygon points="92.9 17.6 99.3 17.6 99.3 10.3 110.1 10.3 110.1 7.4 99.3 7.4 99.3 3 110.1 3 110.1 0.1 92.9 0.1" class="st0"/>
	<polygon points="149.1 3 149.1 0.1 131.9 0.1 131.9 17.6 149.1 17.6 149.1 14.7 138.4 14.7 138.4 10.3 149.1 10.3 149.1 7.4 138.4 7.4 138.4 3" class="st0"/>
	<path class="st0" d="m129.5 4.5c0-2.4-2-4.4-4.4-4.4h-12.8v17.5h6.6v-7.2h1.4c1.6 0 2.9 1.3 2.9 2.9v0.1 4.2h6.3v-4.5c-0.1-2.3-2-4.2-4.4-4.2 2.4-0.1 4.4-2 4.4-4.4zm-9.2 2.8h-1.4v-5.2h1.4c1.4 0 2.9 0.8 2.9 2.4-0.1 1.6-1.3 2.8-2.9 2.8z"/>
</svg>
