<?xml version="1.0" encoding="UTF-8" standalone="no"?>
<!-- Generator: Adobe Illustrator 19.1.0, SVG Export Plug-In . SVG Version: 6.00 Build 0)  -->
<svg id="Layer_1" style="enable-background:new 0 0 176.1 30.6" xmlns="http://www.w3.org/2000/svg" xml:space="preserve" viewBox="0 0 176.1 30.6" version="1.1" y="0px" x="0px" xmlns:xlink="http://www.w3.org/1999/xlink">
<style type="text/css">
	.st0{fill:#3082BE;}
</style>
		<path class="st0" d="m18.9 15.2c0 0.7 0.5 1.3 1.1 1.3 0.5 0 0.9-0.2 1.3-0.7v-2.1h-0.1c-1.7 0.1-2.3 0.4-2.3 1.5z"/>
		<path class="st0" d="m0.2 0v25.1h25.1v-25.1h-25.1zm15.7 9.8h-1.7v12.6h1.7v0.3h-5.3v-0.3h1.8v-11.9l-4.7 11.9h-0.1l-4.7-11.6v10.1c0 1.2 0.2 1.6 1.2 1.6h0.7v0.3h-3.9v-0.3h0.5c1 0 1.2-0.3 1.2-1.6v-11h-1.7v-0.4h3.6l3.9 10 3.9-10h3.6v0.3zm7.5 8.6c-0.6-0.2-1.1-0.7-1.4-1.2-0.4 0.3-0.4 0.4-0.6 0.5-0.5 0.3-1.1 0.5-1.9 0.5-2.1 0-3.3-1.1-3.3-3 0-2.2 1.6-3.3 4.6-3.3h0.6v-0.4c0-1.1-0.2-1.4-1.1-1.4-0.8 0-1.7 0.4-2.8 1.1l-1.1-1.8c0.6-0.3 0.9-0.4 1.6-0.7 0.9-0.4 1.7-0.6 2.6-0.6 1.6 0 2.7 0.6 3.1 1.7 0.1 0.4 0.2 0.7 0.2 1.7l-0.1 3.2v0.2c0 1 0.2 1.4 0.9 2l-1.3 1.5z"/>
		<path d="m30.2 5.6h-2.2v-0.4h4.8l5.2 13.2 5.1-13.2h4.7v0.4h-2.2v16.7h2.2v0.4h-7.1v-0.4h2.3v-15.8l-6 15.8h-0.2l-6.2-15.5v13.4c0 1.6 0.2 2.1 1.5 2.1h1v0.4h-5.1v-0.4h0.7c1.3 0 1.5-0.4 1.5-2.1v-14.6z"/>
		<path d="m49.9 18.8c0 1.8 0.2 3.7 2.6 3.7 2.1 0 3.6-1.4 4-3.4h0.4c-0.4 2.3-2.1 3.8-4.4 3.8-2.9 0-5-2.2-5-5.5 0-2.4 1.9-5.5 4.7-5.5 2.9 0 4.5 3.3 4.5 4.3 0 0.1-0.1 0.2-0.2 0.2h-6.5v2.4zm4.3-3.4c0-1.6-0.4-3.1-2.1-3.1s-2.3 1.5-2.3 3.1v0.7h4.2c0.1 0 0.2-0.1 0.2-0.2v-0.5z"/>
		<path d="m58.8 12.9h-2.1v-0.4h2.1c0.8 0 1.6 0 2.1-0.6v2.9h0.1c0.3-1.1 1.2-2.9 3.2-2.9 0.9 0 1.6 0.6 1.6 1.5 0 0.6-0.4 1.2-1.1 1.2-0.8 0-1.1-0.4-1.1-1.1 0-0.5 0.3-0.9 0.5-1.1-0.1-0.1-0.2-0.1-0.4-0.1-1 0-2.9 1.6-2.9 4.8v5.1h2.3v0.4h-6.4v-0.4h2.1v-9.3z"/>
		<path d="m74.7 19.2c0 1.8-1.7 3.8-4.1 3.8-3.2 0-5.3-2.3-5.3-5.1 0-3.3 2.5-5.9 5.4-5.9 1.7 0 3.6 0.8 3.6 2.3 0 0.7-0.6 1.2-1.2 1.2-0.8 0-1.2-0.5-1.2-1.1 0-1 0.6-0.9 0.6-1.3 0-0.5-1.1-0.8-1.9-0.8-2.4 0-3 1.6-3 3.9v2.2c0 2.2 0.1 4.1 2.9 4.1 2.5 0 3.6-1.9 3.8-3.4h0.4z"/>
		<path d="m84.4 21.3c0 0.5 0.1 1.1 0.7 1.1s0.9-0.5 1.3-1l0.3 0.2c-0.5 0.8-1.1 1.3-2.2 1.3-1.2 0-2-0.7-2.2-1.5h-0.1c-0.8 1.1-2 1.5-3.6 1.5-1.9 0-3.1-1-3.1-2.7 0-2.8 3.7-3.5 6.3-3.5h0.5v-3.1c0-1.2-1.1-1.4-2-1.4-0.7 0-2.4 0.3-2.4 1.2 0 0.6 0.8 0.3 0.8 1.4 0 0.6-0.5 1-1.1 1-0.7 0-1.1-0.5-1.1-1.4 0-1.3 1.3-2.7 3.8-2.7 1.9 0 4.1 1 4.1 2.9v6.7zm-2.5-4.1c-1.8 0-4.1 0-4.1 2.7 0 1.4 0.2 2.4 1.8 2.4 1.9 0 2.7-1.4 2.7-1.9v-3.3h-0.4z"/>
		<path d="m88.3 12.9h-2v-0.4h2c1.2 0 1.6 0 2.1-0.6v2.5c0.6-1.2 1.9-2.5 3.7-2.5 2.7 0 3.4 1.3 3.4 2.8v7.5h1.6v0.4h-5.3v-0.4h1.6v-8.1c0-1.4-0.7-1.8-1.5-1.8-2.1 0-3.2 2.1-3.6 2.9v7h1.5v0.4h-5.2v-0.4h1.6v-9.3z"/>
		<path d="m100.1 12.9h-2.1v-0.4c2.6 0 3.5-1 4-3.5h0.3v3.5h3.4v0.4h-3.4v8.3c0 1 0.4 1.3 1.2 1.3 1.2 0 1.8-1.1 1.9-1.6l0.4 0.1c-0.2 0.6-0.9 1.9-2.7 1.9-1.7 0-2.9-0.6-2.9-2.2v-7.8z"/>
		<path d="m107.6 12.9h-2v-0.4h2c0.8 0 1.6 0 2.1-0.6v10.3h2v0.4h-5.7v-0.4h1.6v-9.3zm1.1-5.3c0.7 0 1.3 0.6 1.3 1.3s-0.6 1.3-1.3 1.3-1.3-0.6-1.3-1.3 0.6-1.3 1.3-1.3z"/>
		<path d="m113.1 6.5h-2v-0.4h2c0.8 0 1.6 0 2.1-0.6v16.8h2v0.4h-6.1v-0.4h2v-15.8z"/>
		<path d="m119.9 13c0.7-0.5 1-0.6 1.8-0.9 1.1-0.4 2-0.6 3-0.6 1.9 0 3.1 0.7 3.6 1.9 0.2 0.5 0.2 0.8 0.2 2l-0.1 3.7v0.2c0 1.2 0.2 1.6 1 2.3l-1.5 1.8c-0.7-0.3-1.3-0.8-1.6-1.3-0.4 0.4-0.5 0.4-0.7 0.6-0.5 0.4-1.3 0.6-2.2 0.6-2.5 0-3.8-1.3-3.8-3.4 0-2.6 1.8-3.8 5.3-3.8h0.6v-0.5c0-1.2-0.2-1.6-1.3-1.6-0.9 0-2 0.4-3.2 1.2l-1.1-2.2zm5.6 4.8h-0.1c-2 0-2.7 0.4-2.7 1.7 0 0.9 0.5 1.4 1.3 1.4 0.5 0 1.1-0.3 1.5-0.7v-2.4z"/>
		<path d="m129.9 12.1l2.6-0.7c0.3 0.5 0.4 0.9 0.4 1.4 0.7-0.5 0.8-0.6 1.3-0.8 0.6-0.3 1.3-0.5 2-0.5 1.2 0 2.3 0.6 2.7 1.6 0.2 0.4 0.2 0.9 0.2 1.6v8h-2.8v-7.2c0-1.3-0.2-1.6-1-1.6-0.6 0-1.3 0.4-2 1v7.8h-2.9v-8c-0.1-1-0.2-1.9-0.5-2.6z"/>
		<path d="m149.9 7.2v11.4c0 2.7 0.2 3.6 0.4 4h-2.6c-0.1-0.2-0.1-0.3-0.2-0.6-0.7 0.6-1.5 0.9-2.5 0.9-2.8 0-4.6-2.2-4.6-5.6s1.9-5.8 4.7-5.8c0.8 0 1.4 0.2 2 0.6 0-0.2-0.1-1-0.1-1.6v-3.7l2.9 0.4zm-2.8 7.4c-0.5-0.5-1.1-0.7-1.6-0.7-1.3 0-1.9 1.1-1.9 3.5s0.5 3.1 2 3.1c0.5 0 1.1-0.4 1.4-0.7v-5.2z"/>
		<path d="m151.9 11.8l2.9-0.4v11.3h-2.9v-10.9zm1.5-5c1 0 1.7 0.8 1.7 1.8s-0.8 1.8-1.8 1.8-1.8-0.8-1.8-1.8c0.1-1 0.9-1.8 1.9-1.8z"/>
		<path d="m156.3 12.1l2.6-0.7c0.3 0.5 0.4 0.9 0.4 1.4 0.7-0.5 0.8-0.6 1.3-0.8 0.6-0.3 1.3-0.5 2-0.5 1.2 0 2.3 0.6 2.7 1.6 0.2 0.4 0.2 0.9 0.2 1.6v8h-2.8v-7.2c0-1.3-0.2-1.6-1-1.6-0.6 0-1.3 0.4-2 1v7.8h-2.9v-8c-0.2-1-0.3-1.9-0.5-2.6z"/>
		<path d="m166.6 13c0.7-0.5 1-0.6 1.8-0.9 1.1-0.4 2-0.6 3-0.6 1.9 0 3.1 0.7 3.6 1.9 0.2 0.5 0.2 0.8 0.2 2l-0.1 3.7v0.2c0 1.2 0.2 1.6 1 2.3l-1.5 1.8c-0.7-0.3-1.3-0.8-1.6-1.3-0.4 0.4-0.4 0.4-0.7 0.6-0.5 0.4-1.3 0.6-2.2 0.6-2.5 0-3.8-1.3-3.8-3.4 0-2.6 1.8-3.8 5.3-3.8h0.6v-0.5c0-1.2-0.2-1.6-1.3-1.6-0.9 0-2 0.4-3.2 1.2l-1.1-2.2zm5.7 4.8h-0.1c-2 0-2.7 0.4-2.7 1.7 0 0.9 0.5 1.4 1.3 1.4 0.5 0 1.1-0.3 1.5-0.7v-2.4z"/>
			<path d="m1.1 26.9c-0.6 0-1 0.3-1 0.8 0 0.2 0.1 0.4 0.1 0.5 0.1 0.1 0.3 0.2 0.5 0.3l0.3 0.1c0.3 0 0.4 0.1 0.4 0.3s-0.2 0.3-0.3 0.3c-0.3 0-0.7-0.2-0.9-0.3l-0.2 0.5c0.4 0.2 0.7 0.3 1.1 0.3 0.7 0 1.1-0.4 1.1-0.9 0-0.2 0-0.3-0.1-0.4s-0.2-0.2-0.5-0.3l-0.4-0.1c-0.2-0.1-0.3-0.1-0.3-0.3s0.1-0.3 0.3-0.3 0.4 0.1 0.6 0.2l0.2-0.5c-0.2 0-0.5-0.2-0.9-0.2z"/>
			<path d="m5.1 29.2c-0.4 0-0.6-0.2-0.6-0.6h1.5v-0.2c0-0.5-0.1-0.9-0.3-1.1s-0.4-0.3-0.7-0.3-0.6 0.1-0.8 0.3c-0.2 0.3-0.3 0.6-0.3 1 0 0.8 0.5 1.3 1.2 1.3 0.4 0 0.7-0.1 1-0.4l-0.3-0.4c-0.2 0.3-0.5 0.4-0.7 0.4zm-0.5-1.2c0-0.4 0.1-0.6 0.4-0.6 0.1 0 0.2 0 0.3 0.1s0.1 0.2 0.1 0.4l-0.8 0.1z"/>
			<path d="m9.7 27.1c-0.1 0-0.1 0-0.3-0.1h-0.5c-0.7 0-1.1 0.3-1.1 0.9 0 0.4 0.2 0.6 0.6 0.7-0.2 0-0.3 0.1-0.4 0.2s-0.1 0.1-0.1 0.2v0.2c0 0.1 0.1 0.1 0.1 0.1 0.1 0 0.3 0.1 0.6 0.1h0.3c0.2 0 0.3 0 0.4 0.1 0.1 0 0.1 0.1 0.1 0.2s-0.1 0.2-0.2 0.3-0.2 0.1-0.4 0.1c-0.3 0-0.5-0.1-0.5-0.3v-0.2h-0.5c0 0.1-0.1 0.1-0.1 0.3s0.1 0.3 0.2 0.5c0.2 0.2 0.6 0.3 1 0.3s0.8-0.1 1-0.3c0.1-0.2 0.2-0.3 0.2-0.5s-0.1-0.4-0.2-0.6c-0.2-0.3-0.4-0.3-0.8-0.3h-0.4c-0.1 0-0.1 0-0.1-0.1s0.1-0.1 0.3-0.2h0.1c0.6 0 1-0.3 1-0.8 0-0.2-0.1-0.3-0.2-0.4h0.2c0.2 0 0.3-0.1 0.5-0.2l-0.3-0.4c-0.2 0.1-0.3 0.2-0.5 0.2zm-0.4 0.8c0 0.2-0.1 0.4-0.4 0.4-0.2 0-0.4-0.1-0.4-0.4 0-0.2 0.1-0.4 0.4-0.4 0.2 0 0.4 0.1 0.4 0.4z"/>
			<path d="m12.1 28.7c0 0.3 0 0.4 0.1 0.5 0.1 0.2 0.4 0.4 0.8 0.4 0.3 0 0.5-0.1 0.7-0.3 0 0.1 0.1 0.2 0.2 0.3l0.5-0.3c-0.1-0.1-0.2-0.3-0.2-0.5v-2l-0.7 0.1v1.8c0 0.1-0.3 0.3-0.4 0.3s-0.2-0.1-0.2-0.1c0-0.1-0.1-0.2-0.1-0.4v-1.5l-0.7 0.1v1.6z"/>
			<path d="m16.2 27.9v1.7h0.7v-1.8c0.1-0.1 0.3-0.2 0.4-0.2s0.1 0 0.2 0.1l0.2-0.6c-0.1 0-0.2-0.1-0.3-0.1h-0.2c-0.1 0.1-0.3 0.2-0.4 0.3 0-0.1 0-0.3-0.1-0.4l-0.6 0.2c0 0.2 0.1 0.4 0.1 0.8z"/>
			<path d="m19 28.3c0 0.8 0.5 1.3 1.2 1.3 0.4 0 0.7-0.1 0.9-0.4s0.3-0.6 0.3-1-0.1-0.7-0.3-1-0.5-0.4-0.9-0.4c-0.7 0.2-1.2 0.7-1.2 1.5zm1.5-0.7c0.1 0.1 0.1 0.3 0.1 0.7 0 0.6-0.1 0.9-0.4 0.9-0.1 0-0.3-0.1-0.3-0.2-0.1-0.1-0.1-0.4-0.1-0.7s0-0.4 0.1-0.6 0.2-0.3 0.3-0.3c0.1 0.1 0.2 0.1 0.3 0.2z"/>
			<path d="m24 26.9c-0.6 0-1 0.3-1 0.8 0 0.2 0.1 0.4 0.1 0.5 0.1 0.1 0.3 0.2 0.5 0.3l0.3 0.1c0.3 0 0.4 0.1 0.4 0.3s-0.2 0.3-0.3 0.3c-0.3 0-0.7-0.2-0.9-0.3l-0.2 0.5c0.4 0.2 0.7 0.3 1.1 0.3 0.7 0 1.1-0.4 1.1-0.9 0-0.2 0-0.3-0.1-0.4s-0.2-0.2-0.5-0.3l-0.4-0.1c-0.2-0.1-0.3-0.1-0.3-0.3s0.1-0.3 0.3-0.3 0.4 0.1 0.6 0.2l0.2-0.5c-0.2 0-0.5-0.2-0.9-0.2z"/>
</svg>
