<?xml version="1.0" encoding="UTF-8" standalone="no"?>
<!-- Generator: Adobe Illustrator 19.1.0, SVG Export Plug-In . SVG Version: 6.00 Build 0)  -->
<svg id="Layer_1" style="enable-background:new 0 0 136.2 26.2" xmlns="http://www.w3.org/2000/svg" xml:space="preserve" viewBox="0 0 136.2 26.2" version="1.1" y="0px" x="0px" xmlns:xlink="http://www.w3.org/1999/xlink">
<style type="text/css">
	.st0{fill:#6AB33F;}
</style>
		<path d="m62.2 19.6c-0.1-1.4-1.1-1.8-2-1.8-0.7 0-1.8 0.2-1.8 1.6 0 0.8 0.5 1 1 1.1l2.3 0.6c1 0.3 1.8 1 1.8 2.4 0 2.1-1.8 2.7-3.1 2.7-1.5 0-2.1-0.5-2.4-0.9-0.8-0.7-1-1.4-1-2.3h1c0 1.6 1.2 2.1 2.2 2.1 0.8 0 2.1-0.2 2.1-1.5 0-0.9-0.4-1.2-1.7-1.6l-1.6-0.4c-0.5-0.1-1.7-0.5-1.7-2.1 0-1.4 0.8-2.8 2.8-2.8 2.8 0 3.1 1.9 3.1 2.8h-1z"/>
		<path d="m74.8 25.9h-5.9v-8.9h5.8v1.1h-4.7v2.7h4.4v1.1h-4.4v3h4.8v1z"/>
		<path d="m83.8 21.1h3.5v4.8h-0.7l-0.3-1.2c-0.5 0.8-1.6 1.4-2.6 1.4-1.4 0-2-0.6-2.5-1-1.2-1.2-1.2-2.8-1.2-3.7 0-2.2 1.2-4.6 3.8-4.6 1.5 0 3.2 0.9 3.4 2.9h-1.1c-0.3-1.6-1.5-1.9-2.4-1.9-1.4 0-2.6 1.3-2.6 3.6 0 1.8 0.5 3.7 2.7 3.7 0.4 0 1-0.1 1.6-0.6 0.7-0.6 0.9-1.4 0.9-2.4h-2.5v-1z"/>
		<path d="m99.3 17v5.8c0 1.8-1 3.4-3.2 3.4s-3.1-1.5-3.1-3.2v-6h1.1v5.6c0 1.9 1.1 2.5 2 2.5 1 0 2.1-0.5 2.1-2.4v-5.7h1.1z"/>
		<path d="m106.3 25.9h-1.1v-8.9h3.7c1.3 0 2.6 0.5 2.6 2.4 0 1.3-0.6 1.8-1.1 2.1 0.5 0.2 0.9 0.4 1 1.7l0.1 1.6c0 0.5 0.1 0.7 0.4 0.9v0.2h-1.3c-0.2-0.6-0.2-1.9-0.2-2.2 0-0.7-0.1-1.6-1.4-1.6h-2.6v3.8zm0-4.8h2.5c0.8 0 1.6-0.2 1.6-1.5 0-1.4-0.9-1.5-1.4-1.5h-2.7v3z"/>
		<path d="m120.9 26.1c-3 0-3.9-2.8-3.9-4.7s0.9-4.7 3.9-4.7 3.9 2.8 3.9 4.7c0 2-0.9 4.7-3.9 4.7zm0-8.3c-1.7 0-2.8 1.5-2.8 3.6s1.1 3.6 2.8 3.6 2.8-1.5 2.8-3.6c0-2-1-3.6-2.8-3.6z"/>
		<path d="m134.9 19.6c-0.1-1.4-1.1-1.8-2-1.8-0.7 0-1.8 0.2-1.8 1.6 0 0.8 0.5 1 0.9 1.1l2.3 0.6c1 0.3 1.8 1 1.8 2.4 0 2.1-1.8 2.7-3.1 2.7-1.5 0-2.1-0.5-2.4-0.9-0.7-0.7-0.8-1.4-0.8-2.3h1c0 1.6 1.2 2.1 2.2 2.1 0.8 0 2.1-0.2 2.1-1.5 0-0.9-0.4-1.2-1.7-1.6l-1.6-0.4c-0.5-0.1-1.7-0.5-1.7-2.1 0-1.4 0.8-2.8 2.8-2.8 2.8 0 3.1 1.9 3.1 2.8h-1.1z"/>
	<path class="st0" d="m30 0h-10.1l-1.6 7.3h6.8l16 18.5h11.4l-22.5-25.8zm-21.6 0h-8.4v26.2h14.4l1.7-8.4h-7.7v-8.8l14.7 16.8h11.4l-22.6-25.8h-3.5z"/>
		<path d="m56.8 13.1v-11.7h4.2l1.9 7.3 1.9-7.3h4.2v11.7h-3.1v-3.6-1.8l0.1-2.1-2 7.5h-2.4l-1.9-7.5 0.1 1.7 0.1 1.8v4h-3.1z"/>
		<path d="m72.9 9.6c0 1 0.7 1.7 1.5 1.7 0.5 0 0.9-0.2 1.1-0.8h2.9c-0.5 2.1-2.5 2.8-4.2 2.8-2.5 0-4.4-1.6-4.4-4.4s1.9-4.6 4.3-4.6c2.8 0 4.6 2.2 4.5 5.3h-5.7zm2.8-1.7c0-0.8-0.6-1.5-1.3-1.5-0.9 0-1.4 0.6-1.4 1.5h2.7z"/>
		<path d="m79.6 4.6h2.8v1.7c0.4-1.3 1.2-2 2.4-2h0.4v3.4c-0.2 0-0.4-0.1-0.6-0.1-1.2 0-1.9 0.6-1.9 2.5v2.9h-3v-8.4z"/>
		<path d="m86 1.1h3v2.4h-3v-2.4zm0 12v-8.5h3v8.5h-3z"/>
		<path d="m96 13.1v-1.1c-0.7 1-1.4 1.4-2.4 1.4-2.3 0-3.5-1.9-3.5-4.3 0-2.8 1.4-4.7 3.3-4.7 1 0 1.6 0.3 2.3 1.1v-4.1h3v11.7h-2.7zm-0.2-4.2c0-0.9-0.3-2-1.3-2s-1.3 1.1-1.3 2 0.2 1.9 1.2 1.9c1 0.1 1.4-0.9 1.4-1.9z"/>
		<path d="m100 1.1h3v2.4h-3v-2.4zm0 12v-8.5h3v8.5h-3z"/>
		<path d="m108.5 4.3c2.7 0 4.4 1.8 4.4 4.4 0 3.1-1.9 4.6-4.4 4.6s-4.4-1.5-4.4-4.4c0.1-2.9 1.9-4.6 4.4-4.6zm-1.3 4.5c0 1.6 0.5 2.3 1.3 2.3s1.3-0.7 1.3-2.3c0-1.3-0.5-2.2-1.3-2.1-1-0.1-1.3 1.1-1.3 2.1z"/>
		<path d="m113.8 4.6h2.8v1.3c0.7-1 1.4-1.6 2.6-1.6 2 0 3 1.3 3 3.7v5.1h-3v-4.5c0-0.8-0.2-1.6-1.1-1.6s-1.2 0.7-1.2 1.8v4.3h-3v-8.5z"/>
		<path d="m128.7 13.1l-0.1-0.9c-0.9 0.9-1.7 1.2-2.9 1.2-1.5 0-2.7-0.8-2.7-2.6 0-3.9 5.5-2.1 5.5-3.7 0-0.6-0.7-0.7-1-0.7-0.4 0-1 0.1-1.1 0.8h-2.9c0-1.8 1.2-2.9 4.2-2.9 3.6 0 3.8 1.5 3.8 3.5v4c0 0.5 0 0.7 0.4 1.1v0.2h-3.2zm-0.3-3.8c-1 0.5-2.3 0.3-2.3 1.4 0 0.4 0.4 0.7 1 0.7 1 0 1.4-0.9 1.3-2.1z"/>
		<path d="m133 13.1v-11.7h3v11.7h-3z"/>
</svg>
