<?xml version="1.0" encoding="UTF-8" standalone="no"?>
<!-- Generator: Adobe Illustrator 19.1.0, SVG Export Plug-In . SVG Version: 6.00 Build 0)  -->
<svg id="Layer_1" style="enable-background:new 0 0 110.1 22.6" xmlns="http://www.w3.org/2000/svg" xml:space="preserve" viewBox="0 0 110.1 22.6" version="1.1" y="0px" x="0px" xmlns:xlink="http://www.w3.org/1999/xlink">
<style type="text/css">
	.st0{fill-rule:evenodd;clip-rule:evenodd;fill:#22408C;}
	.st1{fill:#22408C;}
</style>
	<path class="st0" d="m100.1 0.4c2.6 2.8 4.9 5.8 7.4 8.7v-7.4c-0.2-0.5-0.9-0.6-1.4-0.8 0-0.2 0-0.4 0.2-0.4h3.5c0.2 0.1 0.2 0.3 0.2 0.4-0.4 0.2-1.3 0.3-1.5 0.7v10.9c0 0.1-0.4 0.3-0.4 0.2l-0.4-0.4c-2.8-3.1-5.4-6.4-8.3-9.5 0 0 0.1 5.5 0.1 8.2 0 0.5 0.3 0.7 0.8 0.9 0.5 0.1 0.7 0.2 0.5 0.6h-3.5c-0.1-0.2-0.1-0.4 0-0.5 0.6-0.1 1-0.3 1.2-0.8v-9.6c-0.3-0.4-0.8-0.6-1.3-0.6-0.1-0.1-0.1-0.4 0-0.6h2.9z"/>
	<path class="st0" d="m28.7 0.4c2.6 2.8 4.9 5.8 7.4 8.7v-7.4c-0.2-0.5-0.9-0.6-1.4-0.8 0-0.2 0-0.4 0.2-0.4h3.4c0.2 0.1 0.2 0.3 0.2 0.4-0.5 0.1-1.1 0.2-1.4 0.6v10.9c0 0.1-0.4 0.3-0.4 0.2l-0.4-0.4c-2.8-3.1-5.4-6.4-8.3-9.5v8.1c0 0.5 0.4 0.8 0.8 1.1 0.3 0 0.7 0.2 0.5 0.6h-3.5c-0.1-0.2-0.1-0.4 0-0.5 0.6-0.1 1-0.3 1.2-0.8v-9.6c-0.3-0.4-0.7-0.6-1.2-0.6-0.1-0.1-0.1-0.4 0-0.6h2.9z"/>
	<path class="st0" d="m68.3 1.2l0.1 2.8c-0.1 0.2-0.4 0.2-0.5 0.1-0.2-1.4-1.3-2.7-2.7-3s-3-0.1-4.1 0.9c-1.8 2-1.7 5.1-0.7 7.3 0.5 1.2 1.5 2.1 2.8 2.4 2.3 0.4 4-1.1 5.2-2.9l0.2-0.1c0.1 0.6 0 1.4 0 2-2.1 1.9-5.3 2.3-8 1.3-1.9-1-3.2-2.8-3.3-5-0.2-2.1 0.5-4 2-5.4 2.4-1.7 6.3-1.7 9-0.4z"/>
	<path class="st0" d="m76.8 0.4c0.2 0 0.2 0.3 0.1 0.4-0.4 0.1-1.1 0.3-1.3 0.8v8.9c0.1 0.6 0.4 1.2 0.8 1.3 0.3 0 0.5 0 0.6 0.3-0.1 0.5-0.8 0.2-1.2 0.3-1.1-0.1-2.2 0.1-3.2 0-0.1-0.1-0.3-0.2-0.1-0.4 0.4-0.2 1-0.1 1.1-0.7v-9.8c-0.1-0.8-1.4-0.4-1.1-1.1h4.3z"/>
	<polygon points="108.6 15.5 108.6 14.7 25.7 14.7 25.7 15.5" class="st0"/>
	<path class="st0" d="m11.4 21.2c5.4 0 9.9-4.4 9.9-9.8s-4.4-9.9-9.9-9.9c-5.5 0-9.9 4.4-9.9 9.8s4.4 9.8 9.9 9.9zm0 1.4c6.3 0 11.3-5 11.3-11.3 0-6.2-5.1-11.3-11.3-11.3-6.3 0-11.4 5.1-11.4 11.3s5.1 11.3 11.4 11.3z"/>
	<polygon points="17.5 18.3 17.5 17.2 5 17.2 5 18.3" class="st0"/>
	<polygon points="17 16.5 17 15.4 5.6 15.4 5.6 16.5" class="st0"/>
	<polygon points="7.6 14.8 7.6 6.8 6 6.8 6 14.8" class="st0"/>
	<polygon points="10.6 14.8 10.6 6.8 9 6.8 9 14.8" class="st0"/>
	<polygon points="13.6 14.8 13.6 6.8 12.1 6.8 12.1 14.8" class="st0"/>
	<polygon points="16.6 14.8 16.6 6.8 15.1 6.8 15.1 14.8" class="st0"/>
	<path class="st0" d="m4.5 6h13.6l-6.8-3-6.8 3zm4-0.8l2.9-1.1 2.8 1.1h-5.7z"/>
	<path class="st0" d="m47.1 1.4c-2.2 5.1-3.2 9.1-4.7 10.4-0.3 0.3-0.9-0.1-0.9 0.5 0.1 0.3 0.7 0.1 0.9 0.2 1.1-0.2 2.1 0.2 3-0.1 0.2-0.8-1.1-0.1-1.2-1 0.2-1 0.6-2.3 1.1-3.2h3.5c0.3 1 1 2.2 1.2 3.2 0 0.6-0.7 0.4-1.1 0.6-0.1 0.2-0.1 0.4 0.1 0.4h5.1l0.2-0.2c0-0.2 0-0.3-0.1-0.4-0.6-0.1-1.6-0.5-1.9-1-1.4-3.4-2.9-7.1-4.4-10.4l-0.3-0.3c-0.2 0.5-0.3 0.9-0.5 1.3zm0 6h-1.4c-0.1-0.5 0.3-0.9 0.4-1.4l0.8-2.1c0.1 0.1 0.2 0.2 0.2 0.3 0.5 1 1.1 2 1.4 3.2h-1.4z"/>
	<path class="st0" d="m87.1 0.2c-1.7 0-3.4 0.5-4.5 1.8-1.2 1.2-1.9 2.8-1.9 4.5v0.4c0 0.3 0 0.6 0.1 0.9 0.3 2.1 2.3 3.9 4.2 4.5 0.7 0.2 1.4 0.3 2.1 0.3 1.7 0.1 3.4-0.3 4.6-1.5 2-2.2 2.3-5.1 1-7.7-0.7-1.1-1.7-2.2-2.9-2.7-0.9-0.3-1.8-0.5-2.7-0.5zm0 11.7c-0.9-0.1-1.7-0.6-2.2-1.3-1.8-2.1-2.2-6-0.8-8.4 0.7-0.9 1.8-1.3 3-1.2 0.2 0 0.4 0.1 0.6 0.1 0.8 0.3 1.4 0.9 2 1.6 1.3 2.1 1.7 5.4 0.6 7.8-0.5 0.7-1.3 1.3-2.3 1.5-0.3 0-0.6 0-0.9-0.1z"/>
	<path class="st1" d="m29.7 16.9v1.8h-0.2c-0.1-0.5-0.3-0.8-0.6-1.1s-0.6-0.4-1-0.4c-0.3 0-0.5 0.1-0.7 0.2s-0.2 0.3-0.2 0.5c0 0.1 0 0.2 0.1 0.3s0.2 0.3 0.4 0.4c0.1 0.1 0.4 0.2 0.9 0.5 0.6 0.3 1.1 0.6 1.3 0.9s0.3 0.6 0.3 1c0 0.5-0.2 0.9-0.5 1.2-0.4 0.3-0.8 0.5-1.4 0.5-0.2 0-0.3 0-0.5-0.1-0.2 0-0.3-0.1-0.6-0.2-0.1-0.1-0.2-0.1-0.3-0.1s-0.1 0-0.2 0.1l-0.2 0.2h-0.2v-2.1h0.2c0.1 0.6 0.3 1 0.7 1.3 0.3 0.3 0.7 0.5 1.1 0.5 0.3 0 0.5-0.1 0.7-0.2 0.2-0.2 0.3-0.4 0.3-0.6 0-0.1 0-0.3-0.1-0.4l-0.3-0.3c-0.1-0.1-0.4-0.2-0.7-0.4-0.5-0.2-0.9-0.5-1.1-0.6-0.2-0.2-0.4-0.4-0.5-0.6s-0.2-0.4-0.2-0.7c0-0.4 0.2-0.8 0.5-1.1s0.7-0.5 1.2-0.5c0.2 0 0.4 0 0.5 0.1 0.1 0 0.3 0.1 0.5 0.2s0.3 0.1 0.4 0.1 0.1 0 0.2-0.1c0 0 0.1-0.1 0.1-0.3h0.1z"/>
	<path class="st1" d="m40.9 17.3v2.2h0.1c0.3 0 0.6-0.1 0.8-0.3s0.3-0.5 0.3-1h0.2v2.9h-0.3c0-0.3-0.1-0.6-0.2-0.8s-0.2-0.3-0.4-0.4c-0.1-0.1-0.3-0.1-0.6-0.1v1.5 0.6c0 0.1 0.1 0.1 0.1 0.2 0.1 0 0.2 0.1 0.3 0.1h0.3c0.5 0 0.9-0.1 1.2-0.4 0.3-0.2 0.5-0.6 0.7-1.1h0.1l-0.2 1.7h-4.7v-0.2h0.4c0.2 0 0.3 0 0.4-0.1 0.1 0 0.1-0.1 0.2-0.2v-0.5-3.4-0.5c0-0.1-0.1-0.2-0.2-0.2-0.1-0.1-0.2-0.1-0.4-0.1h-0.2v-0.2h4.6v1.6h-0.2c-0.1-0.4-0.2-0.7-0.3-0.9s-0.3-0.3-0.6-0.4c-0.2 0-0.4-0.1-0.8-0.1h-0.6z"/>
	<path class="st1" d="m56.7 16.9v1.9h-0.2c-0.2-0.5-0.5-0.9-0.8-1.2-0.4-0.3-0.8-0.4-1.2-0.4s-0.8 0.1-1 0.3c-0.3 0.2-0.5 0.6-0.6 1s-0.2 0.8-0.2 1.3 0.1 1 0.2 1.4 0.3 0.7 0.6 0.9 0.6 0.3 1 0.3h0.4c0.1 0 0.3-0.1 0.4-0.1v-1.3-0.4c0-0.1-0.1-0.1-0.2-0.2-0.1 0-0.2-0.1-0.3-0.1h-0.1v-0.1h2.7v0.1c-0.2 0-0.3 0-0.4 0.1-0.1 0-0.1 0.1-0.2 0.2v0.4 1.1c-0.4 0.2-0.7 0.3-1.1 0.4s-0.8 0.1-1.2 0.1c-0.5 0-1-0.1-1.3-0.2s-0.6-0.3-0.9-0.6c-0.3-0.2-0.5-0.5-0.6-0.8-0.2-0.4-0.3-0.8-0.3-1.3 0-0.8 0.3-1.5 0.9-2.1s1.3-0.9 2.2-0.9c0.3 0 0.5 0 0.7 0.1 0.1 0 0.3 0.1 0.6 0.2s0.4 0.2 0.5 0.2 0.1 0 0.2-0.1 0.1-0.2 0.2-0.3z"/>
	<path class="st1" d="m64.6 17h2.8v0.2h-0.1c-0.2 0-0.4 0-0.4 0.1-0.1 0-0.1 0.1-0.2 0.2v0.6 2.7c0 0.5 0 0.8 0.1 1s0.2 0.3 0.4 0.4 0.4 0.2 0.6 0.2c0.3 0 0.6-0.1 0.8-0.2s0.4-0.3 0.5-0.6c0.1-0.2 0.2-0.6 0.2-1.2v-2.4c0-0.2 0-0.4-0.1-0.5s-0.1-0.2-0.2-0.2c-0.1-0.1-0.3-0.1-0.5-0.1v-0.2h1.9v0.2h-0.1c-0.2 0-0.3 0-0.4 0.1s-0.2 0.2-0.2 0.3-0.1 0.2-0.1 0.5v2.1c0 0.6 0 1.1-0.1 1.4s-0.3 0.5-0.6 0.8c-0.3 0.2-0.8 0.4-1.3 0.4s-0.8-0.1-1.1-0.2c-0.4-0.2-0.6-0.4-0.7-0.7s-0.2-0.6-0.2-1.1v-2.8c0-0.3 0-0.5-0.1-0.6 0-0.1-0.1-0.1-0.2-0.2-0.1 0-0.2-0.1-0.5-0.1v-0.1z"/>
	<path class="st1" d="m79.6 20v1.5c0 0.3 0 0.5 0.1 0.6 0 0.1 0.1 0.1 0.2 0.2 0.1 0 0.3 0.1 0.5 0.1v0.2h-2.8v-0.2c0.3 0 0.4 0 0.5-0.1 0.1 0 0.2-0.1 0.2-0.2s0.1-0.3 0.1-0.6v-3.5c0-0.3 0-0.5-0.1-0.6 0-0.1-0.1-0.1-0.2-0.2-0.1 0-0.3-0.1-0.5-0.1v-0.1h2.6c0.7 0 1.2 0 1.5 0.1s0.6 0.3 0.8 0.5 0.3 0.5 0.3 0.9-0.1 0.7-0.4 1c-0.2 0.2-0.4 0.3-0.8 0.4l1.3 1.9c0.2 0.2 0.3 0.4 0.4 0.4 0.1 0.1 0.2 0.1 0.4 0.1v0.2h-1.7l-2-2.5h-0.4zm0-2.7v2.4h0.2c0.4 0 0.7 0 0.8-0.1 0.2-0.1 0.3-0.2 0.4-0.4s0.2-0.4 0.2-0.7c0-0.4-0.1-0.7-0.3-0.9s-0.5-0.3-0.9-0.3h-0.4z"/>
	<path class="st1" d="m93.6 16.9c0.9 0 1.6 0.2 2.1 0.8 0.5 0.5 0.8 1.2 0.8 2 0 0.7-0.2 1.3-0.6 1.8-0.5 0.7-1.3 1.1-2.3 1.1s-1.8-0.3-2.3-1c-0.4-0.5-0.6-1.2-0.6-1.9 0-0.8 0.3-1.5 0.8-2 0.6-0.5 1.3-0.8 2.1-0.8zm0 0.3c-0.5 0-0.9 0.3-1.1 0.8-0.2 0.4-0.3 1-0.3 1.8 0 0.9 0.2 1.6 0.5 2.1 0.2 0.3 0.6 0.5 1 0.5 0.3 0 0.5-0.1 0.7-0.2 0.2-0.2 0.4-0.4 0.6-0.8 0.1-0.4 0.2-0.9 0.2-1.5 0-0.7-0.1-1.3-0.2-1.6-0.1-0.4-0.3-0.6-0.5-0.8-0.4-0.2-0.6-0.3-0.9-0.3z"/>
	<path class="st1" d="m108.2 16.9v1.8h-0.2c-0.1-0.5-0.3-0.8-0.6-1.1s-0.6-0.4-1-0.4c-0.3 0-0.5 0.1-0.7 0.2s-0.2 0.3-0.2 0.5c0 0.1 0 0.2 0.1 0.3s0.2 0.3 0.4 0.4c0.1 0.1 0.4 0.2 0.9 0.5 0.6 0.3 1.1 0.6 1.3 0.9s0.3 0.6 0.3 1c0 0.5-0.2 0.9-0.5 1.2-0.4 0.3-0.8 0.5-1.4 0.5-0.2 0-0.3 0-0.5-0.1-0.2 0-0.3-0.1-0.6-0.2-0.1-0.1-0.2-0.1-0.3-0.1s-0.1 0-0.2 0.1l-0.2 0.2h-0.2v-2.1h0.2c0.1 0.6 0.3 1 0.7 1.3 0.3 0.3 0.7 0.5 1.1 0.5 0.3 0 0.5-0.1 0.7-0.2 0.2-0.2 0.3-0.4 0.3-0.6 0-0.1 0-0.3-0.1-0.4l-0.3-0.3c-0.1-0.1-0.4-0.2-0.7-0.4-0.5-0.2-0.9-0.5-1.1-0.6-0.2-0.2-0.4-0.4-0.5-0.6s-0.2-0.4-0.2-0.7c0-0.4 0.2-0.8 0.5-1.1s0.7-0.5 1.2-0.5c0.2 0 0.4 0 0.5 0.1 0.1 0 0.3 0.1 0.5 0.2s0.3 0.1 0.4 0.1 0.1 0 0.2-0.1c0 0 0.1-0.1 0.1-0.3h0.1z"/>
</svg>
