<?xml version="1.0" encoding="UTF-8" standalone="no"?>
<!-- Generator: Adobe Illustrator 19.1.0, SVG Export Plug-In . SVG Version: 6.00 Build 0)  -->
<svg id="Layer_1" style="enable-background:new 0 0 100.7 36.8" xmlns="http://www.w3.org/2000/svg" xml:space="preserve" viewBox="0 0 100.7 36.8" version="1.1" y="0px" x="0px" xmlns:xlink="http://www.w3.org/1999/xlink">
<style type="text/css">
	.st0{fill:#1072BA;}
</style>
	<path class="st0" d="m20.1 1.3l3.2-0.3c-1.3-0.5-2.7-0.8-4.2-0.9l-0.5 0.7c0.7 0.1 1.2 0.2 1.5 0.5z"/>
	<path class="st0" d="m18.8 0.1c-0.5 0-1-0.1-1.4-0.1l-0.1 0.6c0.4 0 0.8 0 1.1 0.1l0.4-0.6z"/>
	<path class="st0" d="m8.6 4.6c0.4 0.4 1 0.8 1.9 1.1 1-0.9 2.2-1.8 3.4-2.6-0.1-0.1-0.3-0.2-0.3-0.3-1.9 0.4-3.5 1-5 1.8z"/>
	<path class="st0" d="m16.9 0.6l0.1-0.6c-0.4 0-0.8 0-1.2 0.1l0.2 0.6c0.3-0.1 0.6-0.1 0.9-0.1z"/>
	<path class="st0" d="m15.7 0.7l-0.2-0.6c-0.9 0.1-1.8 0.2-2.7 0.5l1.4 0.6c0.4-0.3 0.9-0.4 1.5-0.5z"/>
	<path class="st0" d="m13.8 1.4l-1.6-0.7c-0.8 0.2-1.5 0.5-2.2 0.8l3.6 0.1c0-0.1 0.1-0.1 0.2-0.2z"/>
	<path class="st0" d="m20.8 2.1c1.9 0.4 3.8 0.9 5.7 1.8 0.1-0.1 0.1-0.2 0.2-0.4 0.1-0.5-0.4-1.1-0.9-1.5-0.5-0.3-1-0.5-1.5-0.7l-3.6 0.3c0 0.2 0.1 0.3 0.1 0.5z"/>
	<path class="st0" d="m18.6 3.6c0.7 0.8 1.4 1.6 2 2.5 1-0.1 1.8-0.3 2.6-0.5-1.2-0.8-2.5-1.5-3.9-2.1-0.2 0-0.4 0.1-0.7 0.1z"/>
	<path class="st0" d="m17.2 3.7v2.7c1.1 0 2.1-0.1 3-0.3-0.6-0.8-1.3-1.7-2.1-2.5-0.3 0.1-0.6 0.1-0.9 0.1z"/>
	<path class="st0" d="m19.9 3.3c1.4 0.7 2.7 1.4 3.9 2.2 1.2-0.4 2-0.8 2.5-1.2-1.8-0.8-3.7-1.3-5.5-1.7-0.1 0.2-0.5 0.5-0.9 0.7z"/>
	<path class="st0" d="m8 4.4c-0.1-0.2-0.2-0.4-0.3-0.7-0.1-0.4 0-0.8 0.1-1.2-2.8 1.6-5 4-6.3 6.7 0.1 0.1 0.2 0.2 0.3 0.4 1.9-2.2 3.9-3.9 6.2-5.2z"/>
	<path class="st0" d="m3.2 17.7c-1.4-0.8-2.4-1.7-2.9-2.7 0 3.7 1.5 7.1 3.9 9.7-0.9-2.4-1.2-4.7-1-7z"/>
	<path class="st0" d="m13.8 1.9h1.3c0.3-0.5 1.3-0.6 1.9-0.6s1.6 0.1 1.9 0.6h1.5c-0.5-0.5-1.8-0.9-3.4-0.9-0.4 0-0.8 0-1.2 0.1-1 0.2-1.7 0.4-2 0.8z"/>
	<path class="st0" d="m32.8 9v0c0 0.2 0.1 0.3 0.2 0.5 0-0.2-0.1-0.3-0.2-0.5z"/>
	<path class="st0" d="m11 29.1c-1.3-2.8-1.9-5.8-1.6-9.1-2.3-0.5-4.3-1.3-5.9-2.1-0.2 2.3 0.2 4.8 1.2 7.3h-0.1c1.8 1.7 3.9 3 6.4 3.9z"/>
	<path class="st0" d="m3.5 17.4c1.5 0.9 3.5 1.6 5.9 2.1 0.2-1.9 0.6-3.9 1.4-6-2-0.4-3.9-0.9-5.4-1.5-0.8 1.3-1.3 2.7-1.6 4.1-0.2 0.5-0.2 0.9-0.3 1.3z"/>
	<path class="st0" d="m16.9 14.2c-1 0-2-0.1-3-0.2s-1.9-0.2-2.8-0.4c-0.7 2.1-1.2 4.1-1.4 6 0.6 0.1 1.3 0.3 1.9 0.4 1.7 0.3 3.5 0.5 5.2 0.5v-6.3z"/>
	<path class="st0" d="m16.9 6.9h-1.1-1.6c-1.2 2.3-2.2 4.4-3 6.4 0.9 0.1 1.8 0.3 2.7 0.4 1 0.1 2 0.2 3 0.2v-7z"/>
	<path class="st0" d="m16.9 30.1v-9.1c-1.8-0.1-3.6-0.2-5.3-0.5-0.7-0.1-1.3-0.2-1.9-0.4-0.3 3.3 0.3 6.3 1.7 9.2 1.7 0.5 3.6 0.8 5.5 0.8z"/>
	<path class="st0" d="m17 2.6c0.5 0 0.9-0.1 1.2-0.2s0.4-0.2 0.4-0.3v-0.1c-0.1-0.2-0.7-0.5-1.6-0.5s-1.5 0.3-1.6 0.5v0.1c0.1 0.3 0.7 0.5 1.6 0.5z"/>
	<path class="st0" d="m8.3 4.7c-2.4 1.3-4.4 3-6.2 5.1 0.7 0.7 1.8 1.3 3.2 1.8 1.1-1.9 2.7-3.8 4.8-5.6-0.8-0.4-1.4-0.8-1.8-1.3z"/>
	<path class="st0" d="m5.6 11.8c1.5 0.6 3.3 1.1 5.3 1.4 0.7-2 1.7-4.1 2.9-6.4-1.3-0.1-2.4-0.3-3.3-0.7-2.1 1.9-3.8 3.8-4.9 5.7z"/>
	<path class="st0" d="m16.9 3.7c-0.3 0-0.6 0-0.9-0.1-0.6 0.9-1.1 1.8-1.6 2.7h1.4 1.1v-2.6z"/>
	<path class="st0" d="m15.7 3.6c-0.4-0.1-0.9-0.2-1.2-0.3-0.1 0-0.1-0.1-0.2-0.1-1.3 0.9-2.4 1.8-3.4 2.6 0.9 0.3 1.9 0.5 3.2 0.6 0.4-0.9 1-1.8 1.6-2.8z"/>
	<path class="st0" d="m29.5 11.4c-1.5-2.1-3.4-4-5.8-5.6-0.9 0.3-1.8 0.5-2.8 0.6 1.6 2.2 2.7 4.5 3.5 6.8 1.9-0.3 3.6-0.9 5.1-1.8z"/>
	<path class="st0" d="m32.3 9.1c-1.6-2.2-3.6-3.7-5.7-4.7-0.5 0.6-1.3 1-2.4 1.4 2.3 1.6 4.2 3.4 5.6 5.5 1-0.6 1.9-1.4 2.5-2.2z"/>
	<path class="st0" d="m27 3.6c0 0.1-0.1 0.3-0.1 0.4 2.1 1 4.1 2.5 5.7 4.8l0.1-0.1c-1.3-2.5-3.4-4.6-5.9-6.1 0.2 0.3 0.2 0.7 0.2 1z"/>
	<path class="st0" d="m17.2 13.8c2.3 0.1 4.7-0.1 6.9-0.5-0.8-2.3-1.9-4.6-3.5-6.8-1.1 0.2-2.2 0.3-3.3 0.3v7z"/>
	<path class="st0" d="m3.2 17.3c0.1-0.4 0.1-0.8 0.2-1.2 0.3-1.4 0.9-2.7 1.6-4.1-1.4-0.6-2.5-1.2-3.2-1.9-0.4 0.5-0.8 1.1-1.2 1.6-0.2 0.8-0.3 1.7-0.4 2.6 0.5 1.1 1.5 2.1 3 3z"/>
	<path class="st0" d="m20.4 2.4h-1.6c-0.1 0.2-0.3 0.3-0.5 0.4-0.4 0.2-0.8 0.3-1.3 0.3-0.6 0-1.6-0.1-1.9-0.6h-1.4v0.1c0.1 0.1 0.4 0.3 0.8 0.4 0.7 0.3 1.6 0.4 2.5 0.4 1.9-0.1 3.1-0.6 3.4-1z"/>
	<path class="st0" d="m8.3 4.3c1.5-0.8 3.2-1.4 5-1.8v-0.2-0.2l-4.3-0.2c-0.1 0-0.2 0.1-0.4 0.2-0.5 0.5-0.7 1-0.6 1.5 0.1 0.2 0.2 0.5 0.3 0.7z"/>
	<path class="st0" d="m1.4 9.6c-0.1 0.3-0.3 0.7-0.4 1.1l0.6-0.9-0.2-0.2z"/>
	<path class="st0" d="m38.9 22.9c0-4.2-3.7-7.6-10.4-7.6-6.5 0-10.7 3.4-10.7 7.9 0 4.3 3.8 7.7 10.3 7.7 6.4-0.1 10.8-3.1 10.8-8zm-15.9 0.2c0-2.9 2-5.1 5.3-5.1 3.4 0 5.3 2.3 5.3 5 0 2.9-1.9 5.1-5.3 5.1-3.3 0-5.3-2.1-5.3-5z"/>
	<path class="st0" d="m56.8 19.7c0-1.4-0.7-2.4-2-3.2-1.6-0.9-3.8-1.2-7.1-1.2-2.6 0-5 0.1-6.6 0.3v14.9h4.9v-5.9h1.5c2 0 3 0.5 3.6 2.4 0.7 1.9 1.2 3.1 1.5 3.5h5.1c-0.4-0.6-1.1-2.6-1.8-4.3-0.6-1.4-1.4-2.4-2.9-2.8v-0.1c1.8-0.4 3.8-1.7 3.8-3.6zm-8.9 2.5h-2v-4.2c0.4 0 1-0.1 2.2-0.1 2.3 0 3.7 0.7 3.7 2.1 0 1.3-1.4 2.2-3.9 2.2z"/>
	<path class="st0" d="m59.2 15.7v14.8c1.1 0.1 2.9 0.2 5.4 0.2 4.4 0 7-0.5 8.6-1.4 1.4-0.8 2.3-1.8 2.3-3.2 0-1.9-1.9-3.2-4.4-3.7 2.5-0.6 3.6-1.9 3.6-3.2 0-1.4-1.1-2.4-2.6-3-1.6-0.6-3.5-0.9-6.5-0.9-2.4 0-5.1 0.2-6.4 0.4zm11.1 10.3c0 1.6-2 2.2-4.2 2.2h-1.9v-4.3h1.7c2.4 0 4.4 0.6 4.4 2.1zm-0.5-6.4c0 1.1-1.4 1.9-4 1.9h-1.6v-3.5c0.4 0 1-0.1 2.1-0.1 2.2-0.1 3.5 0.5 3.5 1.7z"/>
	<rect y="15.5" x="77.8" height="15.1" class="st0" width="5"/>
	<path class="st0" d="m91.6 28c-2.1 0-4.2-0.5-5.5-0.9l-1 2.8c1.2 0.5 3.7 0.9 6.2 0.9 6 0 8.9-2.2 8.9-4.7 0-2.1-1.8-3.5-5.7-4.5-2.8-0.7-4.1-1.2-4.1-2.1 0-0.8 1-1.5 3.2-1.5s3.7 0.4 4.6 0.7l1.1-2.8c-1.3-0.4-3.1-0.8-5.6-0.8-5.2 0-8.3 2-8.3 4.5 0 2.2 2.4 3.6 6 4.5 2.6 0.6 3.7 1.2 3.7 2.1 0 1.1-1.2 1.8-3.5 1.8z"/>
	<path class="st0" d="m38.4 7.3c1.5 0.4 2.4 0.7 2.8 0.9 0.3 0.1 0.6 0.3 0.8 0.6-0.1 0.1-0.2 0.2-0.4 0.3-0.8 0.5-1.7 0.7-2.7 0.7-0.4 0-0.8-0.1-1.2-0.2l0.3-0.6v-0.3c-0.2 0-0.3 0-0.5 0.1-0.5 0.3-0.7 0.6-0.7 1.1 0 0.1 0 0.3 0.1 0.4 0.3 0.4 0.9 0.6 1.9 0.6 0.4 0 1-0.1 1.5-0.2 2-0.5 3.1-1.2 3.1-2 0-0.6-0.7-1.1-2.2-1.6-1.2-0.4-2.1-0.6-2.6-0.8-0.3-0.1-0.6-0.3-0.7-0.5 0.1-0.2 0.2-0.3 0.3-0.5 0.5-0.4 0.9-0.6 1.3-0.6h1.1 0.1 0.3c0.3 0 0.4-0.1 0.4-0.2v-0.2c-0.3-0.4-0.8-0.5-1.7-0.5h-0.2c-0.5 0-1 0.1-1.5 0.4-1 0.5-1.4 1.1-1.4 1.7v0.1c0 0.4 0.6 0.9 1.8 1.3z"/>
	<path class="st0" d="m43.5 9.2c0.7 1.1 1.5 1.7 2.3 1.7h0.2c0.1 0 0.3 0 0.5-0.1 0.6-0.2 1-0.5 1.3-1 0-0.1 0.1-0.1 0.2-0.2 0 0.1 0 0.3 0.1 0.4 0 0.2 0.1 0.3 0.3 0.4 0.2 0.2 0.4 0.4 0.6 0.4 0.3 0 0.6-0.2 0.9-0.5 0.4-0.6 0.6-0.9 0.7-1v0.3 1.9c0 0.6-0.1 0.8-0.3 1.2-0.2 0.2-0.3 0.4-0.5 0.4-0.3-0.2-0.4-0.3-0.4-0.3-0.4-0.3-0.7-0.6-0.8-0.9 0-0.1-0.1-0.1-0.2-0.1l-0.2-0.2h-0.1c-0.1 0-0.1 0.1-0.1 0.2 0 0.2 0.1 0.3 0.2 0.5 0.3 0.3 0.4 0.6 0.4 0.7v0.1 0.1c0.4 0.4 0.8 0.6 1.3 0.6s1-0.3 1.3-1c0.2-0.3 0.3-0.8 0.3-2.1 0-0.7 0-1.7-0.1-3.1 0 0 0.1-0.1 0.2-0.1 0-0.1 0-0.1-0.1-0.1-0.3-0.3-0.6-0.4-1.1-0.4h-0.1c-0.3 0-0.6 0.1-1 0.2-0.5 0.3-0.9 0.6-1.1 1.1-0.2 0-0.4 0.2-0.7 0.5-0.5 0.8-1 1.1-1.5 1.1-0.3 0-0.6-0.2-0.8-0.5 0.8-0.3 1.2-0.7 1.2-1.3 0-0.1 0-0.3-0.1-0.5-0.3-0.7-0.8-1.1-1.3-1.1-0.3 0-0.6 0.1-0.9 0.3-0.3 0.1-0.5 0.5-0.5 1v0.1l-0.1 1.3zm5.4 0.1c0-0.4 0.1-0.7 0.4-1 0.4-0.3 0.7-0.5 0.9-0.5 0 0 0.1 0 0.1 0.1-0.1 0.2-0.3 0.5-0.6 1-0.2 0.4-0.5 0.7-0.7 0.8v-0.3-0.1zm-4.4-1.7c0-0.1 0.1-0.2 0.2-0.2h0.1c0.3 0.1 0.4 0.3 0.4 0.7 0 0.1 0 0.2-0.1 0.3-0.2 0.2-0.4 0.3-0.5 0.3-0.2-0.1-0.3-0.3-0.3-0.7 0.1-0.2 0.2-0.3 0.2-0.4z"/>
	<path class="st0" d="m52.4 10.8c0.3-0.1 0.5-0.2 0.5-0.2h0.2c0.2-0.1 0.6-0.5 1-1l0.1 0.2c0.3 0.7 0.6 1.1 1 1.1h0.2c0.1 0 0.1-0.1 0.1-0.2v-0.1c0-0.2-0.1-0.3-0.2-0.5-0.2-0.6-0.4-1.4-0.5-2.4-0.1-0.2-0.3-0.3-0.5-0.3h-0.1-0.1c-0.1 0-0.3 0.3-0.5 1-0.2 0.5-0.4 0.8-0.6 0.9v0.1-0.4c0.2-0.6 0.3-0.9 0.3-1.1-0.2-0.2-0.3-0.3-0.4-0.3s-0.2 0.1-0.4 0.2c-0.4 0.5-0.5 1.1-0.5 1.9v0.2 0.2c0 0.5 0.2 0.7 0.4 0.7z"/>
	<path class="st0" d="m56.2 10.6c0.3 0.1 0.4 0.2 0.4 0.4 0.1 0 0.3-0.1 0.6-0.2 0-0.3 0.1-0.8 0.3-1.4 0.4-1 1.1-1.8 2-2.3-0.1-0.1-0.1-0.2-0.2-0.3 0-0.1-0.2-0.2-0.5-0.2s-0.7 0.2-1 0.5c-0.4 0.5-0.8 0.9-1 1.1v-0.2-0.1c-0.1-0.4-0.3-0.7-0.6-0.7s-0.4 0.1-0.5 0.3v0.2c0 0.3 0 0.5 0.1 0.8 0.2 1.2 0.4 1.9 0.4 2.1z"/>
	<path class="st0" d="m60.8 11.1c0.3 0 0.6-0.1 0.9-0.3 0.6-0.5 0.8-1 0.8-1.8v-0.2c0-0.2 0-0.4-0.1-0.6-0.2-0.7-0.6-1-1.1-1-0.4 0-0.7 0.1-0.9 0.2-0.1 0.2-0.2 0.3-0.3 0.3-0.1 0.2-0.3 0.3-0.3 0.3-0.1 0.4-0.2 0.9-0.2 1.3v0.1c0 0.2 0 0.4 0.1 0.6 0.2 0.7 0.6 1.1 1.1 1.1zm-0.2-2.5l0.1-0.1c0.1-0.2 0.3-0.3 0.5-0.3 0.2 0.2 0.3 0.5 0.3 0.8v0.1c0 0.2-0.1 0.4-0.2 0.6s-0.3 0.4-0.5 0.5c-0.2 0-0.3-0.2-0.3-0.6v-0.7l0.1-0.3z"/>
	<path class="st0" d="m64.1 9.2c0.8 0.2 1.3 0.3 1.6 0.5-0.1 0.2-0.4 0.3-0.7 0.3-0.4 0-0.8-0.1-1.4-0.4-0.2 0.2-0.3 0.3-0.3 0.5v0.1c0 0.1 0.1 0.3 0.2 0.4 0 0.2 0.5 0.3 1.4 0.3 0.2 0 0.5 0 0.8-0.1 1-0.2 1.4-0.5 1.4-1.1 0-0.3-0.2-0.6-0.5-0.8s-0.9-0.3-1.7-0.5c-0.5-0.1-0.7-0.3-0.8-0.5 0-0.1 0.4-0.2 1.1-0.3 0.2-0.1 0.4-0.2 0.5-0.3 0 0 0-0.2-0.1-0.3 0-0.2-0.2-0.3-0.6-0.3h-0.1c-0.3 0-0.6 0.1-0.9 0.2-0.7 0.3-1 0.7-1 1.2v0.1c-0.1 0.5 0.3 0.8 1.1 1z"/>
	<path class="st0" d="m34.2 15.9v-0.8-0.2c-0.2 0.3-0.4 0.5-0.6 0.8 0.2 0 0.4 0.1 0.6 0.2z"/>
	<path class="st0" d="m30 11.6c0.7 1.1 1.3 2.3 1.8 3.6 0.5 0.1 1 0.2 1.4 0.4 0.4-0.4 0.7-0.8 0.9-1.2-0.1-1-0.2-2-0.5-3-0.4-0.7-0.7-1.3-1.2-1.9-0.5 0.7-1.4 1.5-2.4 2.1z"/>
	<path class="st0" d="m21.4 29.7c-0.4-0.2-0.8-0.5-1.2-0.8-1.9-1.5-2.9-3.5-2.9-5.8 0-0.8 0.1-1.5 0.3-2.1h-0.5v9.2h0.1c1.5 0 2.9-0.2 4.2-0.5z"/>
	<path class="st0" d="m17.2 20.6h0.6c1-2.6 3.4-4.5 6.7-5.3-0.1-0.5-0.2-1-0.4-1.6-2.2 0.4-4.6 0.6-7 0.5v6.4z"/>
	<path class="st0" d="m28.5 14.8c1.1 0 2.1 0.1 3 0.3-0.5-1.2-1.1-2.3-1.8-3.3-1.5 0.9-3.3 1.5-5.2 1.9 0.2 0.5 0.3 1 0.4 1.6 1.1-0.4 2.3-0.5 3.6-0.5z"/>
	<polygon points="0 36.8 90.4 36.8 91 36.4 0 36.4" class="st0"/>
	<polygon points="91.1 36.8 100.7 36.8 100.7 30.1" class="st0"/>
</svg>
