<?xml version="1.0" encoding="UTF-8" standalone="no"?>
<!-- Generator: Adobe Illustrator 19.1.0, SVG Export Plug-In . SVG Version: 6.00 Build 0)  -->
<svg id="Layer_1" style="enable-background:new 0 0 109.6 34.8" xmlns="http://www.w3.org/2000/svg" xml:space="preserve" viewBox="0 0 109.6 34.8" version="1.1" y="0px" x="0px" xmlns:xlink="http://www.w3.org/1999/xlink">
<style type="text/css">
	.st0{fill:#164476;}
</style>
	<path class="st0" d="m9.5 7.7c-0.3 0.6-0.7 1-1.2 1.4-0.5 0.3-1.1 0.6-1.8 0.7-0.7 0.2-1.4 0.2-2.1 0.2h-0.9c-0.3 0-0.6 0-0.8-0.1v5.1c0 0.1 0 0.2-0.1 0.3s-0.2 0.1-0.3 0.1h-1.9c-0.1 0-0.2 0-0.3-0.1s-0.1-0.2-0.1-0.3v-13.3c0-0.2 0.1-0.3 0.2-0.4s0.3-0.1 0.5-0.2c0.4 0 1-0.1 1.7-0.2s1.3-0.1 2.1-0.1c0.7 0 1.5 0.1 2.1 0.2 0.7 0.1 1.3 0.4 1.8 0.7s0.9 0.8 1.2 1.4c0.2 0.7 0.4 1.4 0.4 2.3v0.2c0 0.8-0.2 1.5-0.5 2.1m-2.2-2.4c0-0.8-0.2-1.4-0.7-1.7s-1.2-0.5-2.2-0.5h-0.4-0.5-0.5-0.4v4.6h0.4 0.5 0.5 0.4c1 0 1.8-0.2 2.2-0.6s0.7-1 0.7-1.7v-0.1z"/>
	<path class="st0" d="m16.7 6.4c-0.1 0.1-0.2 0.1-0.3 0.1-0.5 0-1 0.1-1.4 0.2s-0.8 0.3-1.2 0.5v7.8c0 0.1 0 0.2-0.1 0.3s-0.2 0.1-0.3 0.1h-1.8c-0.1 0-0.2 0-0.3-0.1s-0.1-0.2-0.1-0.3v-10.1c0-0.1 0-0.2 0.1-0.3s0.2-0.1 0.3-0.1h1.7c0.1 0 0.2 0 0.3 0.1s0.1 0.2 0.1 0.3v0.4c0.5-0.4 1-0.6 1.5-0.7s0.9-0.2 1.3-0.2c0.1 0 0.2 0 0.3 0.1s0.1 0.2 0.1 0.3v1.4c-0.1 0.1-0.2 0.1-0.2 0.2"/>
	<path class="st0" d="m26.3 12.7c-0.2 0.6-0.5 1.1-0.9 1.5s-0.9 0.8-1.4 1c-0.6 0.2-1.2 0.4-2 0.4s-1.4-0.1-2-0.4c-0.6-0.2-1.1-0.6-1.4-1-0.4-0.4-0.7-0.9-0.9-1.5s-0.3-1.2-0.3-1.9v-1.6c0-0.7 0.1-1.3 0.3-1.9s0.5-1.1 0.9-1.5 0.9-0.8 1.4-1c0.6-0.2 1.2-0.4 2-0.4s1.4 0.1 2 0.4c0.6 0.2 1.1 0.6 1.4 1 0.4 0.4 0.7 0.9 0.9 1.5s0.3 1.2 0.3 1.9v1.6c0 0.7-0.1 1.3-0.3 1.9m-2.3-3.5c0-0.8-0.2-1.4-0.5-1.9s-0.9-0.7-1.6-0.7-1.2 0.2-1.5 0.7-0.5 1.1-0.5 1.9v1.6c0 0.8 0.2 1.4 0.5 1.9s0.9 0.7 1.5 0.7c0.7 0 1.2-0.2 1.6-0.7 0.3-0.5 0.5-1.1 0.5-1.9v-1.6z"/>
	<path class="st0" d="m36.9 4.8v0.1l-2.4 8.8c-0.1 0.4-0.2 0.7-0.4 0.9l-0.6 0.6c-0.2 0.1-0.4 0.2-0.7 0.3-0.2 0.1-0.5 0.1-0.7 0.1s-0.5 0-0.7-0.1-0.5-0.2-0.7-0.3-0.4-0.3-0.6-0.6c-0.2-0.2-0.3-0.5-0.4-0.9l-2.4-8.8v-0.1c0-0.2 0.1-0.3 0.3-0.3h1.9c0.2 0 0.3 0.1 0.4 0.4l1.9 8.1c0 0.2 0.1 0.3 0.2 0.4s0.1 0.1 0.2 0.1 0.1 0 0.2-0.1 0.1-0.2 0.2-0.4l1.9-8.1c0.1-0.3 0.2-0.4 0.4-0.4h1.9s0.1 0.1 0.1 0.3"/>
	<path class="st0" d="m40.4 2.9c-0.1 0.1-0.2 0.1-0.3 0.1h-1.9c-0.1 0-0.2 0-0.3-0.1s-0.1-0.2-0.1-0.3v-1.6c0-0.1 0-0.2 0.1-0.3s0.2-0.1 0.3-0.1h1.9c0.1 0 0.2 0 0.3 0.1s0.1 0.2 0.1 0.3v1.7c0.1 0.1 0 0.2-0.1 0.2m0 12.4c-0.1 0.1-0.2 0.1-0.3 0.1h-1.8c-0.1 0-0.2 0-0.3-0.1s-0.1-0.2-0.1-0.3v-10.1c0-0.1 0-0.2 0.1-0.3s0.2-0.1 0.3-0.1h1.8c0.1 0 0.2 0 0.3 0.1s0.1 0.2 0.1 0.3v10.1c0 0.1 0 0.2-0.1 0.3"/>
	<path class="st0" d="m51.1 15.3c-0.1 0.1-0.2 0.1-0.3 0.1h-1.8c-0.1 0-0.2 0-0.3-0.1s-0.1-0.2-0.1-0.3v-6.3-1.1c0-0.3-0.1-0.5-0.2-0.7s-0.3-0.3-0.5-0.3c-0.2-0.1-0.5-0.1-0.9-0.1-0.3 0-0.7 0.1-1 0.2-0.4 0.1-0.7 0.3-1.2 0.5v7.8c0 0.1 0 0.2-0.1 0.3s-0.2 0.1-0.3 0.1h-1.8c-0.1 0-0.2 0-0.3-0.1s-0.1-0.2-0.1-0.3v-10.1c0-0.1 0-0.2 0.1-0.3s0.2-0.1 0.3-0.1h1.7c0.1 0 0.2 0 0.3 0.1s0.1 0.2 0.1 0.3v0.4c0.3-0.2 0.6-0.3 0.8-0.4s0.5-0.2 0.7-0.3 0.5-0.1 0.8-0.2h0.9c0.7 0 1.3 0.1 1.7 0.3s0.8 0.5 1 0.9c0.3 0.4 0.4 0.9 0.5 1.4s0.1 1.1 0.1 1.7v6.3c0.1 0.1 0 0.2-0.1 0.3"/>
	<path class="st0" d="m59.9 15.2c0 0.1-0.2 0.1-0.3 0.2-0.2 0.1-0.5 0.1-1 0.2-0.4 0.1-0.9 0.1-1.5 0.1s-1.2-0.1-1.7-0.3-1-0.5-1.4-0.9-0.7-0.9-0.9-1.5-0.3-1.3-0.3-2.1v-1.8c0-0.8 0.1-1.5 0.3-2.1s0.5-1.1 0.9-1.5 0.9-0.7 1.4-0.9 1.1-0.3 1.7-0.3 1.1 0 1.5 0.1 0.7 0.1 1 0.2c0.2 0 0.3 0.1 0.3 0.2 0.1 0.1 0.1 0.2 0.1 0.3v1.3c0 0.1 0 0.2-0.1 0.2s-0.1 0.1-0.2 0.1h-0.1c-0.2 0-0.4 0-0.5-0.1h-0.5-0.6-0.8c-0.2 0-0.5 0-0.7 0.1s-0.4 0.2-0.6 0.4-0.3 0.4-0.4 0.8c-0.1 0.3-0.2 0.7-0.2 1.2v1.8c0 0.5 0.1 0.9 0.2 1.2s0.3 0.6 0.4 0.8c0.2 0.2 0.4 0.3 0.6 0.4s0.4 0.1 0.7 0.1h0.8 0.6 0.5c0.2 0 0.4 0 0.5-0.1h0.1c0.1 0 0.2 0 0.2 0.1 0.1 0 0.1 0.1 0.1 0.2v1.3c-0.1 0.1-0.1 0.2-0.1 0.3"/>
	<path class="st0" d="m63.8 2.9c-0.1 0.1-0.2 0.1-0.3 0.1h-1.9c-0.1 0-0.2 0-0.3-0.1s-0.1-0.2-0.1-0.3v-1.6c0-0.1 0-0.2 0.1-0.3s0.2-0.1 0.3-0.1h1.9c0.1 0 0.2 0 0.3 0.1s0.2 0.2 0.2 0.3v1.7c0 0.1-0.1 0.2-0.2 0.2m0 12.4c-0.1 0.1-0.2 0.1-0.3 0.1h-1.8c-0.1 0-0.2 0-0.3-0.1s-0.1-0.2-0.1-0.3v-10.1c0-0.1 0-0.2 0.1-0.3s0.2-0.1 0.3-0.1h1.8c0.1 0 0.2 0 0.3 0.1s0.1 0.2 0.1 0.3v10.1c0 0.1 0 0.2-0.1 0.3"/>
	<path class="st0" d="m73.7 15.3c-0.1 0.1-0.2 0.1-0.3 0.1h-1.6c-0.1 0-0.2 0-0.3-0.1s-0.1-0.2-0.1-0.3v-0.3c-0.5 0.3-0.9 0.5-1.4 0.6s-0.9 0.2-1.4 0.2c-0.4 0-0.8 0-1.2-0.1s-0.8-0.3-1.1-0.5-0.6-0.6-0.8-1-0.3-1-0.3-1.6v-0.1c0-1.1 0.4-1.9 1.1-2.5s1.9-0.8 3.6-0.8h1.2v-0.8c0-0.6-0.1-1.1-0.4-1.3s-0.7-0.3-1.3-0.3-1.2 0-1.8 0.1c-0.6 0-1 0.1-1.4 0.1h-0.1c-0.1 0-0.2 0-0.3-0.1-0.1 0-0.1-0.1-0.1-0.3v-1.2c0-0.2 0.1-0.4 0.4-0.4 0.4-0.1 0.9-0.1 1.4-0.2s1.2-0.1 1.8-0.1c1.4 0 2.4 0.3 3.2 0.9 0.7 0.6 1.1 1.5 1.1 2.8v7c0.2 0 0.2 0.1 0.1 0.2m-2.5-4.7h-1.2c-0.4 0-0.8 0-1.1 0.1s-0.5 0.2-0.7 0.3-0.3 0.3-0.3 0.5c-0.1 0.2-0.1 0.4-0.1 0.7v0.1c0 0.5 0.1 0.8 0.3 1s0.6 0.2 1.1 0.2c0.4 0 0.7 0 1-0.2 0.3-0.1 0.7-0.2 0.9-0.4v-2.3z"/>
		<path class="st0" d="m97.7 13.7h1.3c2 0 3.5-1.6 3.5-3.6s-1.6-3.5-3.5-3.5h-1.3c-0.4 0-0.8 0.3-0.8 0.8v5.5c0 0.4 0.3 0.8 0.8 0.8z"/>
		<path class="st0" d="m109.5 13.1s-0.1 0-0.1 0.1c-3.2 7.7-11.9 6.5-11.9 6.5-0.4 0-0.6 0.1-0.6 0.5v5.8c0 0.4-0.2 0.4-0.5 0.5-5.6 0.2-7.1-3.6-7.1-6.1v-1.3-15.1c0-0.3 0.3-0.5 0.5-0.5h3c0.9 0 1.1-0.1 1.6-0.5l2.4-2.7c0.2-0.3-0.2-0.3-0.2-0.3h-13.3c-1.8 0-2.2 1.3-2.2 2v18.1c0 1.9-0.1 13.4 13.1 13.4h12.6c2 0 2.7-1.4 2.7-2.5v-17.8c0.1 0 0.1-0.1 0-0.1z"/>
		<path class="st0" d="m28.1 26.8c-0.2-0.3-0.5-0.5-0.9-0.7-0.3-0.2-0.7-0.5-1.1-0.7l-1-0.6-0.9-0.6c-0.2-0.2-0.4-0.3-0.6-0.5-0.1-0.2-0.3-0.3-0.3-0.5-0.1-0.2-0.1-0.3-0.1-0.5 0-0.6 0.2-0.9 0.5-1.1 0.4-0.2 1-0.4 2-0.4h0.6c0.2 0 0.4 0 0.6 0.1 0.2 0 0.4 0 0.6 0.1h0.4c0.1 0 0.3 0 0.4-0.1s0.2-0.3 0.2-0.4v-0.2c0-0.3-0.3-0.5-0.5-0.5-0.3 0-0.7-0.1-1.1-0.1s-0.8-0.1-1.2-0.1c-0.5 0-0.9 0-1.3 0.1s-0.9 0.2-1.2 0.4c-0.4 0.2-0.7 0.5-0.9 0.8-0.2 0.4-0.3 0.8-0.3 1.4 0 0.4 0.1 0.7 0.2 1s0.3 0.6 0.5 0.8 0.5 0.5 0.8 0.7 0.6 0.4 1 0.6l0.9 0.6c0.4 0.3 0.8 0.5 1.1 0.7s0.5 0.4 0.7 0.5c0.2 0.2 0.3 0.3 0.3 0.5 0.1 0.2 0.1 0.4 0.1 0.6 0 0.3 0 0.5-0.1 0.8-0.1 0.2-0.2 0.4-0.4 0.6s-0.4 0.3-0.7 0.4-0.8 0.2-1.3 0.2c-0.4 0-0.8 0-1.1-0.1-0.4 0-0.7-0.1-1.1-0.1h-0.1c-0.1 0-0.2 0-0.3 0.1-0.2 0.1-0.3 0.3-0.3 0.4v0.2c0 0.1 0.1 0.3 0.2 0.4s0.2 0.1 0.3 0.1c0.3 0 0.7 0.1 1 0.1 0.4 0 0.8 0.1 1.3 0.1 0.7 0 1.4-0.1 1.9-0.3s0.9-0.4 1.2-0.7 0.5-0.7 0.6-1c0.1-0.4 0.1-0.7 0.1-1.1s-0.1-0.7-0.2-1.1c0-0.3-0.2-0.6-0.5-0.9z"/>
		<path class="st0" d="m36.1 24.2c-0.3-0.4-0.6-0.6-1-0.8s-0.9-0.3-1.5-0.3c-0.5 0-1 0.1-1.4 0.3s-0.8 0.5-1.1 0.8c-0.3 0.4-0.5 0.8-0.6 1.2-0.1 0.5-0.2 1-0.2 1.5v1c0 0.7 0.1 1.4 0.3 1.9s0.5 0.9 0.8 1.2 0.7 0.5 1.2 0.6c0.4 0.1 0.9 0.2 1.4 0.2 0.4 0 0.7 0 1.1-0.1 0.4 0 0.8-0.1 1.2-0.2 0.1 0 0.3-0.1 0.4-0.2s0.1-0.3 0.1-0.4v0.1c0-0.1 0-0.3-0.2-0.4-0.1-0.1-0.2-0.1-0.3-0.1h-0.1c-0.4 0.1-0.7 0.1-1.1 0.2-0.4 0-0.7 0.1-1 0.1-0.4 0-0.7 0-1-0.1s-0.5-0.2-0.7-0.4-0.4-0.5-0.5-0.8-0.2-0.8-0.2-1.4h4.8c0.2 0 0.3-0.1 0.4-0.2l-0.2-0.2 0.2 0.2c0.1-0.1 0.2-0.3 0.2-0.4v-0.4c0-0.6-0.1-1.1-0.2-1.5-0.3-0.7-0.5-1.1-0.8-1.4zm-4.6 2.5c0-0.3 0.1-0.6 0.1-0.9 0.1-0.3 0.2-0.6 0.4-0.8s0.4-0.4 0.6-0.5 0.6-0.2 0.9-0.2c0.8 0 1.3 0.2 1.6 0.6s0.4 1 0.5 1.8h-4.1z"/>
		<path class="st0" d="m44.8 23.2h-3.1c-0.7 0-1.2 0.1-1.7 0.2-0.4 0.2-0.8 0.4-1.1 0.7s-0.4 0.6-0.5 0.9-0.1 0.6-0.1 1v0.1c0 0.4 0.1 0.8 0.2 1.2 0.1 0.2 0.2 0.4 0.4 0.6l-0.3 0.3c-0.1 0.2-0.2 0.4-0.2 0.7s0.1 0.6 0.2 0.8c0.1 0.1 0.2 0.3 0.4 0.3-0.2 0.2-0.3 0.3-0.4 0.5s-0.2 0.4-0.3 0.7-0.1 0.5-0.1 0.8v0.1c0 0.4 0.1 0.7 0.2 1.1 0.1 0.3 0.4 0.6 0.6 0.9 0.3 0.2 0.7 0.4 1.1 0.5s1 0.2 1.6 0.2 1.1-0.1 1.6-0.2c0.4-0.1 0.8-0.3 1.1-0.5s0.5-0.5 0.6-0.9c0.1-0.3 0.2-0.7 0.2-1v-0.2c0-0.3-0.1-0.6-0.2-0.9s-0.3-0.5-0.5-0.6c-0.2-0.2-0.5-0.3-0.8-0.4s-0.7-0.2-1.1-0.3l-2.7-0.8c-0.1 0-0.2-0.1-0.2-0.1v-0.1c0-0.1 0-0.1 0.1-0.2 0 0 0.1-0.1 0.2-0.1 0.3 0.1 0.5 0.2 0.8 0.2 0.3 0.1 0.7 0.1 1.1 0.1 0.6 0 1.1-0.1 1.6-0.2 0.4-0.1 0.8-0.3 1.1-0.6s0.5-0.6 0.6-0.9 0.2-0.7 0.2-1.1c0-0.3 0-0.6-0.1-0.8s-0.1-0.4-0.2-0.6c0-0.1-0.1-0.1-0.1-0.2h0.1c0.1 0 0.3 0 0.4-0.1l-0.5-0.3 0.2 0.2c0.1-0.1 0.2-0.3 0.2-0.4v-0.2c0-0.1-0.1-0.3-0.2-0.4-0.1 0-0.3-0.1-0.4 0zm-5 7.8l0.6-0.6 1.9 0.5c0.4 0.1 0.7 0.2 0.9 0.3s0.4 0.2 0.5 0.2l0.2 0.2c0 0.1 0.1 0.2 0.1 0.4v0.1c0 0.3 0 0.5-0.1 0.7s-0.2 0.3-0.3 0.4-0.4 0.2-0.7 0.3-0.7 0.1-1.2 0.1-0.8 0-1.1-0.1-0.5-0.2-0.7-0.3-0.3-0.3-0.3-0.4c-0.1-0.2-0.1-0.4-0.1-0.6v-0.2c0-0.4 0.1-0.8 0.3-1zm4.1-4.9c0 0.2 0 0.4-0.1 0.6s-0.2 0.3-0.3 0.5c-0.1 0.1-0.4 0.3-0.6 0.3-0.3 0.1-0.6 0.1-1.1 0.1s-0.9-0.1-1.1-0.2c-0.3-0.1-0.5-0.3-0.6-0.4-0.1-0.2-0.2-0.3-0.3-0.5s-0.1-0.4-0.1-0.5c0-0.2 0-0.4 0.1-0.6 0-0.2 0.1-0.3 0.3-0.5 0.1-0.1 0.3-0.3 0.6-0.4s0.7-0.2 1.2-0.2 0.8 0.1 1.1 0.1c0.3 0.1 0.5 0.2 0.6 0.3 0.2 0.1 0.3 0.3 0.3 0.5 0.1 0.2 0.1 0.4 0.1 0.7v0.2z"/>
		<path class="st0" d="m52.5 23.1c-0.2 0-0.4 0.1-0.5 0.2s-0.2 0.3-0.2 0.4v6.5c-0.3 0.1-0.6 0.2-1 0.3s-0.8 0.2-1.1 0.2-0.5 0-0.7-0.1-0.4-0.2-0.5-0.3-0.3-0.3-0.4-0.6c-0.1-0.2-0.1-0.6-0.1-1v-5c0-0.1-0.1-0.3-0.2-0.4s-0.3-0.2-0.4-0.2h-0.1c-0.1 0-0.3 0.1-0.4 0.2s-0.2 0.3-0.2 0.4v5c0 0.5 0.1 1 0.2 1.4 0.2 0.4 0.4 0.7 0.6 1 0.3 0.3 0.6 0.5 1 0.6s0.7 0.2 1.1 0.2 0.8-0.1 1.3-0.2c0.3-0.1 0.6-0.2 0.9-0.3 0 0.1 0.1 0.1 0.1 0.2 0.1 0.1 0.3 0.2 0.4 0.2h0.1c0.2 0 0.3-0.1 0.4-0.2l-0.2-0.2 0.2 0.2c0.1-0.1 0.1-0.3 0.1-0.4v-7.5c0-0.2-0.1-0.3-0.2-0.4 0.2-0.1 0-0.2-0.2-0.2z"/>
		<path class="st0" d="m58.4 23.1c-0.1 0-0.3-0.1-0.4-0.1-0.4 0-0.8 0.1-1.1 0.2-0.2 0.1-0.5 0.2-0.7 0.3 0-0.1-0.1-0.1-0.1-0.2-0.1-0.1-0.3-0.2-0.4-0.2h-0.1c-0.2 0-0.3 0.1-0.4 0.2s-0.1 0.3-0.1 0.4v7.5c0 0.1 0.1 0.3 0.2 0.4s0.3 0.2 0.4 0.2h0.1c0.1 0 0.3-0.1 0.4-0.2s0.2-0.3 0.2-0.4v-6.4c0.4-0.2 0.7-0.4 0.9-0.4 0.3-0.1 0.6-0.1 0.8-0.1 0.1 0 0.3 0 0.4-0.1l-0.1-0.3 0.1 0.3c0.2-0.1 0.3-0.3 0.3-0.5v-0.1c-0.1-0.2-0.2-0.4-0.4-0.5z"/>
		<path class="st0" d="m65.6 24.1c-0.6-0.7-1.5-1.1-2.6-1-1.1 0-2 0.3-2.5 1-0.6 0.7-0.8 1.7-0.8 2.8v1.1c0 1.2 0.3 2.1 0.8 2.8 0.6 0.7 1.5 1.1 2.5 1 1.1 0 2-0.3 2.5-1 0.6-0.7 0.8-1.7 0.8-2.8v-1c0.2-1.2-0.1-2.2-0.7-2.9zm-0.4 3.9c0 0.9-0.2 1.6-0.5 2s-0.8 0.7-1.6 0.7-1.3-0.2-1.6-0.7-0.5-1.1-0.5-2v-1c0-0.9 0.2-1.6 0.5-2s0.8-0.7 1.6-0.7 1.3 0.2 1.6 0.7 0.5 1.1 0.5 2v1z"/>
		<path class="st0" d="m72.9 28.1c-0.2-0.2-0.4-0.4-0.7-0.5-0.2-0.2-0.5-0.3-0.8-0.5l-1-0.6c-0.4-0.3-0.8-0.5-1-0.7s-0.3-0.4-0.3-0.6 0-0.4 0.1-0.5 0.1-0.2 0.2-0.3 0.3-0.1 0.4-0.1h0.6c0.4 0 0.8 0 1.2 0.1 0.4 0 0.7 0.1 0.9 0.1h0.1c0.1 0 0.3 0 0.4-0.1 0.2-0.1 0.2-0.3 0.2-0.4v-0.1c0-0.3-0.3-0.5-0.6-0.5s-0.6-0.1-0.9-0.1h-1.3c-0.3 0-0.6 0-0.9 0.1s-0.6 0.2-0.8 0.4c-0.3 0.2-0.5 0.4-0.6 0.7-0.2 0.3-0.2 0.6-0.2 1 0 0.3 0 0.5 0.1 0.8 0.1 0.2 0.2 0.4 0.4 0.6s0.4 0.4 0.6 0.5c0.2 0.2 0.5 0.3 0.8 0.5l1 0.5c0.3 0.2 0.6 0.3 0.8 0.4s0.3 0.2 0.4 0.3 0.2 0.2 0.2 0.3v0.3c0 0.3 0 0.5-0.1 0.6s-0.2 0.3-0.3 0.4-0.3 0.2-0.5 0.2-0.4 0.1-0.7 0.1-0.6 0-1-0.1c-0.4 0-0.8-0.1-1.1-0.2h-0.1c-0.1 0-0.3 0-0.4 0.1s-0.2 0.3-0.2 0.4v0.2c0 0.4 0.3 0.5 0.6 0.5 0.2 0 0.3 0.1 0.5 0.1s0.4 0 0.6 0.1h0.6 0.6c0.4 0 0.7 0 1.1-0.1 0.3-0.1 0.7-0.2 0.9-0.4 0.3-0.2 0.5-0.4 0.7-0.8 0.2-0.3 0.2-0.7 0.2-1.1 0-0.3 0-0.5-0.1-0.8-0.3-0.4-0.4-0.6-0.6-0.8z"/>
</svg>
