<?xml version="1.0" encoding="UTF-8" standalone="no"?>
<!-- Generator: Adobe Illustrator 19.1.0, SVG Export Plug-In . SVG Version: 6.00 Build 0)  -->
<svg id="Layer_1" style="enable-background:new 0 0 163.3 46" xmlns="http://www.w3.org/2000/svg" xml:space="preserve" viewBox="0 0 163.3 46" version="1.1" y="0px" x="0px" xmlns:xlink="http://www.w3.org/1999/xlink">
<style type="text/css">
	.st0{fill:#0047BA;}
	.st1{fill:#908C89;}
</style>
	<path class="st0" d="m116.9 13.2c-3.3 1.8-5.6 5.2-5.7 9.1-0.2 6 4.4 11.1 10.4 11.3 1.1 0 2.2-0.1 3.2-0.3l0.3-0.1c-0.4 0-0.9 0.1-1.3 0-4.6-0.2-8.3-3.8-8.1-8 0.1-2.7 1.8-5 4.1-6.3h0.1c1-0.5 1.7-1.6 1.8-2.8 0.1-1.8-1.3-3.3-3.1-3.4-0.7 0.1-1.2 0.2-1.7 0.5"/>
	<path class="st1" d="m126.9 32.7c3.3-1.7 5.7-5 5.9-9 0.4-6-4.2-11.2-10.2-11.5-1.1-0.1-2.2 0-3.2 0.3l-0.3 0.1h1.3c4.6 0.3 8.2 4 7.9 8.2-0.2 2.7-1.9 5-4.2 6.2h-0.1c-1 0.5-1.8 1.5-1.8 2.7-0.1 1.8 1.2 3.3 3 3.4 0.6 0 1.2-0.1 1.7-0.4"/>
	<path class="st0" d="m162.8 23.9h-16.3c-4.4 0-4.9-2.4-5-2.7-1.1-7.4-6.4-13.8-14-16.1-2-0.6-4-0.9-6-0.8 0 0-0.7 0-0.9-0.1-1.1-0.3-1.9-1.5-1.5-2.6 0.3-0.9 1.1-1.6 2.1-1.6h0.4c2.6 0 5 0.2 7.5 0.9 8.6 2.6 14.5 10 15.5 18.4l0.1 0.5c0.3 0.9 1.3 0.8 1.3 0.8l17 2.2s0.4 0.1 0.5 0.5c-0.2 0.1-0.1 0.5-0.7 0.6z"/>
	<path class="st1" d="m82.1 22h16.3c4.4 0 4.9 2.4 5 2.7 1.1 7.4 6.4 13.8 14 16.1 2 0.6 4.1 0.9 6 0.8 0 0 0.7 0 0.9 0.1 1.1 0.3 1.9 1.5 1.5 2.6-0.3 0.9-1.1 1.6-2.1 1.6h-0.4c-2.6 0-5-0.2-7.5-0.9-8.6-2.6-14.5-10-15.5-18.4l-0.1-0.5c-0.3-0.9-1.3-0.8-1.3-0.8l-17-2.2s-0.4-0.1-0.5-0.5c0.1 0 0-0.5 0.7-0.6z"/>
		<path class="st0" d="m0.2 6c0-2.2 0-3.7-0.2-5.5 0.4 0 1 0.1 1.6 0.1 0.9 0 1.9-0.1 2.9-0.1 1.8 0 2.8 0.3 3.4 0.8 0.8 0.7 1.2 1.5 1.2 2.7 0 3-2.1 4.2-5.1 4.2h-1c0 2 0 3.9 0.2 5.9-0.4 0-1-0.1-1.6-0.1s-1.2 0-1.6 0.1c0.1-1.7 0.2-3.2 0.2-5.5v-2.6zm3.7-4.4h-0.8v5.5c1.3 0 3-0.4 3-2.9-0.1-1.9-1-2.6-2.2-2.6z"/>
		<path class="st0" d="m14.4 7.8h-0.2v0.8c0 2.2 0 3.7 0.2 5.5-0.4 0-1-0.1-1.6-0.1s-1.2 0.1-1.6 0.1c0.1-1.7 0.2-3.2 0.2-5.5v-2.6c0-2.2 0-3.7-0.2-5.5 0.4 0 1 0.1 1.6 0.1 0.7 0 1.6-0.1 2.9-0.1 2 0 2.7 0.2 3.4 0.7 0.8 0.6 1.3 1.4 1.3 2.6 0 1.9-1.1 3.1-3.1 3.6 1.3 2.2 2.8 4.5 4.2 6.7-0.6 0-1.2-0.1-1.8-0.1s-1.2 0.1-1.8 0.1l-3.5-6.3zm-0.1-6.2c0 1.8-0.1 3.6-0.1 5.4h0.4c1.7 0 2.7-1 2.7-2.8 0-2.3-0.9-2.6-3-2.6z"/>
		<path class="st0" d="m23.3 9.2v-4.6c0-2.1 0-3.4-0.1-4.1 0.5 0.1 1.1 0.1 1.6 0.1s1.1 0 1.6-0.1c-0.3 2.6-0.3 4.6-0.3 6.9 0 4.8 1.4 5.6 3.9 5.6 3.1 0 3.4-3.4 3.4-7.1 0-1.8-0.1-3.6-0.2-5.4 0.3 0.1 0.7 0.1 1 0.1s0.7 0 1-0.1c-0.1 1.2-0.3 4-0.3 7.4 0 4.6-2 6.5-5.8 6.5-3.2-0.1-5.8-1.5-5.8-5.2z"/>
		<path class="st0" d="m38.6 6c0-2.2 0-3.7-0.2-5.5 0.4 0 1 0.1 1.6 0.1 0.9 0 1.8-0.1 3.6-0.1 4.5 0 7.6 1.4 7.6 6.4 0 4.3-3.1 7.2-6.8 7.2-2 0-3.3-0.1-4.3-0.1-0.7 0-1.2 0.1-1.6 0.1 0.1-1.7 0.2-3.2 0.2-5.5v-2.6zm2.9 3.1v3.8c0.4 0 0.9 0.1 1.7 0.1 3 0 4.8-2 4.8-6.1 0-3.2-1.8-5.2-4.5-5.2-0.9 0-1.4 0-2 0.1v3.8 3.5z"/>
		<path class="st0" d="m53.7 6c0-2.2 0-3.7-0.2-5.5 1.2 0 2.3 0.1 3.5 0.1 1.9 0 3.6 0 4.1-0.1 0 0.2-0.1 0.5-0.1 0.8 0 0.4 0 0.6 0.1 0.9-1.4-0.1-3.8-0.2-4.3-0.2-0.1 1.4-0.1 2.9-0.1 4.3 1.7 0 3-0.1 4.5-0.2-0.2 0.5-0.2 0.6-0.2 0.9 0 0.2 0 0.4 0.1 0.8-1.5-0.1-3-0.2-4.5-0.2v2.5c0 0.8 0 1.7 0.1 2.5 1.5 0 3-0.1 4.5-0.3 0 0.3-0.1 0.5-0.1 0.9s0 0.6 0.1 0.8c-0.7 0-1.6-0.1-3.4-0.1-3.2 0-3.7 0.1-4.2 0.1 0.1-1.7 0.2-3.2 0.2-5.5v-2.5z"/>
		<path class="st0" d="m63.8 0.5c0.3 0.1 0.6 0.1 0.9 0.1s0.6 0 0.9-0.1c2.8 3.1 5.6 6.2 8.5 9.4 0-3.1 0-8.5-0.1-9.4 0.3 0.1 0.6 0.1 0.9 0.1s0.6 0 0.9-0.1c-0.3 5.7-0.3 8.3-0.3 13.6-0.3-0.1-0.6-0.1-0.8-0.1-0.3 0-0.5 0-0.8 0.1-2.7-3.2-5.6-6.4-8.6-9.6v4.6c0 3.1 0.1 4.2 0.1 5-0.3-0.1-0.7-0.1-0.9-0.1-0.3 0-0.6 0-0.9 0.1 0.1-0.6 0.4-5.6 0.4-9.7-0.1-1.8-0.1-3-0.2-3.9z"/>
		<path class="st0" d="m89.7 11.8c-0.2 0.5-0.4 1.1-0.4 1.7-1 0.5-2.4 0.9-4 0.9-4.6 0-7.3-2.9-7.3-6.6 0-5.4 3.7-7.5 7.8-7.5 1.4 0 3.1 0.4 4 1-0.3 0.7-0.4 1.3-0.5 2h-0.3c-1-1.2-2-1.8-3.4-1.8-2.1 0-4.5 1.8-4.5 6 0 4.1 2.4 5.6 4.7 5.6 1.3 0 2.7-0.6 3.6-1.5l0.3 0.2z"/>
		<path class="st0" d="m92.3 6c0-2.2 0-3.7-0.2-5.5 0.4 0 1 0.1 1.6 0.1s1.2-0.1 1.6-0.1c-0.1 1.7-0.2 3.2-0.2 5.5v2.7c0 2.2 0 3.7 0.2 5.5-0.4 0-1-0.1-1.6-0.1-0.7 0-1.2 0.1-1.6 0.1 0.1-1.7 0.2-3.2 0.2-5.5v-2.7z"/>
		<path class="st0" d="m109.9 14.1c-0.6 0-1.2-0.1-1.7-0.1s-1.1 0.1-1.7 0.1c-0.4-1.3-0.9-2.7-1.4-4h-2.5-2c-0.5 1.3-1 2.7-1.3 4-0.3 0-0.6-0.1-0.9-0.1s-0.6 0.1-1 0.1c1-2.2 3.9-9.2 5.6-13.7 0.3 0 0.5 0.1 0.7 0.1 0.3 0 0.5-0.1 0.8-0.1 1.6 4.5 3.9 10.5 5.4 13.7zm-5.3-5.2c-0.6-1.6-1.1-3.1-1.8-4.7-0.7 1.5-1.3 3.1-1.9 4.7h3.7z"/>
		<path class="st1" d="m0.8 28.3c0.4 0.8 1.2 1.8 2.7 1.8 1.6 0 2.5-1.1 2.5-2.5 0-3.1-5.4-1.8-5.4-5.8 0-1.9 1.4-3.2 3.7-3.2 1.1 0 1.8 0.3 2.5 0.8-0.2 0.4-0.3 0.8-0.5 1.4h-0.1c-0.2-0.6-0.8-1.6-2-1.6-1.3 0-2.2 0.9-2.2 2.1 0 3.2 5.4 1.9 5.4 5.6 0 2.1-1.6 3.8-4.2 3.8-1.4 0-2.2-0.5-2.8-1 0.2-0.5 0.3-0.9 0.3-1.5h0.1z"/>
		<path class="st1" d="m12.6 22.3c2.4 0 3.5 1.6 3.5 3.5v0.7c-1.2 0-2.4-0.1-3.7-0.1-0.7 0-1.5 0-2.2 0.1v0.5c0 1.8 1.1 3.2 3 3.2 0.9 0 2-0.5 2.6-1.2h0.1l-0.1 0.8c-0.7 0.5-1.8 1-2.8 1-2.5 0-4.1-1.7-4.1-4-0.2-2.8 1.2-4.5 3.7-4.5zm-2.4 3.5h2.2 2.3c0-1.2-0.3-3-2.1-3-1.6 0-2.3 1.7-2.4 3z"/>
		<path class="st1" d="m20.7 22.3c0.4 0 0.8 0 1.4 0.1 0.5 0 1 0.1 1.2 0.1 0.7 0 1.2 0 1.4-0.1v0.4 0.4c-0.6-0.1-1.3-0.1-1.9-0.1 0.7 0.4 1.2 1.3 1.2 2.1 0 1.7-1.2 2.7-3.2 2.7h-0.9c-0.4 0-0.8 0.3-0.8 0.8 0 0.6 0.2 0.9 1 0.9 0.6 0 1.2 0 1.9 0.1 2.1 0 2.9 1 2.9 2.2 0 1.6-1.2 3.5-4 3.5-2.2 0-3.6-0.9-3.6-2.5 0-1.2 0.9-2 1.8-2.3-0.7-0.2-1.1-0.7-1.1-1.4s0.7-1.3 1.2-1.4c-1-0.5-1.7-1.3-1.7-2.5 0-2.1 1.5-3 3.2-3zm0.3 8.2c-1.7 0-2.7 0.5-2.7 2s1.1 2.1 2.5 2.1 2.7-0.7 2.7-2.2c0-1.3-0.7-1.9-2.5-1.9zm-0.2-7.7c-1.2 0-1.9 0.9-1.9 2.3s0.6 2.3 1.9 2.3 1.9-1.1 1.9-2.4c-0.1-1.4-0.8-2.2-1.9-2.2z"/>
		<path class="st1" d="m26.5 25.2v-2.7c0.2 0.1 0.5 0.1 0.7 0.1s0.5 0 0.7-0.1c-0.1 1.3-0.2 3.1-0.2 4.7 0 1.2 0.2 1.7 0.5 2.1s0.8 0.6 1.5 0.6c1 0 1.6-0.5 1.9-1.1 0.3-0.7 0.4-0.9 0.4-3.6v-2.8c0.2 0.1 0.5 0.1 0.7 0.1 0.3 0 0.5 0 0.7-0.1-0.1 1.8-0.1 3.4-0.1 5.2 0 1 0 2 0.1 3-0.2 0-0.4-0.1-0.7-0.1-0.2 0-0.4 0-0.7 0.1v-1.5c-0.6 1.1-1.6 1.6-2.7 1.6-1.8 0-2.9-1-2.9-2.8 0.1-1.1 0.1-1.9 0.1-2.7z"/>
		<path class="st1" d="m39.9 23.8c-0.1-0.1-0.5-0.3-0.8-0.3-1.1 0-1.7 1-1.7 2.4 0 3 0 3.9 0.1 4.7-0.2 0-0.5-0.1-0.7-0.1s-0.5 0-0.7 0.1c0.1-0.8 0.1-2.2 0.1-4.1v-0.5c0-0.9 0-2.1-0.1-3.5 0.3 0.1 0.5 0.1 0.7 0.1s0.5 0 0.7-0.1c-0.1 0.8-0.1 1.2-0.1 1.7 0.6-1.2 1.5-1.8 2.3-1.8 0.2 0 0.3 0 0.5 0.1-0.2 0.1-0.2 0.8-0.2 1.3h-0.1z"/>
		<path class="st1" d="m45.1 22.3c2 0 4.1 1.1 4.1 4.2s-2.2 4.2-4.1 4.2c-2 0-4.1-1.1-4.1-4.2-0.1-3.1 2.1-4.2 4.1-4.2zm0 7.9c2 0 2.6-1.8 2.6-3.7s-0.6-3.7-2.6-3.7-2.6 1.8-2.6 3.7c-0.1 1.9 0.6 3.7 2.6 3.7z"/>
		<path class="st1" d="m51 29c0.2 0.5 1 1.2 1.9 1.2s1.7-0.5 1.7-1.5c0-2.1-4-0.9-4-3.8 0-1.5 1-2.6 2.8-2.6 0.8 0 1.4 0.3 1.9 0.5-0.2 0.3-0.4 1-0.4 1.2h-0.2c-0.2-0.5-0.7-1.1-1.5-1.1-0.7 0-1.4 0.4-1.4 1.4 0 2.2 4 0.9 4 3.7 0 1.3-1.2 2.7-3.1 2.7-1 0-1.7-0.3-2.2-0.6 0.1-0.3 0.3-0.9 0.3-1.2h0.2z"/>
</svg>
