<?xml version="1.0" encoding="UTF-8" standalone="no"?>
<!-- Generator: Adobe Illustrator 19.1.0, SVG Export Plug-In . SVG Version: 6.00 Build 0)  -->
<svg id="Layer_1" style="enable-background:new 0 0 73.4 37.9" xmlns="http://www.w3.org/2000/svg" xml:space="preserve" viewBox="0 0 73.4 37.9" version="1.1" y="0px" x="0px" xmlns:xlink="http://www.w3.org/1999/xlink">
<style type="text/css">
	.st0{fill:#5D2E80;}
	.st1{fill:#CB1584;}
</style>
	<path class="st0" d="m38.8 28.2l2.1-4.9 2.1 4.9h-4.2zm3.5-11.2c0-0.1-0.2-0.2-0.3-0.2h-2.6c-0.1 0-0.2 0.1-0.3 0.2l-8.7 20.6h4.1c0.1 0 0.2-0.1 0.3-0.2l2.4-5.7h7.3l2.4 5.7c0 0.1 0.2 0.2 0.3 0.2h4.1l-9-20.6zm-11.1 15c0 1.7-0.7 3.2-1.9 4.2-1.2 1.1-2.9 1.6-4.7 1.6-2.4 0-4.5-0.6-6.4-1.9l-0.2-0.1v-4.6c0-0.1 0.1-0.2 0.2-0.2s0.1 0 0.2 0.1c0.8 1 2.8 3.3 5.9 3.3 2.2 0 3-1.2 3-2 0-1.6-1.8-2.6-3.9-3.8-2.6-1.4-5.5-3-5.5-6.2 0-1.7 0.7-3.2 2-4.2s3-1.5 5.1-1.5c1.8 0 3.5 0.5 5.1 1.5l0.2 0.2v4.2c0 0.1-0.1 0.2-0.2 0.2h-0.1c-0.7-0.7-2.8-2.4-5.3-2.4-1.7 0-2.9 0.8-2.9 1.8 0 1.3 1.6 2.2 3.5 3.2 2.7 1.1 5.9 2.7 5.9 6.6m-22.4-7.5c-0.6 0.6-1.7 0.9-3.1 0.9h-1.5v-5.2h1.5c3.3 0 3.7 1.4 3.8 2.5-0.1 0.8-0.3 1.4-0.7 1.8m8.6 11.9c-1.3-1.6-1.8-2.3-2.6-3.5l-0.1-0.1c-1.4-2.1-2.5-3.8-4.1-5 2-1 3.1-2.7 3.1-4.9 0-1.8-0.7-3.4-2.1-4.5-1.3-1-3.3-1.6-5.5-1.6h-6.1v20.8h3.9c0.1 0 0.3-0.1 0.3-0.3v-8.3h0.8c1.4 0 2.5 0.3 5.4 4.3l2.9 4.1c0.1 0.1 0.3 0.2 0.4 0.2h4.8l-1.1-1.2z"/>
	<path class="st0" d="m53.3 22.9c-0.1 0.1 0 0.2 0.1 0.3l0.2 0.1c0.1 0.1 0.2 0 0.3 0l0.5-0.5c-0.2-0.2-0.4-0.4-0.5-0.6l-0.6 0.7zm2.3 1.3c0 0.1 0 0.2 0.1 0.3l0.2 0.1c0.1 0 0.2 0 0.3-0.1l0.1-0.2-0.6-0.3-0.1 0.2zm-4.3-3.1c-0.1 0.1-0.1 0.2 0 0.3l0.2 0.2c0.1 0.1 0.2 0.1 0.3 0l1-0.8c-0.2-0.3-0.3-0.5-0.4-0.8l-1.1 1.1zm18.6-12.1c0-0.1-0.1-0.2-0.2-0.1l-0.7 0.1 0.9-0.6-0.3-1.5c0-0.1-0.1-0.1-0.2-0.1l-1.4 0.7 1.3-1.5-0.6-1.2c-0.1-0.1-0.2-0.1-0.3-0.1l-1.8 1.4 1.4-2.3c-0.2-0.3-0.5-0.6-0.8-0.9-0.1-0.1-0.2-0.1-0.3 0l-2 2.3 1.1-3.2c-0.3-0.2-0.6-0.4-0.8-0.6-0.1-0.1-0.2 0-0.3 0.1l-1.7 3.1 0.5-3.7c0-0.1-0.1-0.2-0.2-0.3-0.2-0.1-0.4-0.2-0.7-0.2-0.1 0-0.2 0-0.2 0.1l-1.2 3.8-0.3-4.1c0.1-0.1 0-0.2-0.1-0.2h-0.6c-0.1 0-0.2 0.1-0.2 0.2l-0.4 4.2-1.2-4.1c0-0.1-0.1-0.2-0.3-0.1l-0.6 0.1c-0.1 0-0.2 0.1-0.2 0.2l0.6 4.4-2.1-3.8c0-0.1-0.1-0.2-0.2-0.1l-0.5 0.2c-0.1 0-0.2 0.2-0.1 0.3l1.5 4.3-2.9-3.4c-0.1-0.1-0.2-0.1-0.3 0l-0.5 0.2c-0.1 0.1-0.1 0.2-0.1 0.3l2.4 4-3.6-2.9c-0.1-0.1-0.2-0.1-0.3 0l-0.3 0.4c-0.1 0.1-0.1 0.2 0 0.3l3.3 3.5-4.4-2.1c-0.1 0-0.2 0-0.3 0.1l-0.2 0.4c-0.1 0.1 0 0.2 0.1 0.3l4.1 2.8-4.8-1.2c-0.1 0-0.2 0-0.3 0.1l-0.1 0.4c0 0.1 0 0.2 0.1 0.3l4.2 1.7c1.6-2.5 4.2-4.2 7.2-4.5h0.7c3.5 0 6.3 2.8 6.3 6.3 0 3.3-2.5 6-5.7 6.2 3.3-0.3 6.1-2.2 7.5-4.9 0.8-1.5 1.2-3.3 1.1-5.1m-18.3 8.6l-1.8 1.3c-0.1 0.1-0.1 0.2-0.1 0.3l0.1 0.2c0.1 0.1 0.2 0.1 0.3 0.1l1.7-0.8c0-0.3-0.1-0.7-0.2-1.1m-3.4-5.8l3.9 0.7c0.2-0.5 0.4-0.9 0.7-1.4l-4.5-0.1c-0.1 0-0.2 0.1-0.2 0.2v0.4c-0.1 0.1 0 0.2 0.1 0.2m3.7 1.2l-3.8 0.7c-0.1 0-0.2 0.1-0.2 0.2v0.3c0 0.1 0.1 0.2 0.2 0.2l3.3-0.1c0.3-0.4 0.4-0.9 0.5-1.3m-0.4 2.3l-2.8 1.2c-0.1 0-0.2 0.2-0.1 0.3l0.1 0.3c0 0.1 0.2 0.2 0.3 0.1l2.5-0.6v-1.3"/>
	<path class="st1" d="m72.7 16.2l-4.2-1.7c-1.5 2.4-4.1 4.2-7.1 4.5h-0.7c-3.5 0-6.3-2.8-6.3-6.3 0-3.2 2.5-5.9 5.6-6.2-5.1 0.5-8.9 5-8.5 10.1l0.9-0.2-0.7 0.5c-0.1 0.1-0.1 0.2-0.1 0.3l0.3 1.5 1.6-0.7-1.2 1.3c-0.1 0.1-0.1 0.2-0.1 0.3l0.6 1.2 2-1.5-1.3 2.2c-0.1 0.1 0 0.2 0 0.3 0.2 0.3 0.5 0.6 0.8 0.9l2.1-2.4-1.1 3.1c0 0.1 0 0.2 0.1 0.3 0.3 0.2 0.6 0.4 0.8 0.5l1.8-3.3-0.5 3.7c0 0.1 0.1 0.2 0.2 0.3 0.2 0.1 0.4 0.2 0.7 0.2 0.1 0 0.2 0 0.2-0.1l1.2-3.8 0.3 4.1c0 0.1 0.1 0.2 0.2 0.2h0.7c0.1 0 0.2-0.1 0.2-0.2l0.4-4.2 1.2 4.1c0 0.1 0.1 0.2 0.3 0.2l0.6-0.1c0.1 0 0.2-0.1 0.2-0.2l-0.6-4.4 2.1 3.9c0.1 0.1 0.2 0.1 0.3 0.1l0.5-0.2c0.1 0 0.2-0.2 0.1-0.3l-1.5-4.3 2.9 3.4c0.1 0.1 0.2 0.1 0.3 0l0.4-0.3c0.1-0.1 0.1-0.2 0.1-0.3l-2.4-4 3.7 2.8c0.1 0.1 0.2 0.1 0.3 0l0.3-0.4c0.1-0.1 0.1-0.2 0-0.3l-3.4-3.5 4.3 2.1c0.1 0 0.2 0 0.3-0.1l0.2-0.4c0.1-0.1 0-0.2-0.1-0.3l-4.1-2.8 4.8 1.2c0.1 0 0.2 0 0.3-0.1l0.1-0.4c0.1-0.1 0.1-0.3-0.1-0.3m0.5-2.6l-3.9-0.7c-0.2 0.5-0.4 0.9-0.7 1.4l4.5 0.1c0.1 0 0.2-0.1 0.2-0.2v-0.4c0.1 0 0-0.1-0.1-0.2m-6.9-12.1c0-0.1 0-0.2-0.1-0.3h-0.2c-0.1 0-0.2 0-0.3 0.1l-0.2 0.3c0.2 0.1 0.4 0.3 0.6 0.4l0.2-0.5zm3.1 11l3.8-0.7c0.1 0 0.2-0.1 0.2-0.2v-0.3c0-0.1-0.1-0.2-0.2-0.2l-3.3 0.1c-0.2 0.4-0.3 0.8-0.5 1.3m0.4-1.8l3-1.3c0.1 0 0.2-0.2 0.1-0.3l-0.1-0.3c0-0.1-0.1-0.2-0.3-0.1l-2.7 0.6c0.1 0.5 0.1 1 0 1.4m0.6-5.9c0.1-0.1 0.1-0.2 0-0.3l-0.2-0.2c-0.1-0.1-0.2-0.1-0.3 0l-1.1 0.8c0.2 0.3 0.3 0.6 0.5 0.9l1.1-1.2zm-0.5 3.6l2-1.4c0.1-0.1 0.1-0.2 0.1-0.3l-0.1-0.2c-0.1-0.1-0.2-0.1-0.3-0.1l-1.9 0.9c0 0.3 0.1 0.7 0.2 1.1m-1.9-4.6c-0.2-0.2-0.3-0.4-0.5-0.6l0.5-0.7c0.1-0.1 0.2-0.1 0.3 0l0.2 0.1c0.1 0.1 0.1 0.2 0.1 0.3l-0.6 0.9z"/>
</svg>
