<?xml version="1.0" encoding="UTF-8" standalone="no"?>
<!-- Generator: Adobe Illustrator 19.1.0, SVG Export Plug-In . SVG Version: 6.00 Build 0)  -->
<svg id="Layer_1" style="enable-background:new 0 0 111 26.9" xmlns="http://www.w3.org/2000/svg" xml:space="preserve" viewBox="0 0 111 26.9" version="1.1" y="0px" x="0px" xmlns:xlink="http://www.w3.org/1999/xlink">
<style type="text/css">
	.st0{fill:#A7206E;}
</style>
	<path class="st0" d="m9 12.5l2.1-5 2.1-5 2.1 5 1.6 3.6h9.1c-1-6.1-6.4-10.9-12.9-10.9-7.2 0-13.1 6-13.1 13.3 0 0.5 0 1 0.1 1.4h17.3l-2.1 4.6-2.1 4.5-2.1-4.6-1.8-3.6h-9c1 6.2 6.4 10.9 12.8 10.9 7.2 0 13.1-5.9 13.1-13.2v-1h-17.2z"/>
	<path class="st0" d="m52.8 0.2h-3.1l-3.7 11.2h2.8l0.7-2.3h3.5l0.7 2.3h2.9l-3.8-11.2zm-2.7 6.9l1.1-3.7 1.1 3.7h-2.2z"/>
	<path class="st0" d="m103.5 7.3h1l3.1 4.1h3.4l-3.8-4.8c0.6-0.3 1.2-0.7 1.5-1.3 0.4-0.5 0.6-1.2 0.6-2.1 0-0.6-0.1-1.1-0.4-1.5-0.2-0.4-0.6-0.7-1-1-0.4-0.2-0.8-0.4-1.3-0.5s-1-0.1-1.6-0.1h-4.5v11.2h2.8v-4zm0-5h0.9 0.8c0.2 0 0.4 0.1 0.6 0.1 0.2 0.1 0.4 0.3 0.5 0.5s0.2 0.4 0.2 0.7 0 0.6-0.1 0.8-0.2 0.4-0.4 0.5c-0.2 0.2-0.4 0.3-0.7 0.3-0.3 0.1-0.6 0.1-1 0.1h-0.8v-3z"/>
	<path class="st0" d="m91.8 11.6c1.7 0 3-0.5 4-1.6 1-1 1.4-2.5 1.4-4.3s-0.5-3.2-1.4-4.3c-1-1-2.3-1.6-4-1.6s-3 0.5-4 1.6c-1 1-1.4 2.5-1.4 4.3s0.5 3.2 1.4 4.2c1 1.2 2.3 1.7 4 1.7zm-2.3-7.5c0.1-0.5 0.3-0.9 0.6-1.2s0.5-0.5 0.8-0.7c0.3-0.1 0.6-0.2 0.9-0.2s0.6 0.1 0.9 0.2c0.3 0.2 0.6 0.5 0.9 0.8 0.2 0.3 0.4 0.7 0.5 1.2s0.2 1 0.2 1.7-0.1 1.3-0.2 1.7-0.3 0.7-0.5 1.1c-0.2 0.3-0.5 0.5-0.8 0.7-0.3 0.1-0.6 0.2-1 0.2-0.3 0-0.6-0.1-0.9-0.2-0.3-0.2-0.6-0.4-0.9-0.7-0.2-0.3-0.4-0.7-0.6-1.1-0.1-0.5-0.2-1-0.2-1.7 0.1-0.7 0.2-1.3 0.3-1.8z"/>
	<path class="st0" d="m40.5 4.9c-0.4-0.1-0.8-0.2-1.1-0.3-0.4-0.1-0.7-0.2-1.1-0.2-0.6-0.1-1-0.3-1.2-0.5s-0.3-0.4-0.3-0.7c0-0.2 0.1-0.4 0.2-0.5 0.1-0.2 0.3-0.3 0.5-0.4s0.4-0.2 0.6-0.2 0.4-0.1 0.7-0.1c0.6 0 1.2 0.1 1.8 0.4 0.6 0.2 1.1 0.5 1.5 0.9h0.2v-2.5c-0.5-0.2-1.1-0.4-1.8-0.5s-1.3-0.2-2-0.2c-1.3 0-2.4 0.3-3.3 1-0.9 0.6-1.3 1.5-1.3 2.5 0 0.8 0.2 1.4 0.6 1.9s1 0.9 1.9 1.2c0.3 0.1 0.7 0.3 1.2 0.3l1.2 0.3c0.3 0.1 0.6 0.2 0.8 0.4s0.3 0.4 0.3 0.7-0.1 0.5-0.2 0.6c-0.1 0.2-0.3 0.3-0.5 0.4s-0.4 0.1-0.6 0.2c-0.3 0-0.5 0.1-0.6 0.1-0.6 0-1.3-0.1-2-0.4s-1.3-0.6-1.8-1.1h-0.3v2.7c0.6 0.2 1.2 0.5 1.8 0.6 0.6 0.2 1.4 0.2 2.2 0.2 1.5 0 2.7-0.3 3.5-1 0.9-0.7 1.3-1.6 1.3-2.7 0-0.8-0.2-1.4-0.6-1.9-0.3-0.5-0.9-0.9-1.6-1.2z"/>
	<polygon points="63.2 3.6 67.5 11.4 70.2 11.4 70.2 0.2 67.6 0.2 67.6 6.6 64 0.2 60.6 0.2 60.6 11.4 63.2 11.4" class="st0"/>
	<path class="st0" d="m79.2 11.6c0.5 0 1 0 1.3-0.1s0.6-0.1 1-0.2c0.3-0.1 0.6-0.2 0.8-0.3 0.3-0.1 0.5-0.2 0.7-0.3v-2.7h-0.3c-0.1 0.1-0.3 0.3-0.5 0.4-0.2 0.2-0.4 0.3-0.7 0.5-0.2 0.1-0.5 0.3-0.8 0.4s-0.7 0.2-1.1 0.2-0.7-0.1-1.1-0.2-0.7-0.3-1-0.6-0.5-0.7-0.7-1.1c-0.2-0.5-0.3-1.1-0.3-1.8s0.1-1.2 0.3-1.7 0.4-0.9 0.7-1.2 0.6-0.5 1-0.7c0.3-0.1 0.7-0.2 1.1-0.2 0.3 0 0.7 0.1 1 0.2s0.6 0.2 0.9 0.4c0.2 0.2 0.5 0.4 0.7 0.6s0.4 0.3 0.5 0.4h0.3v-2.7c-0.2-0.1-0.4-0.2-0.7-0.3s-0.6-0.2-0.8-0.3c-0.3-0.1-0.7-0.2-1-0.2-0.5-0.1-0.9-0.1-1.3-0.1-1.7 0-3 0.5-4 1.6s-1.5 2.5-1.5 4.2c0 1.8 0.5 3.3 1.5 4.3s2.3 1.5 4 1.5z"/>
	<path class="st0" d="m40.5 20.2c-0.4-0.1-0.8-0.3-1.1-0.3-0.4-0.1-0.7-0.2-1.1-0.2-0.6-0.1-1-0.3-1.2-0.5s-0.3-0.4-0.3-0.7c0-0.2 0.1-0.4 0.2-0.5 0.1-0.2 0.3-0.3 0.5-0.4s0.4-0.2 0.6-0.2h0.7c0.6 0 1.2 0.1 1.8 0.4 0.6 0.2 1.1 0.5 1.5 0.9h0.2v-2.6c-0.5-0.2-1.1-0.4-1.8-0.5s-1.3-0.2-2-0.2c-1.3 0-2.4 0.3-3.3 1-0.9 0.6-1.3 1.5-1.3 2.5 0 0.8 0.2 1.4 0.6 1.9s1 0.9 1.9 1.2l1.2 0.3 1.2 0.3c0.3 0.1 0.6 0.2 0.8 0.4s0.3 0.4 0.3 0.7-0.1 0.5-0.2 0.6c-0.1 0.2-0.3 0.3-0.5 0.4s-0.4 0.1-0.6 0.2h-0.6c-0.6 0-1.3-0.1-2-0.4s-1.3-0.6-1.8-1.1h-0.3v2.6c0.6 0.2 1.2 0.5 1.8 0.6 0.6 0.2 1.4 0.2 2.2 0.2 1.5 0 2.7-0.3 3.5-1 0.9-0.7 1.3-1.6 1.3-2.7 0-0.8-0.2-1.4-0.6-1.9-0.3-0.3-0.9-0.7-1.6-1z"/>
	<path class="st0" d="m108.6 20.2c-0.4-0.1-0.8-0.3-1.1-0.3-0.3-0.1-0.7-0.2-1.1-0.2-0.6-0.1-1-0.3-1.2-0.5s-0.3-0.4-0.3-0.7c0-0.2 0.1-0.4 0.2-0.5 0.1-0.2 0.3-0.3 0.5-0.4s0.4-0.2 0.6-0.2h0.7c0.6 0 1.2 0.1 1.8 0.4 0.6 0.2 1.1 0.5 1.5 0.9h0.2v-2.6c-0.5-0.2-1.1-0.4-1.8-0.5s-1.3-0.2-2-0.2c-1.3 0-2.4 0.3-3.3 1-0.9 0.6-1.3 1.5-1.3 2.5 0 0.8 0.2 1.4 0.6 1.9s1 0.9 1.9 1.2l1.2 0.3 1.2 0.3c0.3 0.1 0.6 0.2 0.8 0.4s0.3 0.4 0.3 0.7-0.1 0.5-0.2 0.6c-0.1 0.2-0.3 0.3-0.5 0.4s-0.4 0.1-0.6 0.2h-0.6c-0.6 0-1.3-0.1-2-0.4s-1.3-0.6-1.8-1.1h-0.3v2.6c0.6 0.2 1.2 0.5 1.8 0.6 0.6 0.2 1.4 0.2 2.2 0.2 1.5 0 2.7-0.3 3.5-1 0.9-0.7 1.3-1.6 1.3-2.7 0-0.8-0.2-1.4-0.6-1.9-0.3-0.3-0.9-0.7-1.6-1z"/>
	<path class="st0" d="m95 15.3c-1.7 0-3 0.5-4 1.6-1 1-1.4 2.5-1.4 4.3s0.5 3.2 1.4 4.2c1 1 2.3 1.6 4 1.6s3-0.5 4-1.6c1-1 1.4-2.5 1.4-4.3s-0.5-3.2-1.4-4.3c-1-1-2.3-1.5-4-1.5zm2.3 7.5c-0.1 0.4-0.3 0.8-0.6 1.1-0.2 0.3-0.5 0.5-0.8 0.7-0.3 0.1-0.6 0.2-1 0.2-0.3 0-0.6-0.1-0.9-0.2s-0.6-0.4-0.8-0.7-0.4-0.7-0.6-1.1c-0.1-0.5-0.2-1-0.2-1.7s0.1-1.2 0.2-1.7 0.3-0.9 0.6-1.2 0.5-0.5 0.8-0.7c0.3-0.1 0.6-0.2 0.9-0.2s0.6 0.1 0.9 0.2 0.6 0.3 0.8 0.7c0.2 0.3 0.4 0.7 0.6 1.2 0.1 0.5 0.2 1 0.2 1.7 0.1 0.7 0 1.3-0.1 1.7z"/>
	<path class="st0" d="m86.7 20.7c0.4-0.5 0.6-1.2 0.6-2.1 0-0.6-0.1-1.1-0.4-1.5-0.2-0.4-0.6-0.7-1-1-0.4-0.2-0.8-0.4-1.3-0.5s-1-0.1-1.6-0.1h-4.5v11.2h2.8v-4.1h1l3.1 4.1h3.4l-3.8-4.8c0.8-0.3 1.3-0.7 1.7-1.2zm-2.5-1c-0.1 0.2-0.2 0.4-0.4 0.5-0.2 0.2-0.4 0.3-0.7 0.3s-0.6 0.1-1 0.1h-0.8v-3h0.9 0.8c0.2 0 0.4 0.1 0.6 0.1 0.2 0.1 0.4 0.3 0.5 0.5s0.2 0.4 0.2 0.7c0.1 0.4 0 0.6-0.1 0.8z"/>
	<path class="st0" d="m59.1 22.7h2.2v2.2h-0.4-0.4c-1.1 0-2-0.3-2.7-0.9s-1-1.6-1-2.9c0-0.6 0.1-1.1 0.3-1.6s0.4-0.8 0.7-1.1 0.7-0.5 1.1-0.7 0.8-0.2 1.3-0.2c0.4 0 0.8 0.1 1.2 0.2s0.7 0.3 1 0.4c0.2 0.1 0.5 0.3 0.7 0.5 0.3 0.2 0.4 0.3 0.6 0.4h0.3v-2.6c-0.6-0.3-1.2-0.5-1.8-0.7s-1.3-0.3-2.3-0.3c-1.8 0-3.2 0.5-4.3 1.6-1 1.1-1.6 2.5-1.6 4.2 0 1.9 0.5 3.3 1.6 4.3 1 1 2.4 1.5 4.2 1.5 0.8 0 1.5-0.1 2.3-0.3s1.4-0.4 1.9-0.6v-5.5h-4.9v2.1z"/>
	<path class="st0" d="m73.1 22.5c0 0.8-0.1 1.4-0.5 1.8-0.3 0.4-0.8 0.5-1.4 0.5-0.7 0-1.1-0.2-1.4-0.6s-0.4-1-0.4-1.7v-7h-2.8v7.1c0 1.4 0.4 2.5 1.2 3.2s2 1.1 3.5 1.1 2.7-0.4 3.5-1.1 1.2-1.8 1.2-3.2v-7.1h-2.8v7z"/>
	<polygon points="44.7 26.7 52.3 26.7 52.3 24.6 47.5 24.6 47.5 21.7 51.9 21.7 51.9 19.6 47.5 19.6 47.5 17.7 52.3 17.7 52.3 15.5 44.7 15.5" class="st0"/>
</svg>
