<?xml version="1.0" encoding="utf-8"?>
<!-- Generator: Adobe Illustrator 20.1.0, SVG Export Plug-In . SVG Version: 6.00 Build 0)  -->
<svg version="1.1" id="Capa_1" xmlns="http://www.w3.org/2000/svg" xmlns:xlink="http://www.w3.org/1999/xlink" x="0px" y="0px"
	 viewBox="0 0 151.5 53.4" style="enable-background:new 0 0 151.5 53.4;" xml:space="preserve">
<style type="text/css">
	.st0{fill:#124C96;}
	.st1{fill-rule:evenodd;clip-rule:evenodd;fill:#01A8BF;}
	.st2{fill:#FFFFFF;}
</style>
<g>
	<g>
		<path class="st0" d="M45.1,12.9c3.7,0,5.3,1.6,5.3,6l0,16.3c0,5.6-5.6,8.4-11.3,8.4c-5.9,0-11-2.8-11-8.4V12.9
			c2.5,0,5.3,0.8,5.3,5.3l0,15.7c0,3.1,2.3,4.6,5.8,4.6c3.3,0,5.9-1.5,5.9-4.6L45.1,12.9z M57.6,43.1h5.3V24.3c0-4,2.2-6.4,6.2-6.4
			h1.6c4.6,0,5.4-2.4,5.4-5h-7.4c-6.6,0-11.1,3.8-11.1,11.6V43.1z M9.1,24.6c-1.8-0.5-3.4-1.3-3.4-3.4c0-2.3,1.4-3.4,4.2-3.4h5.8
			c2.5,0,5.6-0.8,5.6-5l-10.8,0C3.8,12.9,0,16.2,0,21.1c0,4.5,2.9,7,7.9,8.4l5.6,1.5c2.3,0.6,3.2,2.1,3.2,3.6c0,2.3-1.4,3.6-4.9,3.7
			L1,38.2v4.9h11c6.7,0,10.5-3.6,10.5-8.3c0-4.7-1.9-7.1-6.8-8.4L9.1,24.6z M102.9,17.2L102.9,17.2l0,26c-3.3,0-5-0.9-5.4-4
			c0,0-2.3,4.6-9,4.6c-8.1,0-12.9-6.4-12.6-15.6c0.3-10.1,6.9-15.3,13.9-15.3h1.3v0h11.7V17.2z M97.2,17.7h-6.1v0c-0.3,0-0.7,0-1,0
			c-4.6,0-8.1,3.2-8.3,10.4c-0.2,7.6,3.1,10.7,7.8,10.7c5.2,0,7.6-4,7.6-8.2V17.7z"/>
	</g>
	<g>
		<g>
			<g>
				<g>
					<g>
						<path class="st1" d="M131,45.1c0.1,0,0.1,0.1,0.1,0.2c-0.6,0.7-1.5,1.6-2.7,2.5c-1.2,0.8-2.6,1.7-4.1,2.4
							c-1.6,0.7-2.9,1.4-4.4,1.7c-1.6,0.4-3,0.6-4.2,0.4c-0.9-0.1-1.7-0.4-2.3-0.9c0,0,0-0.1,0-0.1c0-0.1,0.1-0.1,0.1-0.1
							c3.6-0.6,6.9-1.5,10-2.5C126.6,47.6,129.2,46.4,131,45.1"/>
						<path class="st1" d="M130.7,43.4c-2,1.2-6,2.9-9.5,3.8c-4.2,1.2-7.5,1.8-9.7,1.4c-2-0.3-2.9-1.2-3.2-1.6c0,0-0.1-0.1-0.1-0.1
							c0-0.1,0.1-0.1,0.2-0.1l0.8-0.1c1.7-0.1,4.6-0.2,8.1-0.7c4-0.6,10.5-1.7,13.4-2.9C130.8,43.2,130.8,43.3,130.7,43.4"/>
						<path class="st1" d="M130.4,48.5c0.1,0,0.1,0,0.1,0.1c-0.7,1.7-1.6,3-3.2,3.9c-2.8,1.4-4.3,0.6-4.5,0.5c0,0-0.1-0.1-0.1-0.2
							c0-0.1,0.1-0.1,0.1-0.1C124.1,52.4,127.8,51,130.4,48.5C130.3,48.5,130.4,48.5,130.4,48.5"/>
						<path class="st1" d="M149.2,21.8c0,0,0.1,0.1,0.1,0.1c0,0.1-0.1,0.1-0.1,0.1c-0.8-0.2-2.6-0.7-4.9-1.4
							c-5.2-1.4-24.8-6.7-25.2-6.8l-0.1,0c-1.2-0.4-2.1-1-2.9-1.8c-0.2-0.2-0.4-0.5-0.6-0.8c-0.6-1-0.8-2.5-0.8-2.7c0,0,0-0.1,0-0.1
							c0,0,0.1,0,0.2,0l3.2,1.3C125.7,12.6,145.9,20.4,149.2,21.8"/>
						<path class="st1" d="M145.9,18.7c0,0.1,0,0.2-0.1,0.1c-1.1-0.6-3.8-1.8-6.4-3.1c-2.2-1.1-17.4-8.2-18.4-8.8L119.1,6
							c-0.3-0.1-0.5-0.3-0.8-0.4c-0.7-0.4-1.1-0.8-1.5-1.2c-0.3-0.4-0.6-0.9-0.8-1.4c-0.4-1.1-0.4-2.5-0.4-2.8c0,0,0-0.1,0.1-0.1
							c0,0,0.1,0,0.2,0l1.9,1.2l1,0.6l5.6,3.4C132.2,10,143.1,16.9,145.9,18.7"/>
						<path class="st1" d="M151.4,23.9c0,0,0.1,0.1,0.1,0.1c0,0.1-0.1,0.1-0.1,0.1c-3-0.2-29.9-2.1-29.9-2.1c-0.2,0-0.4,0-0.7-0.1
							c-2.1-0.7-3.4-2.3-3.9-4c0-0.1,0-0.1,0-0.2c0,0,0.1-0.1,0.2-0.1C117.1,17.6,148.8,23.4,151.4,23.9"/>
						<path class="st1" d="M150.1,25.7c0.1,0,0.1,0.1,0.1,0.1c0,0,0,0.1-0.1,0.1c-1.1,0.2-21.6,3-21.7,3c-0.1,0-0.2,0-0.4,0
							c-0.1,0-0.2,0-0.3,0c-1-0.1-1.9-0.6-2.8-1.5c-0.4-0.5-0.8-1.2-0.9-1.5c0,0,0-0.1,0-0.1c0,0,0.1-0.1,0.1-0.1c0,0,6.9,0,11.2,0
							c3.2,0,6.7,0,9.5,0C147.2,25.7,149.2,25.7,150.1,25.7"/>
						<path class="st1" d="M148.6,27.8c0,0,0.1,0,0.1,0c0,0,0.1,0.1,0,0.1c-0.7,0.4-15.4,6.5-15.5,6.6c-0.8,0.3-1.7,0.4-2.4-0.7
							c-0.3-0.5-0.5-0.8-0.6-1c0-0.1-0.2-0.2,0.2-0.4c0,0,4.1-1.1,7.8-2C142.5,29.4,147.3,28.1,148.6,27.8"/>
						<path class="st1" d="M142.1,37.9c0.1,0,0.1,0.1,0.1,0.2c-1.4,1.6-6.7,7.4-9,9.9c-0.3,0.3-0.4,0.1-0.3-0.1c0,0,0.5-1.1,0.6-2
							c0.1-0.5,0.2-1,0.5-1.2C137.1,42.1,140,39.6,142.1,37.9L142.1,37.9z"/>
						<path class="st1" d="M146.9,30.6c0.1,0,0.1,0.1,0.1,0.2c-1.4,1.2-8,6.7-11.6,9.6l-0.1,0.1c-1,0.8-1.7,1-1.8-0.7
							c0-0.4-0.1-0.7-0.1-0.7c-0.1-0.4,0-0.4,0.2-0.4c1.2-0.7,3.4-1.9,5.1-3C141.8,33.7,145.5,31.5,146.9,30.6"/>
					</g>
				</g>
			</g>
		</g>
	</g>
</g>
</svg>
