<?xml version="1.0" encoding="UTF-8" standalone="no"?>
<!-- Generator: Adobe Illustrator 19.1.0, SVG Export Plug-In . SVG Version: 6.00 Build 0)  -->
<svg id="Layer_1" style="enable-background:new 0 0 127.6 29.1" xmlns="http://www.w3.org/2000/svg" xml:space="preserve" viewBox="0 0 127.6 29.1" version="1.1" y="0px" x="0px" xmlns:xlink="http://www.w3.org/1999/xlink">
<style type="text/css">
	.st0{fill:#005BAA;}
	.st1{fill:#03296A;}
</style>
	<path class="st0" d="m14.6 0c-8.1 0-14.6 6.5-14.6 14.6 0 3.3 1.1 6.4 3 8.8l12.1-15.9h-2.6c-1.4 0-2.7 0.1-3.6 0.3-0.6 0.1-1.1 0.3-1.5 0.6-0.5 0.3-1.1 1.1-1.5 1.8 0 0.1-0.1 0.2-0.2 0.4l-0.7-0.2 1.2-4.6h15.2l-12 16.1c0.8-0.1 1.1-0.1 1.7-0.1 0.5 0 1.2 0 2.2 0.1l2.1 0.1c0.8 0 1.4 0.1 1.9 0.1 1.1 0 1.8-0.1 2.5-0.3 0.6-0.2 1.1-0.4 1.6-0.8 0.8-0.6 1.7-1.5 2.2-2.5 0-0.1 0.1-0.2 0.2-0.4l0.6 0.2c-0.2 0.8-0.3 1.1-0.6 1.8-0.6 1.4-1.4 2.4-2.4 3.2s-2.2 1.1-3.5 1.2h-0.2c-1 0-1.8-0.1-4.2-0.5s-3.7-0.5-4.9-0.5c-0.8 0-1.6 0.1-2.4 0.2-1 0.2-1.5 0.3-2.4 0.7 2.7 2.9 6.5 4.7 10.7 4.7 8 0 14.6-6.5 14.6-14.6s-6.5-14.5-14.5-14.5"/>
	<path class="st1" d="m78.2 13.7c-0.5 0.3-1 0.5-1.8 0.6-0.3 0-0.5 0.1-0.7 0.1h-0.2v-5.3h0.4c0.7 0 1.4 0.1 1.9 0.2 0.4 0.1 0.7 0.3 1 0.5 0.5 0.4 0.7 1 0.7 1.7 0 0.6-0.2 1.2-0.6 1.6-0.2 0.3-0.4 0.5-0.7 0.6m5.4 7l-1.6-1.6c-0.4-0.5-0.8-0.8-1-1.2l-2.2-2.6c0.3-0.1 0.4-0.1 0.6-0.2 0.7-0.3 1.3-0.6 1.8-1 0.6-0.5 0.9-1 1.1-1.6 0.1-0.4 0.2-0.7 0.2-1.1 0-0.9-0.3-1.7-1-2.3-0.6-0.6-1.4-1.1-2.3-1.3-0.6-0.1-1.3-0.2-2.4-0.2h-1.3-3.7c0.2 0.1 0.3 0.2 0.5 0.4 0.1 0.2 0.2 0.3 0.2 0.5 0.1 0.3 0.1 0.8 0.1 1.5v9.3c0 0.7 0 1.1-0.2 1.4-0.1 0.2-0.1 0.3-0.2 0.5s-0.2 0.3-0.5 0.5h4.5c-0.2-0.2-0.3-0.3-0.4-0.5-0.1-0.1-0.2-0.3-0.2-0.4-0.1-0.3-0.2-0.7-0.2-1.3v-0.7-3.2l2.6 3.2c0.1 0.2 0.3 0.4 0.6 0.7s0.5 0.6 0.7 0.8c0.5 0.5 1 0.9 1.5 1.2 0.4 0.2 0.8 0.3 1.4 0.3h0.7 1.8c-0.2-0.2-0.3-0.3-0.5-0.4-0.2-0.3-0.4-0.5-0.6-0.7m6-10.6c0-0.9 0-1.2 0.1-1.6 0-0.2 0.1-0.3 0.2-0.4 0.1-0.2 0.2-0.4 0.5-0.6h-4.6c0.3 0.3 0.4 0.4 0.5 0.6 0.1 0.1 0.2 0.3 0.2 0.5 0.1 0.3 0.1 0.7 0.2 1.5v0.9 8.5c0 0.5-0.1 1-0.2 1.4-0.1 0.1-0.1 0.3-0.2 0.4-0.1 0.2-0.2 0.2-0.4 0.5h4.5c-0.2-0.2-0.3-0.3-0.4-0.5-0.1-0.1-0.2-0.3-0.2-0.4-0.1-0.3-0.2-0.8-0.2-1.2v-8.5-1.1zm13.6 9.5c-0.9 0.4-1.6 0.5-2.5 0.5-1.5 0-2.7-0.5-3.7-1.5-0.9-1-1.4-2.4-1.4-3.9s0.5-2.9 1.3-3.8c0.4-0.4 0.8-0.8 1.3-1.1 0.8-0.4 1.7-0.7 2.7-0.7 0.9 0 1.7 0.2 2.5 0.5 0.5 0.2 0.7 0.3 1.2 0.6v-2.6c-0.4-0.1-0.5-0.2-0.9-0.2-0.8-0.2-1.6-0.2-2.5-0.2-1.5 0-2.8 0.2-4 0.8-0.7 0.3-1.4 0.7-2 1.2-1.8 1.4-2.7 3.4-2.7 5.8 0 2.3 0.9 4.3 2.6 5.6 1.4 1.1 3.2 1.6 5.3 1.6 1.3 0 2.6-0.2 4-0.6 0.1 0 0.1 0 0.2-0.1v-2.6c-0.3 0.2-0.5 0.3-0.7 0.4-0.1 0-0.4 0.2-0.7 0.3m16.7-9.5c0-0.6 0.1-1.1 0.2-1.5 0-0.2 0.1-0.4 0.2-0.5 0.1-0.2 0.3-0.4 0.6-0.6h-4.6c0.3 0.2 0.4 0.3 0.5 0.6 0.1 0.2 0.2 0.3 0.2 0.5 0.1 0.3 0.2 0.7 0.2 1.5v3.4h-6.4v-2.6-1.7c0-0.2 0.1-0.4 0.1-0.6 0.1-0.3 0.4-0.7 0.6-1l0.2-0.2h-4.5c0.3 0.3 0.3 0.4 0.5 0.5 0.1 0.1 0.2 0.3 0.2 0.5 0.1 0.4 0.1 0.6 0.2 1.5v0.9 7.8c0 0.8 0 1.1-0.1 1.5 0 0.2-0.1 0.4-0.1 0.6-0.1 0.3-0.3 0.5-0.5 0.8 0 0-0.1 0.1-0.2 0.1h4.5c-0.2-0.2-0.3-0.3-0.4-0.5-0.1-0.1-0.2-0.3-0.2-0.4-0.1-0.4-0.2-0.6-0.2-1.2v-0.8-3.4h6.4v3.5c0 0.8 0 1-0.1 1.4 0 0.2-0.1 0.4-0.2 0.6-0.1 0.3-0.3 0.5-0.5 0.7l-0.2 0.2h4.5l-0.4-0.4c-0.1-0.2-0.2-0.3-0.3-0.5-0.1-0.3-0.2-0.6-0.2-1.3v-0.7-7.8-0.9zm-70 9.6c-0.6 0.1-1.3 0.2-2.2 0.2h-1.1-2.2l8.6-12.4h-11.2l-1.4 3c0.5-0.2 0.6-0.3 1-0.5 0.6-0.3 1.3-0.4 2-0.6 0.6-0.1 1.1-0.1 2-0.2h1.1 1.6l-8.7 12.4h12.3l1.4-3.2c-0.5 0.3-0.7 0.4-1 0.5-0.6 0.4-1.4 0.6-2.2 0.8m15.5-11.7c0.1 0.2 0.2 0.3 0.2 0.5 0.1 0.3 0.1 0.7 0.1 1.5v5.4c0 1.2 0 1.8-0.1 2.4-0.1 0.4-0.2 0.7-0.4 1-0.3 0.6-1 1-1.7 1.2-0.3 0.1-0.6 0.1-1 0.1-1.2 0-2.3-0.5-2.8-1.2-0.4-0.6-0.5-1.1-0.5-2.6v-1.2-4.3-1.6c0-0.3 0.1-0.5 0.1-0.6 0.1-0.3 0.3-0.8 0.6-1l0.1-0.1h-4.6c0.3 0.2 0.4 0.3 0.5 0.6 0.1 0.2 0.2 0.3 0.2 0.5 0.1 0.2 0.1 0.4 0.1 0.7v0.9 0.8 4c0 1.5 0 1.9 0.1 2.5 0.1 1 0.4 1.9 1 2.6 1.1 1.4 2.8 2.1 5 2.1 1.1 0 2.1-0.2 2.8-0.4 0.8-0.3 1.6-0.8 2.1-1.4 0.7-0.7 1-1.6 1.1-2.8 0.1-0.6 0.1-1.4 0.1-2.5v-4.1-0.8-0.3c0-0.6 0-1 0.1-1.3 0.1-0.2 0.1-0.4 0.2-0.6s0.3-0.4 0.6-0.6h-4.5c0.4 0.3 0.5 0.4 0.6 0.6m59.7-4v-0.9h0.2c0.3 0 0.6 0 0.6 0.4 0 0.3-0.3 0.4-0.6 0.4h-0.2zm0.6 0.1c0.3 0 0.5-0.2 0.5-0.6s-0.3-0.6-0.7-0.6h-0.6v2.4h0.2v-1.1h0.2c0.2 0 0.4 0 0.5 0.3l0.4 0.8h0.3l-0.5-0.9c0-0.2-0.1-0.3-0.3-0.3m-0.1 1.7c-1 0-1.8-0.8-1.8-1.8s0.8-1.8 1.8-1.8 1.8 0.8 1.8 1.8c-0.1 1-0.8 1.8-1.8 1.8m0-3.7c-1.1 0-2 0.9-2 2s0.9 2 2 2 2-0.9 2-2-0.9-2-2-2"/>
</svg>
