<?xml version="1.0" encoding="utf-8"?>
<!-- Generator: Adobe Illustrator 19.1.0, SVG Export Plug-In . SVG Version: 6.00 Build 0)  -->
<svg version="1.1" id="Layer_1" xmlns="http://www.w3.org/2000/svg" xmlns:xlink="http://www.w3.org/1999/xlink" x="0px" y="0px"
	 viewBox="0 0 318.1 93" style="enable-background:new 0 0 318.1 93;" xml:space="preserve">
<style type="text/css">
	.st0{fill:#919396;}
	.st1{fill:#EB2227;}
	.st2{fill:#FAAF42;}
	.st3{fill:#8CC541;}
	.st4{opacity:0.2;fill:#919396;}
</style>
<g>
	<g>
		<g>
			<g>
				<g>
					<path class="st0" d="M106,92.9c-4,0-7.9-1-11.5-3.9l3.1-4.2c2.1,1.9,5.5,2.9,8.2,2.9c4,0,6.7-1.8,6.7-5.5
						c0-3.3-3.1-5.2-6.6-6.9c-5.6-2.8-11.3-5.3-11.4-12.8c0-5.8,4.3-10.1,11.3-10.2c3.9,0,7.5,1.2,10.6,3.3l-2.9,4.4
						c-2.4-1.8-4.5-2.5-7.8-2.4c-3.1,0-5.6,1.6-5.6,4.5c0,4.3,3.8,5.7,8.6,8.1c4.5,2.2,9.2,5,9.2,11.6C118,88.8,112.6,92.8,106,92.9
						z"/>
					<path class="st0" d="M126.8,92.1l-0.2-39.3l22-0.1l0,5.1L132,57.9l0,12.5l16.2-0.1l0,5.1l-16.2,0.1l0,11.6l17.6-0.1l0,5.1
						L126.8,92.1z"/>
					<path class="st0" d="M177.5,92.6c-10,0-19.9-8-20-20.2c0-12.2,9.1-20.3,19.9-20.4c6.4,0,10.7,2,14.5,5.3l-3.3,4
						c-3.4-2.8-6.7-4-11.3-4c-7.9,0-14.2,6-14.2,15.1c0,8,6.6,14.9,14.5,14.9c5.7,0,10.2-3.2,11.5-8l-11.8,0l0-5.1l18.1-0.1
						C195.5,84.9,187,92.6,177.5,92.6z"/>
					<path class="st0" d="M219.2,92.4c-9,0-15.4-5.8-15.4-15.4l-0.1-24.4l5.4,0l0.1,24.4c0,7.6,4.8,10.4,9.9,10.4
						c5.1,0,10-2.9,10-10.5l-0.1-24.4l5.3,0l0.1,24.4C234.5,86.2,227.9,92.4,219.2,92.4z"/>
					<path class="st0" d="M266.3,91.6l-15.9-18.3l0.1,18.4l-5.4,0l-0.2-39.3l12.7,0c7.3,0,12.2,5.2,12.2,11.5
						c0,6.3-5.3,11.3-11.1,11.3l14.5,16.4L266.3,91.6z M256.7,57.4l-6.4,0l0.1,13.5l6.2,0c4.8,0,7.6-3,7.6-7.2
						C264.2,61,261.8,57.4,256.7,57.4z"/>
					<path class="st0" d="M298.1,92.1c-11.2,0-20.2-8.5-20.3-20.3c0-11.5,8.5-20.2,19.8-20.3c12.2,0,20.4,8.8,20.4,20.2
						C318.1,83.2,309.2,92.1,298.1,92.1z M297.7,56.8c-8.5,0-14.3,6.4-14.3,15c0,8.7,6.9,15.1,14.6,15.1c7.7,0,14.5-5.9,14.4-15.3
						C312.4,63.1,306.4,56.8,297.7,56.8z"/>
				</g>
				<path class="st1" d="M8.3,92.6l-0.1-28c-1.9,1.9-4.8,2.7-8.2,3l0-6.3c4.5-0.6,7.8-2.1,10.5-8l6.3,0l0.2,39.3L8.3,92.6z"/>
				<path class="st2" d="M48.2,73.3l-9,11.9l12.5,0l0,7.3l-27.1,0.1l16.4-22.4c1.6-2.2,2.3-3.6,2.3-6.2c0-2.4-1.6-4.4-4.2-4.3
					c-2.8,0-5.5,1.1-5.5,5.5l0,0.9l-8.1,0l0-0.9c0-8.4,6.5-12.5,13.5-12.5c6.9,0,12.8,3.8,12.9,11.3C51.9,67.9,50.2,70.6,48.2,73.3z
					"/>
				<path class="st3" d="M72.1,93c-6.1,0-10.8-2.3-14.1-5.8l4.6-5.4c2.4,2.2,5.8,3.6,9.5,3.6c3.6,0,6.4-2,6.4-5.2
					c0-3.6-2.7-4.7-7.4-4.7l-2.4,0l0-7l3.4,0c3.6,0,5.4-1.2,5.4-4.6c0-2.4-2.5-4-5.5-4c-3.4,0-5.6,0.6-7.8,2.5L60,56.8
					c4-3.2,7.5-4.4,12.7-4.4c6.6,0,13.3,4,13.3,10.5c0,3.9-2,7.1-5.6,8.4c4.1,1.1,6.6,4.5,6.6,8.9C87.1,87.6,81.3,93,72.1,93z"/>
			</g>
			<path class="st4" d="M105.6,30.2C104.2,13.2,89.8,0,72.8,0c-0.8,0-1.7,0-2.5,0.1c-15.6,1.2-27.8,13-30.1,27.9
				c-3.3-3.9-8.4-6.3-13.9-5.9c-4.4,0.3-8.4,2.4-11.3,5.7c-2.7,3.2-4.1,7.2-4,11.3c-0.1,0.2-0.1,0.5-0.1,0.7c0,1.5,1.2,2.8,2.8,2.8
				c1.5,0,2.8-1.2,2.8-2.8c0-0.3-0.1-0.6-0.2-0.9c-0.1-2.8,0.8-5.6,2.7-7.8c2-2.3,4.7-3.7,7.7-3.9c0.3,0,0.6,0,0.9,0
				c5.9,0,10.8,4.6,11.2,10.5c0,0.1,0,0.2,0,0.3l0.1,0c0,0.1,0,0.3,0,0.4c0,1.8,1.5,3.3,3.3,3.3c1.8,0,3.3-1.5,3.3-3.3
				c0-0.3,0-0.6-0.1-0.9l0.1,0c-0.1-0.8-0.2-1.6-0.3-2.5C44,19.8,55.5,6.5,70.7,5.3c0.7-0.1,1.4-0.1,2.1-0.1
				c14.3,0,26.3,11.1,27.6,25.3l-4.1,0.3l7.9,11.6l6.1-12.7L105.6,30.2z"/>
		</g>
	</g>
</g>
</svg>
