<?xml version="1.0" encoding="utf-8"?>
<!-- Generator: Adobe Illustrator 19.1.0, SVG Export Plug-In . SVG Version: 6.00 Build 0)  -->
<svg version="1.1" id="Layer_1" xmlns="http://www.w3.org/2000/svg" xmlns:xlink="http://www.w3.org/1999/xlink" x="0px" y="0px"
	 viewBox="-595.5 290.1 52 52" style="enable-background:new -595.5 290.1 52 52;" xml:space="preserve">
<style type="text/css">
	.st0{fill:none;stroke:#4EC0D0;stroke-width:2.5;stroke-linecap:round;stroke-linejoin:round;stroke-miterlimit:10;}
	.st1{fill:#4EC0D0;}
</style>
<g>
	<path class="st0" d="M-559.7,292.5h-19.5c-1.9,0-3.5,1.6-3.5,3.6v40c0,2,1.6,3.6,3.5,3.6h19.5c1.9,0,3.5-1.6,3.5-3.6v-40
		C-556.2,294.2-557.8,292.5-559.7,292.5L-559.7,292.5z M-561.2,330.2h-16.6v-29.7h16.5L-561.2,330.2L-561.2,330.2z"/>
	<path class="st1" d="M-569.5,335.9c-0.5,0-1-0.4-1-1c0-0.5,0.4-1,1-1c0.5,0,1,0.4,1,1S-568.9,335.9-569.5,335.9L-569.5,335.9z"/>
	<path class="st1" d="M-566.2,296.9h-6.6c-0.4,0-0.7-0.3-0.7-0.7l0,0c0-0.4,0.3-0.7,0.7-0.7h6.6c0.4,0,0.7,0.3,0.7,0.7l0,0
		C-565.5,296.6-565.8,296.9-566.2,296.9z"/>
</g>
</svg>
