<?xml version="1.0" encoding="utf-8"?>
<!-- Generator: Adobe Illustrator 19.1.0, SVG Export Plug-In . SVG Version: 6.00 Build 0)  -->
<svg version="1.1" id="Layer_1" xmlns="http://www.w3.org/2000/svg" xmlns:xlink="http://www.w3.org/1999/xlink" x="0px" y="0px"
	 viewBox="0 0 34.7 40.2" style="enable-background:new 0 0 34.7 40.2;" xml:space="preserve">
<style type="text/css">
	.st0{fill:#999999;}
	.st1{fill:none;stroke:#999999;stroke-width:1.5;stroke-linecap:round;stroke-linejoin:round;stroke-miterlimit:10;}
</style>
<g>
	<g>
		<path class="st0" d="M12.7,28.6c-3.9,0.7-8,1-11.9-0.1c-0.8-0.2-1.1,1-0.3,1.2c4.1,1.2,8.4,0.9,12.6,0.1
			C13.8,29.7,13.5,28.5,12.7,28.6L12.7,28.6z"/>
	</g>
</g>
<g>
	<g>
		<path class="st0" d="M0.5,30c1.7,1,2.9,2.8,4,4.3c1.2,1.7,2.3,3.5,3,5.4c0.3,0.8,1.5,0.4,1.2-0.3c-0.8-2.2-2-4.3-3.4-6.2
			c-1.1-1.6-2.4-3.3-4.1-4.3C0.4,28.5-0.2,29.6,0.5,30L0.5,30z"/>
	</g>
</g>
<path class="st1" d="M3.3,30.4c8.9,6.7,21.1,5.4,27.3-2.8s3.8-20.2-5.1-26.9"/>
</svg>
