<?xml version="1.0" encoding="utf-8"?>
<!-- Generator: Adobe Illustrator 19.1.0, SVG Export Plug-In . SVG Version: 6.00 Build 0)  -->
<svg version="1.1" id="Layer_1" xmlns="http://www.w3.org/2000/svg" xmlns:xlink="http://www.w3.org/1999/xlink" x="0px" y="0px"
	 viewBox="0 0 29.4 43.9" style="enable-background:new 0 0 29.4 43.9;" xml:space="preserve">
<style type="text/css">
	.st0{fill:#164775;}
	.st1{fill:none;stroke:#164775;stroke-width:1.5;stroke-linecap:round;stroke-linejoin:round;stroke-miterlimit:10;}
</style>
<g>
	<g>
		<path class="st0" d="M11.9,31.3c-3.4,2.1-7.1,3.9-11.1,4.2c-0.8,0.1-0.8,1.3,0,1.2C5,36.4,9,34.6,12.5,32.4
			C13.2,32,12.6,30.9,11.9,31.3L11.9,31.3z"/>
	</g>
</g>
<g>
	<g>
		<path class="st0" d="M0.9,37c3.7,0.6,7.7,4,10.1,6.7c0.5,0.6,1.4-0.3,0.9-0.9c-1.5-1.7-3.3-3.1-5.2-4.4c-1.6-1.1-3.5-2.3-5.5-2.6
			C0.5,35.6,0.1,36.8,0.9,37L0.9,37z"/>
	</g>
</g>
<path class="st1" d="M3.8,36.4c10.7,3,21.7-2.5,24.4-12.4S24.5,3.8,13.7,0.8"/>
</svg>
