<?xml version="1.0" encoding="utf-8"?>
<!-- Generator: Adobe Illustrator 19.1.0, SVG Export Plug-In . SVG Version: 6.00 Build 0)  -->
<svg version="1.1" id="Layer_1" xmlns="http://www.w3.org/2000/svg" xmlns:xlink="http://www.w3.org/1999/xlink" x="0px" y="0px"
	 viewBox="-574.7 290.2 52 52" style="enable-background:new -574.7 290.2 52 52;" xml:space="preserve">
<style type="text/css">
	.st0{fill:none;stroke:#4EC0D0;stroke-width:2.5;stroke-linecap:round;stroke-linejoin:round;stroke-miterlimit:10;}
</style>
<g>
	<path class="st0" d="M-528.7,308.1c2.3,0,4.1,1.8,4.1,4.1v5.2c0,2.3-1.8,4.1-4.1,4.1s-4.1-1.8-4.1-4.1v-5.2
		C-532.8,309.9-531,308.1-528.7,308.1z"/>
	<path class="st0" d="M-568.7,308.1c2.3,0,4.1,1.8,4.1,4.1v5.2c0,2.3-1.8,4.1-4.1,4.1s-4.1-1.8-4.1-4.1v-5.2
		C-572.8,309.9-570.9,308.1-568.7,308.1z"/>
	<circle class="st0" cx="-548.4" cy="335.8" r="2.9"/>
	<path class="st0" d="M-528.7,321.5c-2.5,7.4-9,13-16.9,14.1"/>
	<path class="st0" d="M-568.6,308.1c2.8-8.4,10.7-14.4,20-14.4c9.3,0,17.1,6,19.9,14.3"/>
</g>
</svg>
