<?xml version="1.0" encoding="utf-8"?>
<!-- Generator: Adobe Illustrator 19.1.0, SVG Export Plug-In . SVG Version: 6.00 Build 0)  -->
<svg version="1.1" id="Layer_1" xmlns="http://www.w3.org/2000/svg" xmlns:xlink="http://www.w3.org/1999/xlink" x="0px" y="0px"
	 viewBox="-572.5 290.2 52 52" style="enable-background:new -572.5 290.2 52 52;" xml:space="preserve">
<style type="text/css">
	.st0{fill:none;stroke:#4EC0D0;stroke-width:2.5;stroke-linecap:round;stroke-linejoin:round;stroke-miterlimit:10;}
	.st1{fill:#4EC0D0;}
</style>
<g>
	<path class="st0" d="M-557,334.3l-0.5-5.1l12.4-0.8l12.4-0.8l0.3,4c0.3,4.8,7.3,4.4,7-0.5l-0.3-4l3.7-0.2l-0.8-12.4
		c-0.2-3.3-3-4.9-4.5-5l-4.4-9.5c-0.8-1.9-2.4-3.3-5.4-3.1l-5.3,0.3l-9.1,0.6l-5.4,0.4c-2.9,0.2-4.3,1.9-5,3.8l-3.2,9.9
		c-1.5,0.3-4,2.3-3.8,5.6l0.9,12.3l3.7-0.2l0.1,5.1 M-546.2,309.7L-546.2,309.7l-12.5,0.8l2-6.6c0.2-1,0.6-1.6,1.7-1.7l8.3-0.5l0,0
		l8.3-0.5c1.1-0.1,1.6,0.6,1.9,1.5l2.8,6.3L-546.2,309.7z"/>
	<g>
		<g>
			<path class="st1" d="M-557.8,315.3c-0.7,0-1.1,0.6-1.1,1.3c0,0.6,0.6,1.1,1.3,1.1c0.7,0,1.1-0.6,1.1-1.3
				C-556.6,315.8-557.2,315.3-557.8,315.3z M-533.7,313.9c-0.7,0-1.1,0.6-1.1,1.3c0,0.6,0.6,1.1,1.3,1.1c0.7,0,1.1-0.6,1.1-1.3
				C-532.5,314.2-533.1,313.8-533.7,313.9z"/>
		</g>
	</g>
	<line class="st0" x1="-571.3" y1="334.7" x2="-548.8" y2="334.7"/>
	<path class="st0" d="M-547.3,323.9c-1.5-1.5-3.8-1.5-5.3,0"/>
</g>
</svg>
